<?xml version="1.0" encoding="utf-8" standalone="no"?>
<!DOCTYPE svg PUBLIC "-//W3C//DTD SVG 1.1//EN"
  "http://www.w3.org/Graphics/SVG/1.1/DTD/svg11.dtd">
<!-- Created with matplotlib (https://matplotlib.org/) -->
<svg height="288pt" version="1.1" viewBox="0 0 432 288" width="432pt" xmlns="http://www.w3.org/2000/svg" xmlns:xlink="http://www.w3.org/1999/xlink">
 <metadata>
  <rdf:RDF xmlns:cc="http://creativecommons.org/ns#" xmlns:dc="http://purl.org/dc/elements/1.1/" xmlns:rdf="http://www.w3.org/1999/02/22-rdf-syntax-ns#">
   <cc:Work>
    <dc:type rdf:resource="http://purl.org/dc/dcmitype/StillImage"/>
    <dc:date>2021-01-08T19:31:15.863523</dc:date>
    <dc:format>image/svg+xml</dc:format>
    <dc:creator>
     <cc:Agent>
      <dc:title>Matplotlib v3.3.2, https://matplotlib.org/</dc:title>
     </cc:Agent>
    </dc:creator>
   </cc:Work>
  </rdf:RDF>
 </metadata>
 <defs>
  <style type="text/css">*{stroke-linecap:butt;stroke-linejoin:round;}</style>
 </defs>
 <g id="figure_1">
  <g id="patch_1">
   <path d="M 0 288 
L 432 288 
L 432 0 
L 0 0 
z
" style="fill:none;"/>
  </g>
  <g id="axes_1">
   <g id="patch_2">
    <path d="M 54 252 
L 388.8 252 
L 388.8 34.56 
L 54 34.56 
z
" style="fill:#ffffff;"/>
   </g>
   <g id="matplotlib.axis_1">
    <g id="xtick_1">
     <g id="line2d_1">
      <defs>
       <path d="M 0 0 
L 0 3.5 
" id="m05666ac0b5" style="stroke:#000000;stroke-width:0.8;"/>
      </defs>
      <g>
       <use style="stroke:#000000;stroke-width:0.8;" x="69.218182" xlink:href="#m05666ac0b5" y="252"/>
      </g>
     </g>
     <g id="text_1">
      <!-- 0 -->
      <g transform="translate(66.036932 266.598437)scale(0.1 -0.1)">
       <defs>
        <path d="M 31.78125 66.40625 
Q 24.171875 66.40625 20.328125 58.90625 
Q 16.5 51.421875 16.5 36.375 
Q 16.5 21.390625 20.328125 13.890625 
Q 24.171875 6.390625 31.78125 6.390625 
Q 39.453125 6.390625 43.28125 13.890625 
Q 47.125 21.390625 47.125 36.375 
Q 47.125 51.421875 43.28125 58.90625 
Q 39.453125 66.40625 31.78125 66.40625 
z
M 31.78125 74.21875 
Q 44.046875 74.21875 50.515625 64.515625 
Q 56.984375 54.828125 56.984375 36.375 
Q 56.984375 17.96875 50.515625 8.265625 
Q 44.046875 -1.421875 31.78125 -1.421875 
Q 19.53125 -1.421875 13.0625 8.265625 
Q 6.59375 17.96875 6.59375 36.375 
Q 6.59375 54.828125 13.0625 64.515625 
Q 19.53125 74.21875 31.78125 74.21875 
z
" id="DejaVuSans-48"/>
       </defs>
       <use xlink:href="#DejaVuSans-48"/>
      </g>
     </g>
    </g>
    <g id="xtick_2">
     <g id="line2d_2">
      <g>
       <use style="stroke:#000000;stroke-width:0.8;" x="130.090909" xlink:href="#m05666ac0b5" y="252"/>
      </g>
     </g>
     <g id="text_2">
      <!-- 2 -->
      <g transform="translate(126.909659 266.598437)scale(0.1 -0.1)">
       <defs>
        <path d="M 19.1875 8.296875 
L 53.609375 8.296875 
L 53.609375 0 
L 7.328125 0 
L 7.328125 8.296875 
Q 12.9375 14.109375 22.625 23.890625 
Q 32.328125 33.6875 34.8125 36.53125 
Q 39.546875 41.84375 41.421875 45.53125 
Q 43.3125 49.21875 43.3125 52.78125 
Q 43.3125 58.59375 39.234375 62.25 
Q 35.15625 65.921875 28.609375 65.921875 
Q 23.96875 65.921875 18.8125 64.3125 
Q 13.671875 62.703125 7.8125 59.421875 
L 7.8125 69.390625 
Q 13.765625 71.78125 18.9375 73 
Q 24.125 74.21875 28.421875 74.21875 
Q 39.75 74.21875 46.484375 68.546875 
Q 53.21875 62.890625 53.21875 53.421875 
Q 53.21875 48.921875 51.53125 44.890625 
Q 49.859375 40.875 45.40625 35.40625 
Q 44.1875 33.984375 37.640625 27.21875 
Q 31.109375 20.453125 19.1875 8.296875 
z
" id="DejaVuSans-50"/>
       </defs>
       <use xlink:href="#DejaVuSans-50"/>
      </g>
     </g>
    </g>
    <g id="xtick_3">
     <g id="line2d_3">
      <g>
       <use style="stroke:#000000;stroke-width:0.8;" x="190.963636" xlink:href="#m05666ac0b5" y="252"/>
      </g>
     </g>
     <g id="text_3">
      <!-- 4 -->
      <g transform="translate(187.782386 266.598437)scale(0.1 -0.1)">
       <defs>
        <path d="M 37.796875 64.3125 
L 12.890625 25.390625 
L 37.796875 25.390625 
z
M 35.203125 72.90625 
L 47.609375 72.90625 
L 47.609375 25.390625 
L 58.015625 25.390625 
L 58.015625 17.1875 
L 47.609375 17.1875 
L 47.609375 0 
L 37.796875 0 
L 37.796875 17.1875 
L 4.890625 17.1875 
L 4.890625 26.703125 
z
" id="DejaVuSans-52"/>
       </defs>
       <use xlink:href="#DejaVuSans-52"/>
      </g>
     </g>
    </g>
    <g id="xtick_4">
     <g id="line2d_4">
      <g>
       <use style="stroke:#000000;stroke-width:0.8;" x="251.836364" xlink:href="#m05666ac0b5" y="252"/>
      </g>
     </g>
     <g id="text_4">
      <!-- 6 -->
      <g transform="translate(248.655114 266.598437)scale(0.1 -0.1)">
       <defs>
        <path d="M 33.015625 40.375 
Q 26.375 40.375 22.484375 35.828125 
Q 18.609375 31.296875 18.609375 23.390625 
Q 18.609375 15.53125 22.484375 10.953125 
Q 26.375 6.390625 33.015625 6.390625 
Q 39.65625 6.390625 43.53125 10.953125 
Q 47.40625 15.53125 47.40625 23.390625 
Q 47.40625 31.296875 43.53125 35.828125 
Q 39.65625 40.375 33.015625 40.375 
z
M 52.59375 71.296875 
L 52.59375 62.3125 
Q 48.875 64.0625 45.09375 64.984375 
Q 41.3125 65.921875 37.59375 65.921875 
Q 27.828125 65.921875 22.671875 59.328125 
Q 17.53125 52.734375 16.796875 39.40625 
Q 19.671875 43.65625 24.015625 45.921875 
Q 28.375 48.1875 33.59375 48.1875 
Q 44.578125 48.1875 50.953125 41.515625 
Q 57.328125 34.859375 57.328125 23.390625 
Q 57.328125 12.15625 50.6875 5.359375 
Q 44.046875 -1.421875 33.015625 -1.421875 
Q 20.359375 -1.421875 13.671875 8.265625 
Q 6.984375 17.96875 6.984375 36.375 
Q 6.984375 53.65625 15.1875 63.9375 
Q 23.390625 74.21875 37.203125 74.21875 
Q 40.921875 74.21875 44.703125 73.484375 
Q 48.484375 72.75 52.59375 71.296875 
z
" id="DejaVuSans-54"/>
       </defs>
       <use xlink:href="#DejaVuSans-54"/>
      </g>
     </g>
    </g>
    <g id="xtick_5">
     <g id="line2d_5">
      <g>
       <use style="stroke:#000000;stroke-width:0.8;" x="312.709091" xlink:href="#m05666ac0b5" y="252"/>
      </g>
     </g>
     <g id="text_5">
      <!-- 8 -->
      <g transform="translate(309.527841 266.598437)scale(0.1 -0.1)">
       <defs>
        <path d="M 31.78125 34.625 
Q 24.75 34.625 20.71875 30.859375 
Q 16.703125 27.09375 16.703125 20.515625 
Q 16.703125 13.921875 20.71875 10.15625 
Q 24.75 6.390625 31.78125 6.390625 
Q 38.8125 6.390625 42.859375 10.171875 
Q 46.921875 13.96875 46.921875 20.515625 
Q 46.921875 27.09375 42.890625 30.859375 
Q 38.875 34.625 31.78125 34.625 
z
M 21.921875 38.8125 
Q 15.578125 40.375 12.03125 44.71875 
Q 8.5 49.078125 8.5 55.328125 
Q 8.5 64.0625 14.71875 69.140625 
Q 20.953125 74.21875 31.78125 74.21875 
Q 42.671875 74.21875 48.875 69.140625 
Q 55.078125 64.0625 55.078125 55.328125 
Q 55.078125 49.078125 51.53125 44.71875 
Q 48 40.375 41.703125 38.8125 
Q 48.828125 37.15625 52.796875 32.3125 
Q 56.78125 27.484375 56.78125 20.515625 
Q 56.78125 9.90625 50.3125 4.234375 
Q 43.84375 -1.421875 31.78125 -1.421875 
Q 19.734375 -1.421875 13.25 4.234375 
Q 6.78125 9.90625 6.78125 20.515625 
Q 6.78125 27.484375 10.78125 32.3125 
Q 14.796875 37.15625 21.921875 38.8125 
z
M 18.3125 54.390625 
Q 18.3125 48.734375 21.84375 45.5625 
Q 25.390625 42.390625 31.78125 42.390625 
Q 38.140625 42.390625 41.71875 45.5625 
Q 45.3125 48.734375 45.3125 54.390625 
Q 45.3125 60.0625 41.71875 63.234375 
Q 38.140625 66.40625 31.78125 66.40625 
Q 25.390625 66.40625 21.84375 63.234375 
Q 18.3125 60.0625 18.3125 54.390625 
z
" id="DejaVuSans-56"/>
       </defs>
       <use xlink:href="#DejaVuSans-56"/>
      </g>
     </g>
    </g>
    <g id="xtick_6">
     <g id="line2d_6">
      <g>
       <use style="stroke:#000000;stroke-width:0.8;" x="373.581818" xlink:href="#m05666ac0b5" y="252"/>
      </g>
     </g>
     <g id="text_6">
      <!-- 10 -->
      <g transform="translate(367.219318 266.598437)scale(0.1 -0.1)">
       <defs>
        <path d="M 12.40625 8.296875 
L 28.515625 8.296875 
L 28.515625 63.921875 
L 10.984375 60.40625 
L 10.984375 69.390625 
L 28.421875 72.90625 
L 38.28125 72.90625 
L 38.28125 8.296875 
L 54.390625 8.296875 
L 54.390625 0 
L 12.40625 0 
z
" id="DejaVuSans-49"/>
       </defs>
       <use xlink:href="#DejaVuSans-49"/>
       <use x="63.623047" xlink:href="#DejaVuSans-48"/>
      </g>
     </g>
    </g>
   </g>
   <g id="matplotlib.axis_2">
    <g id="ytick_1">
     <g id="line2d_7">
      <defs>
       <path d="M 0 0 
L -3.5 0 
" id="mdb41773daf" style="stroke:#000000;stroke-width:0.8;"/>
      </defs>
      <g>
       <use style="stroke:#000000;stroke-width:0.8;" x="54" xlink:href="#mdb41773daf" y="235.915969"/>
      </g>
     </g>
     <g id="text_7">
      <!-- −3 -->
      <g transform="translate(32.257812 239.715188)scale(0.1 -0.1)">
       <defs>
        <path d="M 10.59375 35.5 
L 73.1875 35.5 
L 73.1875 27.203125 
L 10.59375 27.203125 
z
" id="DejaVuSans-8722"/>
        <path d="M 40.578125 39.3125 
Q 47.65625 37.796875 51.625 33 
Q 55.609375 28.21875 55.609375 21.1875 
Q 55.609375 10.40625 48.1875 4.484375 
Q 40.765625 -1.421875 27.09375 -1.421875 
Q 22.515625 -1.421875 17.65625 -0.515625 
Q 12.796875 0.390625 7.625 2.203125 
L 7.625 11.71875 
Q 11.71875 9.328125 16.59375 8.109375 
Q 21.484375 6.890625 26.8125 6.890625 
Q 36.078125 6.890625 40.9375 10.546875 
Q 45.796875 14.203125 45.796875 21.1875 
Q 45.796875 27.640625 41.28125 31.265625 
Q 36.765625 34.90625 28.71875 34.90625 
L 20.21875 34.90625 
L 20.21875 43.015625 
L 29.109375 43.015625 
Q 36.375 43.015625 40.234375 45.921875 
Q 44.09375 48.828125 44.09375 54.296875 
Q 44.09375 59.90625 40.109375 62.90625 
Q 36.140625 65.921875 28.71875 65.921875 
Q 24.65625 65.921875 20.015625 65.03125 
Q 15.375 64.15625 9.8125 62.3125 
L 9.8125 71.09375 
Q 15.4375 72.65625 20.34375 73.4375 
Q 25.25 74.21875 29.59375 74.21875 
Q 40.828125 74.21875 47.359375 69.109375 
Q 53.90625 64.015625 53.90625 55.328125 
Q 53.90625 49.265625 50.4375 45.09375 
Q 46.96875 40.921875 40.578125 39.3125 
z
" id="DejaVuSans-51"/>
       </defs>
       <use xlink:href="#DejaVuSans-8722"/>
       <use x="83.789062" xlink:href="#DejaVuSans-51"/>
      </g>
     </g>
    </g>
    <g id="ytick_2">
     <g id="line2d_8">
      <g>
       <use style="stroke:#000000;stroke-width:0.8;" x="54" xlink:href="#mdb41773daf" y="205.028787"/>
      </g>
     </g>
     <g id="text_8">
      <!-- −2 -->
      <g transform="translate(32.257812 208.828005)scale(0.1 -0.1)">
       <use xlink:href="#DejaVuSans-8722"/>
       <use x="83.789062" xlink:href="#DejaVuSans-50"/>
      </g>
     </g>
    </g>
    <g id="ytick_3">
     <g id="line2d_9">
      <g>
       <use style="stroke:#000000;stroke-width:0.8;" x="54" xlink:href="#mdb41773daf" y="174.141604"/>
      </g>
     </g>
     <g id="text_9">
      <!-- −1 -->
      <g transform="translate(32.257812 177.940823)scale(0.1 -0.1)">
       <use xlink:href="#DejaVuSans-8722"/>
       <use x="83.789062" xlink:href="#DejaVuSans-49"/>
      </g>
     </g>
    </g>
    <g id="ytick_4">
     <g id="line2d_10">
      <g>
       <use style="stroke:#000000;stroke-width:0.8;" x="54" xlink:href="#mdb41773daf" y="143.254422"/>
      </g>
     </g>
     <g id="text_10">
      <!-- 0 -->
      <g transform="translate(40.6375 147.053641)scale(0.1 -0.1)">
       <use xlink:href="#DejaVuSans-48"/>
      </g>
     </g>
    </g>
    <g id="ytick_5">
     <g id="line2d_11">
      <g>
       <use style="stroke:#000000;stroke-width:0.8;" x="54" xlink:href="#mdb41773daf" y="112.367239"/>
      </g>
     </g>
     <g id="text_11">
      <!-- 1 -->
      <g transform="translate(40.6375 116.166458)scale(0.1 -0.1)">
       <use xlink:href="#DejaVuSans-49"/>
      </g>
     </g>
    </g>
    <g id="ytick_6">
     <g id="line2d_12">
      <g>
       <use style="stroke:#000000;stroke-width:0.8;" x="54" xlink:href="#mdb41773daf" y="81.480057"/>
      </g>
     </g>
     <g id="text_12">
      <!-- 2 -->
      <g transform="translate(40.6375 85.279276)scale(0.1 -0.1)">
       <use xlink:href="#DejaVuSans-50"/>
      </g>
     </g>
    </g>
    <g id="ytick_7">
     <g id="line2d_13">
      <g>
       <use style="stroke:#000000;stroke-width:0.8;" x="54" xlink:href="#mdb41773daf" y="50.592875"/>
      </g>
     </g>
     <g id="text_13">
      <!-- 3 -->
      <g transform="translate(40.6375 54.392093)scale(0.1 -0.1)">
       <use xlink:href="#DejaVuSans-51"/>
      </g>
     </g>
    </g>
   </g>
   <g id="line2d_14">
    <path clip-path="url(#p9bc91b174d)" d="M 69.218182 50.592875 
L 69.826909 58.590338 
L 70.435636 69.974765 
L 71.348727 92.373525 
L 72.566182 128.924992 
L 74.696727 194.646972 
L 75.609818 216.939937 
L 76.218545 228.234559 
L 76.827273 236.13054 
L 77.131636 238.699592 
L 77.436 240.311871 
L 77.740364 240.951189 
L 78.044727 240.611112 
L 78.349091 239.295027 
L 78.653455 237.016102 
L 79.262182 229.670444 
L 79.870909 218.867778 
L 80.784 197.160411 
L 82.001455 161.101841 
L 84.436364 86.652509 
L 85.349455 65.60204 
L 85.958182 55.341634 
L 86.566909 48.597227 
L 86.871273 46.633711 
L 87.175636 45.63877 
L 87.48 45.6224 
L 87.784364 46.584791 
L 88.088727 48.516319 
L 88.697455 55.199907 
L 89.306182 65.406009 
L 90.219273 86.392608 
L 91.436727 121.909996 
L 93.871636 196.936663 
L 94.784727 218.722001 
L 95.393455 229.586 
L 96.002182 236.997279 
L 96.306545 239.309694 
L 96.610909 240.659214 
L 96.915273 241.032284 
L 97.219636 240.42514 
L 97.524 238.843845 
L 98.132727 232.831719 
L 98.741455 223.236201 
L 99.654545 202.998809 
L 100.872 168.070209 
L 103.611273 84.453738 
L 104.524364 63.949344 
L 105.133091 54.138925 
L 105.741818 47.892635 
L 106.046182 46.190056 
L 106.350545 45.460505 
L 106.654909 45.711319 
L 106.959273 46.94001 
L 107.263636 49.134283 
L 107.872364 56.322223 
L 108.481091 66.98781 
L 109.394182 88.539974 
L 110.611636 124.505787 
L 113.046545 199.189942 
L 113.959636 220.450611 
L 114.568364 230.875209 
L 115.177091 237.795496 
L 115.481455 239.849147 
L 115.785818 240.934486 
L 116.090182 241.040611 
L 116.394545 240.166431 
L 116.698909 238.320687 
L 117.307636 231.797976 
L 117.916364 221.733197 
L 118.829455 200.909823 
L 120.046909 165.497819 
L 122.481818 90.260596 
L 123.394909 68.271312 
L 124.003636 57.245908 
L 124.612364 49.660294 
L 124.916727 47.258028 
L 125.221091 45.818066 
L 125.525455 45.354867 
L 125.829818 45.8731 
L 126.134182 47.367594 
L 126.438545 49.82339 
L 127.047273 57.511118 
L 127.656 68.628963 
L 128.569091 90.731515 
L 129.786545 127.119648 
L 131.917091 193.233869 
L 132.830182 215.923121 
L 133.438909 227.535149 
L 134.047636 235.776528 
L 134.656364 240.317435 
L 134.960727 241.13737 
L 135.265091 240.976048 
L 135.569455 239.835064 
L 135.873818 237.725829 
L 136.482545 230.696592 
L 137.091273 220.169316 
L 138.004364 198.77456 
L 139.221818 162.904791 
L 141.656727 87.991636 
L 142.569818 66.522087 
L 143.178545 55.933802 
L 143.787273 48.837812 
L 144.091636 46.693989 
L 144.396 45.518131 
L 144.700364 45.32205 
L 145.004727 46.107736 
L 145.309091 47.867338 
L 145.917818 54.228236 
L 146.526545 64.150499 
L 147.439636 84.808487 
L 148.657091 120.111837 
L 151.396364 203.58034 
L 152.309455 223.742015 
L 152.918182 233.262737 
L 153.526909 239.183604 
L 153.831273 240.714099 
L 154.135636 241.267598 
L 154.44 240.83853 
L 154.744364 239.43117 
L 155.048727 237.059604 
L 155.657455 229.528281 
L 156.266182 218.545627 
L 157.179273 196.59454 
L 158.396727 160.293027 
L 160.831636 85.760299 
L 161.744727 64.827312 
L 162.353455 54.684727 
L 162.962182 48.084423 
L 163.266545 46.201049 
L 163.570909 45.290588 
L 163.875273 45.362192 
L 164.179636 46.415168 
L 164.484 48.438983 
L 165.092727 55.308545 
L 165.701455 65.696286 
L 166.614545 86.931437 
L 167.832 122.701873 
L 170.266909 197.838173 
L 171.18 219.51526 
L 171.788727 230.266715 
L 172.397455 237.538216 
L 172.701818 239.77224 
L 173.006182 241.038728 
L 173.310545 241.324961 
L 173.614909 240.628044 
L 173.919273 238.954938 
L 174.528 232.756776 
L 175.136727 222.97821 
L 176.049818 202.487761 
L 177.267273 167.296335 
L 180.006545 83.568308 
L 180.919636 63.188335 
L 181.528364 53.499714 
L 182.137091 47.400798 
L 182.441455 45.779688 
L 182.745818 45.135722 
L 183.050182 45.475379 
L 183.354545 46.79528 
L 183.658909 49.082217 
L 184.267636 56.456123 
L 184.876364 67.30233 
L 185.789455 89.099723 
L 187.006909 125.311314 
L 189.441818 200.085565 
L 190.354909 221.230933 
L 190.963636 231.538896 
L 191.572364 238.315994 
L 191.876727 240.289847 
L 192.181091 241.290969 
L 192.485455 241.3093 
L 192.789818 240.344631 
L 193.094182 238.406608 
L 193.702909 231.697684 
L 194.311636 221.450693 
L 195.224727 200.377335 
L 196.442182 164.709518 
L 198.877091 89.355962 
L 199.790182 67.472698 
L 200.398909 56.558608 
L 201.007636 49.111804 
L 201.312 46.787557 
L 201.616364 45.430333 
L 201.920727 45.053761 
L 202.225091 45.661641 
L 202.529455 47.247905 
L 203.138182 53.282418 
L 203.746909 62.916114 
L 204.66 83.236881 
L 205.877455 118.313117 
L 208.616727 202.294131 
L 209.529818 222.891177 
L 210.138545 232.747263 
L 210.747273 239.024128 
L 211.051636 240.735928 
L 211.356 241.470518 
L 211.660364 241.220511 
L 211.964727 239.988387 
L 212.269091 237.786475 
L 212.877818 230.570985 
L 213.486545 219.862472 
L 214.399636 198.220996 
L 215.617091 162.102629 
L 218.052 87.092668 
L 218.965091 65.736225 
L 219.573818 55.263376 
L 220.182545 48.309645 
L 220.486909 46.245269 
L 220.791273 45.153358 
L 221.095636 45.044883 
L 221.4 45.920955 
L 221.704364 47.772818 
L 222.313091 54.320154 
L 222.921818 64.425188 
L 223.834909 85.334574 
L 225.052364 120.896485 
L 227.487273 196.461377 
L 228.400364 218.549435 
L 229.009091 229.625612 
L 229.617818 237.247495 
L 229.922182 239.661979 
L 230.226545 241.110036 
L 230.530909 241.577128 
L 230.835273 241.058546 
L 231.139636 239.559465 
L 231.444 237.094888 
L 232.052727 229.377413 
L 232.661455 218.214633 
L 233.574545 196.020278 
L 234.792 159.477579 
L 236.922545 93.075241 
L 237.835636 70.284345 
L 238.444364 58.619087 
L 239.053091 50.33866 
L 239.661818 45.774448 
L 239.966182 44.949083 
L 240.270545 45.109208 
L 240.574909 46.253243 
L 240.879273 48.369743 
L 241.488 55.425828 
L 242.096727 65.99541 
L 243.009818 87.478755 
L 244.227273 123.500595 
L 246.662182 198.740416 
L 247.575273 220.30661 
L 248.184 230.943839 
L 248.792727 238.074024 
L 249.097091 240.22896 
L 249.401455 241.411781 
L 249.705818 241.610603 
L 250.010182 240.82341 
L 250.314545 239.058068 
L 250.923273 232.67326 
L 251.532 222.711378 
L 252.445091 201.968135 
L 253.662545 166.515414 
L 256.401818 82.682708 
L 257.314909 62.429783 
L 257.923636 52.864605 
L 258.532364 46.914541 
L 258.836727 45.37556 
L 259.141091 44.817775 
L 259.445455 45.246805 
L 259.749818 46.658371 
L 260.054182 49.038348 
L 260.662909 56.598723 
L 261.271636 67.625705 
L 262.184727 89.667897 
L 263.402182 126.123535 
L 265.837091 200.981682 
L 266.750182 222.009109 
L 267.358909 232.198769 
L 267.967636 238.831164 
L 268.272 240.724538 
L 268.576364 241.640822 
L 268.880727 241.570804 
L 269.185091 240.515163 
L 269.489455 238.484457 
L 270.098182 231.588754 
L 270.706909 221.159333 
L 271.62 199.836325 
L 272.837455 163.914314 
L 275.272364 88.450512 
L 276.185455 66.675917 
L 276.794182 55.874828 
L 277.402909 48.568383 
L 277.707273 46.322857 
L 278.011636 45.049014 
L 278.316 44.759648 
L 278.620364 45.457686 
L 278.924727 47.136152 
L 279.533455 53.357506 
L 280.142182 63.175048 
L 281.055273 83.749988 
L 282.272727 119.090235 
L 285.012 203.183442 
L 285.925091 223.655578 
L 286.533818 233.389366 
L 287.142545 239.518243 
L 287.446909 241.148231 
L 287.751273 241.796874 
L 288.055636 241.457645 
L 288.36 240.13392 
L 288.664364 237.838945 
L 289.273091 230.436684 
L 289.881818 219.546762 
L 290.794909 197.658971 
L 292.012364 161.293711 
L 294.447273 86.193126 
L 295.360364 64.952432 
L 295.969091 54.596694 
L 296.577818 47.786748 
L 296.882182 45.802505 
L 297.186545 44.795168 
L 297.490909 44.77486 
L 297.795273 45.741809 
L 298.099636 47.686346 
L 298.708364 54.420701 
L 299.317091 64.708741 
L 300.230182 85.869216 
L 301.447636 121.688097 
L 303.882545 197.369964 
L 304.795636 219.351593 
L 305.404364 230.316005 
L 306.013091 237.798501 
L 306.317455 240.134638 
L 306.621818 241.499609 
L 306.926182 241.879706 
L 307.230545 241.271094 
L 307.534909 239.67985 
L 307.839273 237.121901 
L 308.448 229.217801 
L 309.056727 217.87477 
L 309.969818 195.437626 
L 311.187273 158.655529 
L 313.317818 92.15881 
L 314.230909 69.464874 
L 314.839636 57.905882 
L 315.448364 49.760255 
L 316.057091 45.353986 
L 316.361455 44.614326 
L 316.665818 44.863515 
L 316.970182 46.099079 
L 317.274545 48.308656 
L 317.883273 55.551799 
L 318.492 66.30341 
L 319.405091 88.034567 
L 320.622545 124.306132 
L 323.057455 199.643317 
L 323.970545 221.095965 
L 324.579273 231.617288 
L 325.188 238.604621 
L 325.492364 240.679777 
L 325.796727 241.778296 
L 326.101091 241.889141 
L 326.405455 241.011175 
L 326.709818 239.153176 
L 327.318545 232.581124 
L 327.927273 222.435675 
L 328.840364 201.439922 
L 330.057818 165.727471 
L 332.492727 89.833486 
L 333.405818 67.646212 
L 334.014545 56.519029 
L 334.623273 48.860706 
L 334.927636 46.433944 
L 335.232 44.977748 
L 335.536364 44.506738 
L 335.840727 45.025663 
L 336.145091 46.529343 
L 336.449455 49.002731 
L 337.058182 56.750065 
L 337.666909 67.957961 
L 338.58 90.244499 
L 339.797455 126.94242 
L 341.928 193.634128 
L 342.841091 216.52712 
L 343.449818 228.245851 
L 344.058545 236.565511 
L 344.667273 241.153143 
L 344.971636 241.983971 
L 345.276 241.825055 
L 345.580364 240.677966 
L 345.884727 238.554176 
L 346.493455 231.471143 
L 347.102182 220.859087 
L 348.015273 199.286787 
L 349.232727 163.112233 
L 351.667636 87.544323 
L 352.580727 65.881052 
L 353.189455 55.194654 
L 353.798182 48.030112 
L 354.102545 45.864006 
L 354.406909 44.674184 
L 354.711273 44.4726 
L 355.015636 45.261298 
L 355.32 47.032397 
L 355.928727 53.441204 
L 356.537455 63.44286 
L 357.450545 84.27171 
L 358.668 119.874433 
L 361.407273 204.072927 
L 362.320364 224.417514 
L 362.929091 234.027353 
L 363.537818 240.006755 
L 363.842182 241.554268 
L 364.146545 242.116364 
L 364.450909 241.687382 
L 364.755273 240.2716 
L 365.059636 237.883184 
L 365.668364 230.293646 
L 366.277091 219.222159 
L 367.190182 197.088484 
L 368.407636 160.478069 
L 370.842545 85.293086 
L 371.755636 64.170793 
L 372.364364 53.933842 
L 372.973091 47.269201 
L 373.277455 45.365776 
L 373.581818 44.443636 
L 373.581818 44.443636 
" style="fill:none;stroke:#1f77b4;stroke-linecap:square;stroke-width:1.5;"/>
   </g>
   <g id="patch_3">
    <path d="M 54 252 
L 54 34.56 
" style="fill:none;stroke:#000000;stroke-linecap:square;stroke-linejoin:miter;stroke-width:0.8;"/>
   </g>
   <g id="patch_4">
    <path d="M 388.8 252 
L 388.8 34.56 
" style="fill:none;stroke:#000000;stroke-linecap:square;stroke-linejoin:miter;stroke-width:0.8;"/>
   </g>
   <g id="patch_5">
    <path d="M 54 252 
L 388.8 252 
" style="fill:none;stroke:#000000;stroke-linecap:square;stroke-linejoin:miter;stroke-width:0.8;"/>
   </g>
   <g id="patch_6">
    <path d="M 54 34.56 
L 388.8 34.56 
" style="fill:none;stroke:#000000;stroke-linecap:square;stroke-linejoin:miter;stroke-width:0.8;"/>
   </g>
   <g id="text_14">
    <!-- x2-PE(CE)^1-zad3 -->
    <g transform="translate(166.332188 28.56)scale(0.12 -0.12)">
     <defs>
      <path d="M 54.890625 54.6875 
L 35.109375 28.078125 
L 55.90625 0 
L 45.3125 0 
L 29.390625 21.484375 
L 13.484375 0 
L 2.875 0 
L 24.125 28.609375 
L 4.6875 54.6875 
L 15.28125 54.6875 
L 29.78125 35.203125 
L 44.28125 54.6875 
z
" id="DejaVuSans-120"/>
      <path d="M 4.890625 31.390625 
L 31.203125 31.390625 
L 31.203125 23.390625 
L 4.890625 23.390625 
z
" id="DejaVuSans-45"/>
      <path d="M 19.671875 64.796875 
L 19.671875 37.40625 
L 32.078125 37.40625 
Q 38.96875 37.40625 42.71875 40.96875 
Q 46.484375 44.53125 46.484375 51.125 
Q 46.484375 57.671875 42.71875 61.234375 
Q 38.96875 64.796875 32.078125 64.796875 
z
M 9.8125 72.90625 
L 32.078125 72.90625 
Q 44.34375 72.90625 50.609375 67.359375 
Q 56.890625 61.8125 56.890625 51.125 
Q 56.890625 40.328125 50.609375 34.8125 
Q 44.34375 29.296875 32.078125 29.296875 
L 19.671875 29.296875 
L 19.671875 0 
L 9.8125 0 
z
" id="DejaVuSans-80"/>
      <path d="M 9.8125 72.90625 
L 55.90625 72.90625 
L 55.90625 64.59375 
L 19.671875 64.59375 
L 19.671875 43.015625 
L 54.390625 43.015625 
L 54.390625 34.71875 
L 19.671875 34.71875 
L 19.671875 8.296875 
L 56.78125 8.296875 
L 56.78125 0 
L 9.8125 0 
z
" id="DejaVuSans-69"/>
      <path d="M 31 75.875 
Q 24.46875 64.65625 21.28125 53.65625 
Q 18.109375 42.671875 18.109375 31.390625 
Q 18.109375 20.125 21.3125 9.0625 
Q 24.515625 -2 31 -13.1875 
L 23.1875 -13.1875 
Q 15.875 -1.703125 12.234375 9.375 
Q 8.59375 20.453125 8.59375 31.390625 
Q 8.59375 42.28125 12.203125 53.3125 
Q 15.828125 64.359375 23.1875 75.875 
z
" id="DejaVuSans-40"/>
      <path d="M 64.40625 67.28125 
L 64.40625 56.890625 
Q 59.421875 61.53125 53.78125 63.8125 
Q 48.140625 66.109375 41.796875 66.109375 
Q 29.296875 66.109375 22.65625 58.46875 
Q 16.015625 50.828125 16.015625 36.375 
Q 16.015625 21.96875 22.65625 14.328125 
Q 29.296875 6.6875 41.796875 6.6875 
Q 48.140625 6.6875 53.78125 8.984375 
Q 59.421875 11.28125 64.40625 15.921875 
L 64.40625 5.609375 
Q 59.234375 2.09375 53.4375 0.328125 
Q 47.65625 -1.421875 41.21875 -1.421875 
Q 24.65625 -1.421875 15.125 8.703125 
Q 5.609375 18.84375 5.609375 36.375 
Q 5.609375 53.953125 15.125 64.078125 
Q 24.65625 74.21875 41.21875 74.21875 
Q 47.75 74.21875 53.53125 72.484375 
Q 59.328125 70.75 64.40625 67.28125 
z
" id="DejaVuSans-67"/>
      <path d="M 8.015625 75.875 
L 15.828125 75.875 
Q 23.140625 64.359375 26.78125 53.3125 
Q 30.421875 42.28125 30.421875 31.390625 
Q 30.421875 20.453125 26.78125 9.375 
Q 23.140625 -1.703125 15.828125 -13.1875 
L 8.015625 -13.1875 
Q 14.5 -2 17.703125 9.0625 
Q 20.90625 20.125 20.90625 31.390625 
Q 20.90625 42.671875 17.703125 53.65625 
Q 14.5 64.65625 8.015625 75.875 
z
" id="DejaVuSans-41"/>
      <path d="M 46.6875 72.90625 
L 73.1875 45.703125 
L 63.375 45.703125 
L 41.890625 64.984375 
L 20.40625 45.703125 
L 10.59375 45.703125 
L 37.109375 72.90625 
z
" id="DejaVuSans-94"/>
      <path d="M 5.515625 54.6875 
L 48.1875 54.6875 
L 48.1875 46.484375 
L 14.40625 7.171875 
L 48.1875 7.171875 
L 48.1875 0 
L 4.296875 0 
L 4.296875 8.203125 
L 38.09375 47.515625 
L 5.515625 47.515625 
z
" id="DejaVuSans-122"/>
      <path d="M 34.28125 27.484375 
Q 23.390625 27.484375 19.1875 25 
Q 14.984375 22.515625 14.984375 16.5 
Q 14.984375 11.71875 18.140625 8.90625 
Q 21.296875 6.109375 26.703125 6.109375 
Q 34.1875 6.109375 38.703125 11.40625 
Q 43.21875 16.703125 43.21875 25.484375 
L 43.21875 27.484375 
z
M 52.203125 31.203125 
L 52.203125 0 
L 43.21875 0 
L 43.21875 8.296875 
Q 40.140625 3.328125 35.546875 0.953125 
Q 30.953125 -1.421875 24.3125 -1.421875 
Q 15.921875 -1.421875 10.953125 3.296875 
Q 6 8.015625 6 15.921875 
Q 6 25.140625 12.171875 29.828125 
Q 18.359375 34.515625 30.609375 34.515625 
L 43.21875 34.515625 
L 43.21875 35.40625 
Q 43.21875 41.609375 39.140625 45 
Q 35.0625 48.390625 27.6875 48.390625 
Q 23 48.390625 18.546875 47.265625 
Q 14.109375 46.140625 10.015625 43.890625 
L 10.015625 52.203125 
Q 14.9375 54.109375 19.578125 55.046875 
Q 24.21875 56 28.609375 56 
Q 40.484375 56 46.34375 49.84375 
Q 52.203125 43.703125 52.203125 31.203125 
z
" id="DejaVuSans-97"/>
      <path d="M 45.40625 46.390625 
L 45.40625 75.984375 
L 54.390625 75.984375 
L 54.390625 0 
L 45.40625 0 
L 45.40625 8.203125 
Q 42.578125 3.328125 38.25 0.953125 
Q 33.9375 -1.421875 27.875 -1.421875 
Q 17.96875 -1.421875 11.734375 6.484375 
Q 5.515625 14.40625 5.515625 27.296875 
Q 5.515625 40.1875 11.734375 48.09375 
Q 17.96875 56 27.875 56 
Q 33.9375 56 38.25 53.625 
Q 42.578125 51.265625 45.40625 46.390625 
z
M 14.796875 27.296875 
Q 14.796875 17.390625 18.875 11.75 
Q 22.953125 6.109375 30.078125 6.109375 
Q 37.203125 6.109375 41.296875 11.75 
Q 45.40625 17.390625 45.40625 27.296875 
Q 45.40625 37.203125 41.296875 42.84375 
Q 37.203125 48.484375 30.078125 48.484375 
Q 22.953125 48.484375 18.875 42.84375 
Q 14.796875 37.203125 14.796875 27.296875 
z
" id="DejaVuSans-100"/>
     </defs>
     <use xlink:href="#DejaVuSans-120"/>
     <use x="59.179688" xlink:href="#DejaVuSans-50"/>
     <use x="122.802734" xlink:href="#DejaVuSans-45"/>
     <use x="158.886719" xlink:href="#DejaVuSans-80"/>
     <use x="219.189453" xlink:href="#DejaVuSans-69"/>
     <use x="282.373047" xlink:href="#DejaVuSans-40"/>
     <use x="321.386719" xlink:href="#DejaVuSans-67"/>
     <use x="391.210938" xlink:href="#DejaVuSans-69"/>
     <use x="454.394531" xlink:href="#DejaVuSans-41"/>
     <use x="493.408203" xlink:href="#DejaVuSans-94"/>
     <use x="577.197266" xlink:href="#DejaVuSans-49"/>
     <use x="640.820312" xlink:href="#DejaVuSans-45"/>
     <use x="676.904297" xlink:href="#DejaVuSans-122"/>
     <use x="729.394531" xlink:href="#DejaVuSans-97"/>
     <use x="790.673828" xlink:href="#DejaVuSans-100"/>
     <use x="854.150391" xlink:href="#DejaVuSans-51"/>
    </g>
   </g>
   <g id="legend_1">
    <g id="patch_7">
     <path d="M 337.51875 152.119062 
L 381.8 152.119062 
Q 383.8 152.119062 383.8 150.119062 
L 383.8 136.440937 
Q 383.8 134.440937 381.8 134.440937 
L 337.51875 134.440937 
Q 335.51875 134.440937 335.51875 136.440937 
L 335.51875 150.119062 
Q 335.51875 152.119062 337.51875 152.119062 
z
" style="fill:#ffffff;opacity:0.8;stroke:#cccccc;stroke-linejoin:miter;"/>
    </g>
    <g id="line2d_15">
     <path d="M 339.51875 142.539375 
L 359.51875 142.539375 
" style="fill:none;stroke:#1f77b4;stroke-linecap:square;stroke-width:1.5;"/>
    </g>
    <g id="line2d_16"/>
    <g id="text_15">
     <!-- x2 -->
     <g transform="translate(367.51875 146.039375)scale(0.1 -0.1)">
      <use xlink:href="#DejaVuSans-120"/>
      <use x="59.179688" xlink:href="#DejaVuSans-50"/>
     </g>
    </g>
   </g>
  </g>
 </g>
 <defs>
  <clipPath id="p9bc91b174d">
   <rect height="217.44" width="334.8" x="54" y="34.56"/>
  </clipPath>
 </defs>
</svg>
