<?xml version="1.0" encoding="utf-8" standalone="no"?>
<!DOCTYPE svg PUBLIC "-//W3C//DTD SVG 1.1//EN"
  "http://www.w3.org/Graphics/SVG/1.1/DTD/svg11.dtd">
<!-- Created with matplotlib (https://matplotlib.org/) -->
<svg height="288pt" version="1.1" viewBox="0 0 432 288" width="432pt" xmlns="http://www.w3.org/2000/svg" xmlns:xlink="http://www.w3.org/1999/xlink">
 <metadata>
  <rdf:RDF xmlns:cc="http://creativecommons.org/ns#" xmlns:dc="http://purl.org/dc/elements/1.1/" xmlns:rdf="http://www.w3.org/1999/02/22-rdf-syntax-ns#">
   <cc:Work>
    <dc:type rdf:resource="http://purl.org/dc/dcmitype/StillImage"/>
    <dc:date>2021-01-08T19:31:15.699187</dc:date>
    <dc:format>image/svg+xml</dc:format>
    <dc:creator>
     <cc:Agent>
      <dc:title>Matplotlib v3.3.2, https://matplotlib.org/</dc:title>
     </cc:Agent>
    </dc:creator>
   </cc:Work>
  </rdf:RDF>
 </metadata>
 <defs>
  <style type="text/css">*{stroke-linecap:butt;stroke-linejoin:round;}</style>
 </defs>
 <g id="figure_1">
  <g id="patch_1">
   <path d="M 0 288 
L 432 288 
L 432 0 
L 0 0 
z
" style="fill:none;"/>
  </g>
  <g id="axes_1">
   <g id="patch_2">
    <path d="M 54 252 
L 388.8 252 
L 388.8 34.56 
L 54 34.56 
z
" style="fill:#ffffff;"/>
   </g>
   <g id="matplotlib.axis_1">
    <g id="xtick_1">
     <g id="line2d_1">
      <defs>
       <path d="M 0 0 
L 0 3.5 
" id="m8c687cc672" style="stroke:#000000;stroke-width:0.8;"/>
      </defs>
      <g>
       <use style="stroke:#000000;stroke-width:0.8;" x="69.218182" xlink:href="#m8c687cc672" y="252"/>
      </g>
     </g>
     <g id="text_1">
      <!-- 0 -->
      <g transform="translate(66.036932 266.598437)scale(0.1 -0.1)">
       <defs>
        <path d="M 31.78125 66.40625 
Q 24.171875 66.40625 20.328125 58.90625 
Q 16.5 51.421875 16.5 36.375 
Q 16.5 21.390625 20.328125 13.890625 
Q 24.171875 6.390625 31.78125 6.390625 
Q 39.453125 6.390625 43.28125 13.890625 
Q 47.125 21.390625 47.125 36.375 
Q 47.125 51.421875 43.28125 58.90625 
Q 39.453125 66.40625 31.78125 66.40625 
z
M 31.78125 74.21875 
Q 44.046875 74.21875 50.515625 64.515625 
Q 56.984375 54.828125 56.984375 36.375 
Q 56.984375 17.96875 50.515625 8.265625 
Q 44.046875 -1.421875 31.78125 -1.421875 
Q 19.53125 -1.421875 13.0625 8.265625 
Q 6.59375 17.96875 6.59375 36.375 
Q 6.59375 54.828125 13.0625 64.515625 
Q 19.53125 74.21875 31.78125 74.21875 
z
" id="DejaVuSans-48"/>
       </defs>
       <use xlink:href="#DejaVuSans-48"/>
      </g>
     </g>
    </g>
    <g id="xtick_2">
     <g id="line2d_2">
      <g>
       <use style="stroke:#000000;stroke-width:0.8;" x="130.090909" xlink:href="#m8c687cc672" y="252"/>
      </g>
     </g>
     <g id="text_2">
      <!-- 2 -->
      <g transform="translate(126.909659 266.598437)scale(0.1 -0.1)">
       <defs>
        <path d="M 19.1875 8.296875 
L 53.609375 8.296875 
L 53.609375 0 
L 7.328125 0 
L 7.328125 8.296875 
Q 12.9375 14.109375 22.625 23.890625 
Q 32.328125 33.6875 34.8125 36.53125 
Q 39.546875 41.84375 41.421875 45.53125 
Q 43.3125 49.21875 43.3125 52.78125 
Q 43.3125 58.59375 39.234375 62.25 
Q 35.15625 65.921875 28.609375 65.921875 
Q 23.96875 65.921875 18.8125 64.3125 
Q 13.671875 62.703125 7.8125 59.421875 
L 7.8125 69.390625 
Q 13.765625 71.78125 18.9375 73 
Q 24.125 74.21875 28.421875 74.21875 
Q 39.75 74.21875 46.484375 68.546875 
Q 53.21875 62.890625 53.21875 53.421875 
Q 53.21875 48.921875 51.53125 44.890625 
Q 49.859375 40.875 45.40625 35.40625 
Q 44.1875 33.984375 37.640625 27.21875 
Q 31.109375 20.453125 19.1875 8.296875 
z
" id="DejaVuSans-50"/>
       </defs>
       <use xlink:href="#DejaVuSans-50"/>
      </g>
     </g>
    </g>
    <g id="xtick_3">
     <g id="line2d_3">
      <g>
       <use style="stroke:#000000;stroke-width:0.8;" x="190.963636" xlink:href="#m8c687cc672" y="252"/>
      </g>
     </g>
     <g id="text_3">
      <!-- 4 -->
      <g transform="translate(187.782386 266.598437)scale(0.1 -0.1)">
       <defs>
        <path d="M 37.796875 64.3125 
L 12.890625 25.390625 
L 37.796875 25.390625 
z
M 35.203125 72.90625 
L 47.609375 72.90625 
L 47.609375 25.390625 
L 58.015625 25.390625 
L 58.015625 17.1875 
L 47.609375 17.1875 
L 47.609375 0 
L 37.796875 0 
L 37.796875 17.1875 
L 4.890625 17.1875 
L 4.890625 26.703125 
z
" id="DejaVuSans-52"/>
       </defs>
       <use xlink:href="#DejaVuSans-52"/>
      </g>
     </g>
    </g>
    <g id="xtick_4">
     <g id="line2d_4">
      <g>
       <use style="stroke:#000000;stroke-width:0.8;" x="251.836364" xlink:href="#m8c687cc672" y="252"/>
      </g>
     </g>
     <g id="text_4">
      <!-- 6 -->
      <g transform="translate(248.655114 266.598437)scale(0.1 -0.1)">
       <defs>
        <path d="M 33.015625 40.375 
Q 26.375 40.375 22.484375 35.828125 
Q 18.609375 31.296875 18.609375 23.390625 
Q 18.609375 15.53125 22.484375 10.953125 
Q 26.375 6.390625 33.015625 6.390625 
Q 39.65625 6.390625 43.53125 10.953125 
Q 47.40625 15.53125 47.40625 23.390625 
Q 47.40625 31.296875 43.53125 35.828125 
Q 39.65625 40.375 33.015625 40.375 
z
M 52.59375 71.296875 
L 52.59375 62.3125 
Q 48.875 64.0625 45.09375 64.984375 
Q 41.3125 65.921875 37.59375 65.921875 
Q 27.828125 65.921875 22.671875 59.328125 
Q 17.53125 52.734375 16.796875 39.40625 
Q 19.671875 43.65625 24.015625 45.921875 
Q 28.375 48.1875 33.59375 48.1875 
Q 44.578125 48.1875 50.953125 41.515625 
Q 57.328125 34.859375 57.328125 23.390625 
Q 57.328125 12.15625 50.6875 5.359375 
Q 44.046875 -1.421875 33.015625 -1.421875 
Q 20.359375 -1.421875 13.671875 8.265625 
Q 6.984375 17.96875 6.984375 36.375 
Q 6.984375 53.65625 15.1875 63.9375 
Q 23.390625 74.21875 37.203125 74.21875 
Q 40.921875 74.21875 44.703125 73.484375 
Q 48.484375 72.75 52.59375 71.296875 
z
" id="DejaVuSans-54"/>
       </defs>
       <use xlink:href="#DejaVuSans-54"/>
      </g>
     </g>
    </g>
    <g id="xtick_5">
     <g id="line2d_5">
      <g>
       <use style="stroke:#000000;stroke-width:0.8;" x="312.709091" xlink:href="#m8c687cc672" y="252"/>
      </g>
     </g>
     <g id="text_5">
      <!-- 8 -->
      <g transform="translate(309.527841 266.598437)scale(0.1 -0.1)">
       <defs>
        <path d="M 31.78125 34.625 
Q 24.75 34.625 20.71875 30.859375 
Q 16.703125 27.09375 16.703125 20.515625 
Q 16.703125 13.921875 20.71875 10.15625 
Q 24.75 6.390625 31.78125 6.390625 
Q 38.8125 6.390625 42.859375 10.171875 
Q 46.921875 13.96875 46.921875 20.515625 
Q 46.921875 27.09375 42.890625 30.859375 
Q 38.875 34.625 31.78125 34.625 
z
M 21.921875 38.8125 
Q 15.578125 40.375 12.03125 44.71875 
Q 8.5 49.078125 8.5 55.328125 
Q 8.5 64.0625 14.71875 69.140625 
Q 20.953125 74.21875 31.78125 74.21875 
Q 42.671875 74.21875 48.875 69.140625 
Q 55.078125 64.0625 55.078125 55.328125 
Q 55.078125 49.078125 51.53125 44.71875 
Q 48 40.375 41.703125 38.8125 
Q 48.828125 37.15625 52.796875 32.3125 
Q 56.78125 27.484375 56.78125 20.515625 
Q 56.78125 9.90625 50.3125 4.234375 
Q 43.84375 -1.421875 31.78125 -1.421875 
Q 19.734375 -1.421875 13.25 4.234375 
Q 6.78125 9.90625 6.78125 20.515625 
Q 6.78125 27.484375 10.78125 32.3125 
Q 14.796875 37.15625 21.921875 38.8125 
z
M 18.3125 54.390625 
Q 18.3125 48.734375 21.84375 45.5625 
Q 25.390625 42.390625 31.78125 42.390625 
Q 38.140625 42.390625 41.71875 45.5625 
Q 45.3125 48.734375 45.3125 54.390625 
Q 45.3125 60.0625 41.71875 63.234375 
Q 38.140625 66.40625 31.78125 66.40625 
Q 25.390625 66.40625 21.84375 63.234375 
Q 18.3125 60.0625 18.3125 54.390625 
z
" id="DejaVuSans-56"/>
       </defs>
       <use xlink:href="#DejaVuSans-56"/>
      </g>
     </g>
    </g>
    <g id="xtick_6">
     <g id="line2d_6">
      <g>
       <use style="stroke:#000000;stroke-width:0.8;" x="373.581818" xlink:href="#m8c687cc672" y="252"/>
      </g>
     </g>
     <g id="text_6">
      <!-- 10 -->
      <g transform="translate(367.219318 266.598437)scale(0.1 -0.1)">
       <defs>
        <path d="M 12.40625 8.296875 
L 28.515625 8.296875 
L 28.515625 63.921875 
L 10.984375 60.40625 
L 10.984375 69.390625 
L 28.421875 72.90625 
L 38.28125 72.90625 
L 38.28125 8.296875 
L 54.390625 8.296875 
L 54.390625 0 
L 12.40625 0 
z
" id="DejaVuSans-49"/>
       </defs>
       <use xlink:href="#DejaVuSans-49"/>
       <use x="63.623047" xlink:href="#DejaVuSans-48"/>
      </g>
     </g>
    </g>
   </g>
   <g id="matplotlib.axis_2">
    <g id="ytick_1">
     <g id="line2d_7">
      <defs>
       <path d="M 0 0 
L -3.5 0 
" id="mf44621c659" style="stroke:#000000;stroke-width:0.8;"/>
      </defs>
      <g>
       <use style="stroke:#000000;stroke-width:0.8;" x="54" xlink:href="#mf44621c659" y="235.924027"/>
      </g>
     </g>
     <g id="text_7">
      <!-- −3 -->
      <g transform="translate(32.257812 239.723245)scale(0.1 -0.1)">
       <defs>
        <path d="M 10.59375 35.5 
L 73.1875 35.5 
L 73.1875 27.203125 
L 10.59375 27.203125 
z
" id="DejaVuSans-8722"/>
        <path d="M 40.578125 39.3125 
Q 47.65625 37.796875 51.625 33 
Q 55.609375 28.21875 55.609375 21.1875 
Q 55.609375 10.40625 48.1875 4.484375 
Q 40.765625 -1.421875 27.09375 -1.421875 
Q 22.515625 -1.421875 17.65625 -0.515625 
Q 12.796875 0.390625 7.625 2.203125 
L 7.625 11.71875 
Q 11.71875 9.328125 16.59375 8.109375 
Q 21.484375 6.890625 26.8125 6.890625 
Q 36.078125 6.890625 40.9375 10.546875 
Q 45.796875 14.203125 45.796875 21.1875 
Q 45.796875 27.640625 41.28125 31.265625 
Q 36.765625 34.90625 28.71875 34.90625 
L 20.21875 34.90625 
L 20.21875 43.015625 
L 29.109375 43.015625 
Q 36.375 43.015625 40.234375 45.921875 
Q 44.09375 48.828125 44.09375 54.296875 
Q 44.09375 59.90625 40.109375 62.90625 
Q 36.140625 65.921875 28.71875 65.921875 
Q 24.65625 65.921875 20.015625 65.03125 
Q 15.375 64.15625 9.8125 62.3125 
L 9.8125 71.09375 
Q 15.4375 72.65625 20.34375 73.4375 
Q 25.25 74.21875 29.59375 74.21875 
Q 40.828125 74.21875 47.359375 69.109375 
Q 53.90625 64.015625 53.90625 55.328125 
Q 53.90625 49.265625 50.4375 45.09375 
Q 46.96875 40.921875 40.578125 39.3125 
z
" id="DejaVuSans-51"/>
       </defs>
       <use xlink:href="#DejaVuSans-8722"/>
       <use x="83.789062" xlink:href="#DejaVuSans-51"/>
      </g>
     </g>
    </g>
    <g id="ytick_2">
     <g id="line2d_8">
      <g>
       <use style="stroke:#000000;stroke-width:0.8;" x="54" xlink:href="#mf44621c659" y="205.029156"/>
      </g>
     </g>
     <g id="text_8">
      <!-- −2 -->
      <g transform="translate(32.257812 208.828375)scale(0.1 -0.1)">
       <use xlink:href="#DejaVuSans-8722"/>
       <use x="83.789062" xlink:href="#DejaVuSans-50"/>
      </g>
     </g>
    </g>
    <g id="ytick_3">
     <g id="line2d_9">
      <g>
       <use style="stroke:#000000;stroke-width:0.8;" x="54" xlink:href="#mf44621c659" y="174.134286"/>
      </g>
     </g>
     <g id="text_9">
      <!-- −1 -->
      <g transform="translate(32.257812 177.933505)scale(0.1 -0.1)">
       <use xlink:href="#DejaVuSans-8722"/>
       <use x="83.789062" xlink:href="#DejaVuSans-49"/>
      </g>
     </g>
    </g>
    <g id="ytick_4">
     <g id="line2d_10">
      <g>
       <use style="stroke:#000000;stroke-width:0.8;" x="54" xlink:href="#mf44621c659" y="143.239416"/>
      </g>
     </g>
     <g id="text_10">
      <!-- 0 -->
      <g transform="translate(40.6375 147.038635)scale(0.1 -0.1)">
       <use xlink:href="#DejaVuSans-48"/>
      </g>
     </g>
    </g>
    <g id="ytick_5">
     <g id="line2d_11">
      <g>
       <use style="stroke:#000000;stroke-width:0.8;" x="54" xlink:href="#mf44621c659" y="112.344546"/>
      </g>
     </g>
     <g id="text_11">
      <!-- 1 -->
      <g transform="translate(40.6375 116.143765)scale(0.1 -0.1)">
       <use xlink:href="#DejaVuSans-49"/>
      </g>
     </g>
    </g>
    <g id="ytick_6">
     <g id="line2d_12">
      <g>
       <use style="stroke:#000000;stroke-width:0.8;" x="54" xlink:href="#mf44621c659" y="81.449676"/>
      </g>
     </g>
     <g id="text_12">
      <!-- 2 -->
      <g transform="translate(40.6375 85.248895)scale(0.1 -0.1)">
       <use xlink:href="#DejaVuSans-50"/>
      </g>
     </g>
    </g>
    <g id="ytick_7">
     <g id="line2d_13">
      <g>
       <use style="stroke:#000000;stroke-width:0.8;" x="54" xlink:href="#mf44621c659" y="50.554806"/>
      </g>
     </g>
     <g id="text_13">
      <!-- 3 -->
      <g transform="translate(40.6375 54.354025)scale(0.1 -0.1)">
       <use xlink:href="#DejaVuSans-51"/>
      </g>
     </g>
    </g>
   </g>
   <g id="line2d_14">
    <path clip-path="url(#pff80d7ae3a)" d="M 69.218182 112.344546 
L 70.435636 78.638309 
L 71.348727 59.834105 
L 71.957455 51.372307 
L 72.566182 46.584771 
L 72.870545 45.634745 
L 73.174909 45.663181 
L 73.479273 46.669821 
L 73.783636 48.644595 
L 74.392364 55.409951 
L 75.001091 65.688823 
L 75.914182 86.761465 
L 77.131636 122.339171 
L 79.566545 197.276995 
L 80.479636 218.965239 
L 81.088364 229.751013 
L 81.697091 237.076863 
L 82.001455 239.344923 
L 82.305818 240.649581 
L 82.610182 240.977736 
L 82.914545 240.326071 
L 83.218909 238.701097 
L 83.827636 232.605878 
L 84.436364 222.935695 
L 85.349455 202.608523 
L 86.566909 167.613494 
L 89.306182 84.101447 
L 90.219273 63.699907 
L 90.828 53.970392 
L 91.436727 47.811151 
L 91.741091 46.153318 
L 92.045455 45.468732 
L 92.349818 45.764281 
L 92.654182 47.037024 
L 92.958545 49.274229 
L 93.567273 56.54296 
L 94.176 67.279914 
L 95.089091 88.915338 
L 96.306545 124.936905 
L 98.741455 199.522934 
L 99.654545 220.683932 
L 100.263273 231.02907 
L 100.872 237.863139 
L 101.176364 239.872217 
L 101.480727 240.912601 
L 101.785091 240.973837 
L 102.089455 240.055288 
L 102.393818 238.166136 
L 103.002545 231.561226 
L 103.611273 221.423113 
L 104.524364 200.512652 
L 105.741818 165.03872 
L 108.176727 89.887336 
L 109.089818 67.994404 
L 109.698545 57.046909 
L 110.307273 49.546568 
L 110.611636 47.188642 
L 110.916 45.793565 
L 111.220364 45.375349 
L 111.524727 45.938209 
L 111.829091 47.476528 
L 112.133455 49.974909 
L 112.742182 57.742391 
L 113.350909 68.930142 
L 114.264 91.113107 
L 115.481455 127.552379 
L 117.612 193.586907 
L 118.525091 216.183257 
L 119.133818 227.719031 
L 119.742545 235.876197 
L 120.351273 240.3283 
L 120.655636 241.103217 
L 120.96 240.897069 
L 121.264364 239.711899 
L 121.568727 237.559562 
L 122.177455 230.449081 
L 122.786182 219.849858 
L 123.699273 198.370779 
L 124.916727 162.443637 
L 127.351636 87.625634 
L 128.264727 66.255042 
L 128.873455 55.745921 
L 129.482182 48.736015 
L 129.786545 46.63676 
L 130.090909 45.505894 
L 130.395273 45.354779 
L 130.699636 46.184953 
L 131.004 47.988119 
L 131.612727 54.431643 
L 132.221455 64.4278 
L 133.134545 85.173913 
L 134.352 120.540799 
L 137.091273 203.897843 
L 138.004364 223.954907 
L 138.613091 233.393872 
L 139.221818 239.227132 
L 139.526182 240.712719 
L 139.830545 241.221174 
L 140.134909 240.747374 
L 140.439273 239.296045 
L 140.743636 236.881713 
L 141.352364 229.270166 
L 141.961091 218.217008 
L 142.874182 196.184427 
L 144.091636 159.830145 
L 146.526545 85.401829 
L 147.439636 64.570332 
L 148.048364 54.508111 
L 148.657091 47.994639 
L 148.961455 46.156028 
L 149.265818 45.290633 
L 149.570182 45.407152 
L 149.874545 46.504442 
L 150.178909 48.571529 
L 150.787636 55.522779 
L 151.396364 65.983043 
L 152.309455 87.303575 
L 153.526909 123.133005 
L 155.961818 198.17714 
L 156.874909 219.755996 
L 157.483636 230.428588 
L 158.092364 237.614147 
L 158.396727 239.803612 
L 158.701091 241.025075 
L 159.005455 241.266268 
L 159.309818 240.524748 
L 159.614182 238.807924 
L 160.222909 232.526716 
L 160.831636 222.673702 
L 161.744727 202.094094 
L 162.962182 166.837525 
L 165.701455 83.217637 
L 166.614545 62.941616 
L 167.223273 53.334501 
L 167.832 47.323102 
L 168.136364 45.746917 
L 168.440727 45.148055 
L 168.745091 45.532544 
L 169.049455 46.896554 
L 169.353818 49.226435 
L 169.962545 56.68103 
L 170.571273 67.598334 
L 171.484364 89.478296 
L 172.701818 125.744286 
L 175.136727 200.417081 
L 176.049818 221.461657 
L 176.658545 231.689536 
L 177.267273 238.379922 
L 177.571636 240.309009 
L 177.876 241.265022 
L 178.180364 241.238352 
L 178.484727 240.229242 
L 178.789091 238.247784 
L 179.397818 231.456731 
L 180.006545 221.136646 
L 180.919636 199.976853 
L 182.137091 164.248426 
L 184.572 88.984031 
L 185.485091 67.198262 
L 186.093818 56.362726 
L 186.702545 49.001715 
L 187.006909 46.722015 
L 187.311273 45.409844 
L 187.615636 45.078383 
L 187.92 45.730977 
L 188.224364 47.36111 
L 188.833091 53.479083 
L 189.441818 63.187776 
L 190.354909 83.59873 
L 191.572364 118.741714 
L 194.311636 202.617926 
L 195.224727 223.111689 
L 195.833455 232.88653 
L 196.442182 239.075974 
L 196.746545 240.742835 
L 197.050909 241.432266 
L 197.355273 241.137331 
L 197.659636 239.860962 
L 197.964 237.615929 
L 198.572727 230.319291 
L 199.181455 219.539093 
L 200.094545 197.813976 
L 201.312 161.639582 
L 203.746909 86.728107 
L 204.66 65.471747 
L 205.268727 55.078693 
L 205.877455 48.211548 
L 206.181818 46.191936 
L 206.486182 45.145175 
L 206.790545 45.081782 
L 207.094909 46.002418 
L 207.399273 47.897878 
L 208.008 54.527776 
L 208.616727 64.706471 
L 209.529818 85.70334 
L 210.747273 121.327479 
L 213.182182 196.806227 
L 214.095273 218.797534 
L 214.704 229.795474 
L 215.312727 237.331722 
L 215.617091 239.701675 
L 215.921455 241.104654 
L 216.225818 241.526568 
L 216.530182 240.963165 
L 216.834545 239.420067 
L 217.138909 236.912719 
L 217.747636 229.115138 
L 218.356364 217.882139 
L 219.269455 195.607002 
L 220.486909 159.01291 
L 222.617455 92.69055 
L 223.530545 69.992941 
L 224.139273 58.404257 
L 224.748 50.2084 
L 225.356727 45.733374 
L 225.661091 44.95322 
L 225.965455 45.158366 
L 226.269818 46.34678 
L 226.574182 48.506571 
L 227.182909 55.644258 
L 227.791636 66.286108 
L 228.704727 87.854161 
L 229.922182 123.933655 
L 232.357091 199.077978 
L 233.270182 220.544806 
L 233.878909 231.102536 
L 234.487636 238.14627 
L 234.792 240.256447 
L 235.096364 241.394081 
L 235.400727 241.547744 
L 235.705091 240.715869 
L 236.009455 238.906772 
L 236.618182 232.438973 
L 237.226909 222.402869 
L 238.14 201.5711 
L 239.357455 166.054535 
L 242.096727 82.333698 
L 243.009818 62.18582 
L 243.618545 52.702745 
L 244.227273 46.840663 
L 244.531636 45.346783 
L 244.836 44.834238 
L 245.140364 45.308193 
L 245.444727 46.76392 
L 245.749091 49.18685 
L 246.357818 56.827805 
L 246.966545 67.925605 
L 247.879636 90.049665 
L 249.097091 126.558333 
L 251.532 201.311681 
L 252.445091 222.237198 
L 253.053818 232.346154 
L 253.662545 238.891346 
L 253.966909 240.739765 
L 254.271273 241.610788 
L 254.575636 241.495661 
L 254.88 240.395511 
L 255.184364 238.321345 
L 255.793091 231.343593 
L 256.401818 220.841325 
L 257.314909 199.432546 
L 258.532364 163.451254 
L 260.967273 88.07995 
L 261.880364 66.403993 
L 262.489091 55.682099 
L 263.097818 48.461963 
L 263.402182 46.261187 
L 263.706545 45.032563 
L 264.010909 44.788432 
L 264.315273 45.531266 
L 264.619636 47.253643 
L 265.228364 53.558409 
L 265.837091 63.450729 
L 266.750182 84.115233 
L 267.967636 119.520938 
L 270.706909 203.505611 
L 271.62 223.873362 
L 272.228727 233.5253 
L 272.837455 239.566286 
L 273.141818 241.151155 
L 273.446182 241.754498 
L 273.750545 241.370243 
L 274.054909 240.002217 
L 274.359273 237.664109 
L 274.968 230.180802 
L 275.576727 219.219466 
L 276.489818 197.248728 
L 277.707273 160.828802 
L 280.142182 85.830045 
L 281.055273 64.690562 
L 281.664 54.415246 
L 282.272727 47.692382 
L 282.577091 45.753098 
L 282.881455 44.791064 
L 283.185818 44.815952 
L 283.490182 45.827536 
L 283.794545 47.815698 
L 284.403273 54.632543 
L 285.012 64.994004 
L 285.925091 86.241307 
L 287.142545 122.121094 
L 289.577455 197.71348 
L 290.490545 219.59721 
L 291.099273 230.482737 
L 291.708 237.879075 
L 292.012364 240.170475 
L 292.316727 241.490197 
L 292.621091 241.824989 
L 292.925455 241.171468 
L 293.229818 239.536163 
L 293.838545 233.395352 
L 294.447273 223.647997 
L 295.360364 203.152917 
L 296.577818 167.861355 
L 299.317091 83.619395 
L 300.230182 63.032991 
L 300.838909 53.212616 
L 301.447636 46.992822 
L 301.752 45.316886 
L 302.056364 44.622581 
L 302.360727 44.916893 
L 302.665091 46.196895 
L 302.969455 48.44978 
L 303.578182 55.77443 
L 304.186909 66.598046 
L 305.1 88.413227 
L 306.317455 124.741094 
L 308.752364 199.979433 
L 309.665455 221.331582 
L 310.274182 231.772773 
L 310.882909 238.673152 
L 311.187273 240.703351 
L 311.491636 241.756526 
L 311.796 241.822092 
L 312.100364 240.899369 
L 312.404727 238.997582 
L 313.013455 232.342604 
L 313.622182 222.123166 
L 314.535273 201.039533 
L 315.752727 165.264552 
L 318.187636 89.457017 
L 319.100727 67.366894 
L 319.709455 56.318277 
L 320.318182 48.745954 
L 320.622545 46.363914 
L 320.926909 44.95299 
L 321.231273 44.527354 
L 321.535636 45.091294 
L 321.84 46.639184 
L 322.144364 49.15553 
L 322.753091 56.983325 
L 323.361818 68.261754 
L 324.274909 90.629444 
L 325.492364 127.379014 
L 327.622909 193.990455 
L 328.536 216.789777 
L 329.144727 228.431612 
L 329.753455 236.666341 
L 330.362182 241.164406 
L 330.666545 241.949827 
L 330.970909 241.745695 
L 331.275273 240.554033 
L 331.579636 238.386763 
L 332.188364 231.221768 
L 332.797091 220.537121 
L 333.710182 198.879726 
L 334.927636 162.647236 
L 337.362545 87.175172 
L 338.275636 65.611678 
L 338.884364 55.005114 
L 339.493091 47.927392 
L 339.797455 45.806237 
L 340.101818 44.661797 
L 340.406182 44.505568 
L 340.710545 45.339143 
L 341.014909 47.154189 
L 341.623636 53.646351 
L 342.232364 63.72256 
L 343.145455 84.640338 
L 344.362909 120.307213 
L 347.102182 204.393428 
L 348.015273 224.63253 
L 348.624 234.159919 
L 349.232727 240.050964 
L 349.537091 241.553181 
L 349.841455 242.069841 
L 350.145818 241.595739 
L 350.450182 240.135602 
L 350.754545 237.704045 
L 351.363273 230.033572 
L 351.972 218.890949 
L 352.885091 196.675033 
L 354.102545 160.011325 
L 356.537455 84.931528 
L 357.450545 63.91157 
L 358.059273 53.755662 
L 358.668 47.178597 
L 358.972364 45.320321 
L 359.276727 44.443636 
L 359.581091 44.557358 
L 359.885455 45.66037 
L 360.189818 47.741639 
L 360.798545 54.745991 
L 361.407273 65.290431 
L 362.320364 86.787821 
L 363.537818 122.921617 
L 365.972727 198.621513 
L 366.885818 220.395007 
L 367.494545 231.166428 
L 368.103273 238.421308 
L 368.407636 240.633451 
L 368.712 241.869274 
L 369.016364 242.116364 
L 369.320727 241.372218 
L 369.625091 239.644273 
L 370.233818 233.315864 
L 370.842545 223.384081 
L 371.755636 202.634333 
L 372.973091 167.078864 
L 373.581818 147.496858 
L 373.581818 147.496858 
" style="fill:none;stroke:#1f77b4;stroke-linecap:square;stroke-width:1.5;"/>
   </g>
   <g id="patch_3">
    <path d="M 54 252 
L 54 34.56 
" style="fill:none;stroke:#000000;stroke-linecap:square;stroke-linejoin:miter;stroke-width:0.8;"/>
   </g>
   <g id="patch_4">
    <path d="M 388.8 252 
L 388.8 34.56 
" style="fill:none;stroke:#000000;stroke-linecap:square;stroke-linejoin:miter;stroke-width:0.8;"/>
   </g>
   <g id="patch_5">
    <path d="M 54 252 
L 388.8 252 
" style="fill:none;stroke:#000000;stroke-linecap:square;stroke-linejoin:miter;stroke-width:0.8;"/>
   </g>
   <g id="patch_6">
    <path d="M 54 34.56 
L 388.8 34.56 
" style="fill:none;stroke:#000000;stroke-linecap:square;stroke-linejoin:miter;stroke-width:0.8;"/>
   </g>
   <g id="text_14">
    <!-- x1-PE(CE)^1-zad3 -->
    <g transform="translate(166.332188 28.56)scale(0.12 -0.12)">
     <defs>
      <path d="M 54.890625 54.6875 
L 35.109375 28.078125 
L 55.90625 0 
L 45.3125 0 
L 29.390625 21.484375 
L 13.484375 0 
L 2.875 0 
L 24.125 28.609375 
L 4.6875 54.6875 
L 15.28125 54.6875 
L 29.78125 35.203125 
L 44.28125 54.6875 
z
" id="DejaVuSans-120"/>
      <path d="M 4.890625 31.390625 
L 31.203125 31.390625 
L 31.203125 23.390625 
L 4.890625 23.390625 
z
" id="DejaVuSans-45"/>
      <path d="M 19.671875 64.796875 
L 19.671875 37.40625 
L 32.078125 37.40625 
Q 38.96875 37.40625 42.71875 40.96875 
Q 46.484375 44.53125 46.484375 51.125 
Q 46.484375 57.671875 42.71875 61.234375 
Q 38.96875 64.796875 32.078125 64.796875 
z
M 9.8125 72.90625 
L 32.078125 72.90625 
Q 44.34375 72.90625 50.609375 67.359375 
Q 56.890625 61.8125 56.890625 51.125 
Q 56.890625 40.328125 50.609375 34.8125 
Q 44.34375 29.296875 32.078125 29.296875 
L 19.671875 29.296875 
L 19.671875 0 
L 9.8125 0 
z
" id="DejaVuSans-80"/>
      <path d="M 9.8125 72.90625 
L 55.90625 72.90625 
L 55.90625 64.59375 
L 19.671875 64.59375 
L 19.671875 43.015625 
L 54.390625 43.015625 
L 54.390625 34.71875 
L 19.671875 34.71875 
L 19.671875 8.296875 
L 56.78125 8.296875 
L 56.78125 0 
L 9.8125 0 
z
" id="DejaVuSans-69"/>
      <path d="M 31 75.875 
Q 24.46875 64.65625 21.28125 53.65625 
Q 18.109375 42.671875 18.109375 31.390625 
Q 18.109375 20.125 21.3125 9.0625 
Q 24.515625 -2 31 -13.1875 
L 23.1875 -13.1875 
Q 15.875 -1.703125 12.234375 9.375 
Q 8.59375 20.453125 8.59375 31.390625 
Q 8.59375 42.28125 12.203125 53.3125 
Q 15.828125 64.359375 23.1875 75.875 
z
" id="DejaVuSans-40"/>
      <path d="M 64.40625 67.28125 
L 64.40625 56.890625 
Q 59.421875 61.53125 53.78125 63.8125 
Q 48.140625 66.109375 41.796875 66.109375 
Q 29.296875 66.109375 22.65625 58.46875 
Q 16.015625 50.828125 16.015625 36.375 
Q 16.015625 21.96875 22.65625 14.328125 
Q 29.296875 6.6875 41.796875 6.6875 
Q 48.140625 6.6875 53.78125 8.984375 
Q 59.421875 11.28125 64.40625 15.921875 
L 64.40625 5.609375 
Q 59.234375 2.09375 53.4375 0.328125 
Q 47.65625 -1.421875 41.21875 -1.421875 
Q 24.65625 -1.421875 15.125 8.703125 
Q 5.609375 18.84375 5.609375 36.375 
Q 5.609375 53.953125 15.125 64.078125 
Q 24.65625 74.21875 41.21875 74.21875 
Q 47.75 74.21875 53.53125 72.484375 
Q 59.328125 70.75 64.40625 67.28125 
z
" id="DejaVuSans-67"/>
      <path d="M 8.015625 75.875 
L 15.828125 75.875 
Q 23.140625 64.359375 26.78125 53.3125 
Q 30.421875 42.28125 30.421875 31.390625 
Q 30.421875 20.453125 26.78125 9.375 
Q 23.140625 -1.703125 15.828125 -13.1875 
L 8.015625 -13.1875 
Q 14.5 -2 17.703125 9.0625 
Q 20.90625 20.125 20.90625 31.390625 
Q 20.90625 42.671875 17.703125 53.65625 
Q 14.5 64.65625 8.015625 75.875 
z
" id="DejaVuSans-41"/>
      <path d="M 46.6875 72.90625 
L 73.1875 45.703125 
L 63.375 45.703125 
L 41.890625 64.984375 
L 20.40625 45.703125 
L 10.59375 45.703125 
L 37.109375 72.90625 
z
" id="DejaVuSans-94"/>
      <path d="M 5.515625 54.6875 
L 48.1875 54.6875 
L 48.1875 46.484375 
L 14.40625 7.171875 
L 48.1875 7.171875 
L 48.1875 0 
L 4.296875 0 
L 4.296875 8.203125 
L 38.09375 47.515625 
L 5.515625 47.515625 
z
" id="DejaVuSans-122"/>
      <path d="M 34.28125 27.484375 
Q 23.390625 27.484375 19.1875 25 
Q 14.984375 22.515625 14.984375 16.5 
Q 14.984375 11.71875 18.140625 8.90625 
Q 21.296875 6.109375 26.703125 6.109375 
Q 34.1875 6.109375 38.703125 11.40625 
Q 43.21875 16.703125 43.21875 25.484375 
L 43.21875 27.484375 
z
M 52.203125 31.203125 
L 52.203125 0 
L 43.21875 0 
L 43.21875 8.296875 
Q 40.140625 3.328125 35.546875 0.953125 
Q 30.953125 -1.421875 24.3125 -1.421875 
Q 15.921875 -1.421875 10.953125 3.296875 
Q 6 8.015625 6 15.921875 
Q 6 25.140625 12.171875 29.828125 
Q 18.359375 34.515625 30.609375 34.515625 
L 43.21875 34.515625 
L 43.21875 35.40625 
Q 43.21875 41.609375 39.140625 45 
Q 35.0625 48.390625 27.6875 48.390625 
Q 23 48.390625 18.546875 47.265625 
Q 14.109375 46.140625 10.015625 43.890625 
L 10.015625 52.203125 
Q 14.9375 54.109375 19.578125 55.046875 
Q 24.21875 56 28.609375 56 
Q 40.484375 56 46.34375 49.84375 
Q 52.203125 43.703125 52.203125 31.203125 
z
" id="DejaVuSans-97"/>
      <path d="M 45.40625 46.390625 
L 45.40625 75.984375 
L 54.390625 75.984375 
L 54.390625 0 
L 45.40625 0 
L 45.40625 8.203125 
Q 42.578125 3.328125 38.25 0.953125 
Q 33.9375 -1.421875 27.875 -1.421875 
Q 17.96875 -1.421875 11.734375 6.484375 
Q 5.515625 14.40625 5.515625 27.296875 
Q 5.515625 40.1875 11.734375 48.09375 
Q 17.96875 56 27.875 56 
Q 33.9375 56 38.25 53.625 
Q 42.578125 51.265625 45.40625 46.390625 
z
M 14.796875 27.296875 
Q 14.796875 17.390625 18.875 11.75 
Q 22.953125 6.109375 30.078125 6.109375 
Q 37.203125 6.109375 41.296875 11.75 
Q 45.40625 17.390625 45.40625 27.296875 
Q 45.40625 37.203125 41.296875 42.84375 
Q 37.203125 48.484375 30.078125 48.484375 
Q 22.953125 48.484375 18.875 42.84375 
Q 14.796875 37.203125 14.796875 27.296875 
z
" id="DejaVuSans-100"/>
     </defs>
     <use xlink:href="#DejaVuSans-120"/>
     <use x="59.179688" xlink:href="#DejaVuSans-49"/>
     <use x="122.802734" xlink:href="#DejaVuSans-45"/>
     <use x="158.886719" xlink:href="#DejaVuSans-80"/>
     <use x="219.189453" xlink:href="#DejaVuSans-69"/>
     <use x="282.373047" xlink:href="#DejaVuSans-40"/>
     <use x="321.386719" xlink:href="#DejaVuSans-67"/>
     <use x="391.210938" xlink:href="#DejaVuSans-69"/>
     <use x="454.394531" xlink:href="#DejaVuSans-41"/>
     <use x="493.408203" xlink:href="#DejaVuSans-94"/>
     <use x="577.197266" xlink:href="#DejaVuSans-49"/>
     <use x="640.820312" xlink:href="#DejaVuSans-45"/>
     <use x="676.904297" xlink:href="#DejaVuSans-122"/>
     <use x="729.394531" xlink:href="#DejaVuSans-97"/>
     <use x="790.673828" xlink:href="#DejaVuSans-100"/>
     <use x="854.150391" xlink:href="#DejaVuSans-51"/>
    </g>
   </g>
   <g id="legend_1">
    <g id="patch_7">
     <path d="M 337.51875 152.119062 
L 381.8 152.119062 
Q 383.8 152.119062 383.8 150.119062 
L 383.8 136.440937 
Q 383.8 134.440937 381.8 134.440937 
L 337.51875 134.440937 
Q 335.51875 134.440937 335.51875 136.440937 
L 335.51875 150.119062 
Q 335.51875 152.119062 337.51875 152.119062 
z
" style="fill:#ffffff;opacity:0.8;stroke:#cccccc;stroke-linejoin:miter;"/>
    </g>
    <g id="line2d_15">
     <path d="M 339.51875 142.539375 
L 359.51875 142.539375 
" style="fill:none;stroke:#1f77b4;stroke-linecap:square;stroke-width:1.5;"/>
    </g>
    <g id="line2d_16"/>
    <g id="text_15">
     <!-- x1 -->
     <g transform="translate(367.51875 146.039375)scale(0.1 -0.1)">
      <use xlink:href="#DejaVuSans-120"/>
      <use x="59.179688" xlink:href="#DejaVuSans-49"/>
     </g>
    </g>
   </g>
  </g>
 </g>
 <defs>
  <clipPath id="pff80d7ae3a">
   <rect height="217.44" width="334.8" x="54" y="34.56"/>
  </clipPath>
 </defs>
</svg>
