<?xml version="1.0" encoding="utf-8" standalone="no"?>
<!DOCTYPE svg PUBLIC "-//W3C//DTD SVG 1.1//EN"
  "http://www.w3.org/Graphics/SVG/1.1/DTD/svg11.dtd">
<!-- Created with matplotlib (https://matplotlib.org/) -->
<svg height="288pt" version="1.1" viewBox="0 0 432 288" width="432pt" xmlns="http://www.w3.org/2000/svg" xmlns:xlink="http://www.w3.org/1999/xlink">
 <metadata>
  <rdf:RDF xmlns:cc="http://creativecommons.org/ns#" xmlns:dc="http://purl.org/dc/elements/1.1/" xmlns:rdf="http://www.w3.org/1999/02/22-rdf-syntax-ns#">
   <cc:Work>
    <dc:type rdf:resource="http://purl.org/dc/dcmitype/StillImage"/>
    <dc:date>2021-01-08T19:31:16.335638</dc:date>
    <dc:format>image/svg+xml</dc:format>
    <dc:creator>
     <cc:Agent>
      <dc:title>Matplotlib v3.3.2, https://matplotlib.org/</dc:title>
     </cc:Agent>
    </dc:creator>
   </cc:Work>
  </rdf:RDF>
 </metadata>
 <defs>
  <style type="text/css">*{stroke-linecap:butt;stroke-linejoin:round;}</style>
 </defs>
 <g id="figure_1">
  <g id="patch_1">
   <path d="M 0 288 
L 432 288 
L 432 0 
L 0 0 
z
" style="fill:none;"/>
  </g>
  <g id="axes_1">
   <g id="patch_2">
    <path d="M 54 252 
L 388.8 252 
L 388.8 34.56 
L 54 34.56 
z
" style="fill:#ffffff;"/>
   </g>
   <g id="matplotlib.axis_1">
    <g id="xtick_1">
     <g id="line2d_1">
      <defs>
       <path d="M 0 0 
L 0 3.5 
" id="m349c4bfbd6" style="stroke:#000000;stroke-width:0.8;"/>
      </defs>
      <g>
       <use style="stroke:#000000;stroke-width:0.8;" x="69.218182" xlink:href="#m349c4bfbd6" y="252"/>
      </g>
     </g>
     <g id="text_1">
      <!-- 0 -->
      <g transform="translate(66.036932 266.598437)scale(0.1 -0.1)">
       <defs>
        <path d="M 31.78125 66.40625 
Q 24.171875 66.40625 20.328125 58.90625 
Q 16.5 51.421875 16.5 36.375 
Q 16.5 21.390625 20.328125 13.890625 
Q 24.171875 6.390625 31.78125 6.390625 
Q 39.453125 6.390625 43.28125 13.890625 
Q 47.125 21.390625 47.125 36.375 
Q 47.125 51.421875 43.28125 58.90625 
Q 39.453125 66.40625 31.78125 66.40625 
z
M 31.78125 74.21875 
Q 44.046875 74.21875 50.515625 64.515625 
Q 56.984375 54.828125 56.984375 36.375 
Q 56.984375 17.96875 50.515625 8.265625 
Q 44.046875 -1.421875 31.78125 -1.421875 
Q 19.53125 -1.421875 13.0625 8.265625 
Q 6.59375 17.96875 6.59375 36.375 
Q 6.59375 54.828125 13.0625 64.515625 
Q 19.53125 74.21875 31.78125 74.21875 
z
" id="DejaVuSans-48"/>
       </defs>
       <use xlink:href="#DejaVuSans-48"/>
      </g>
     </g>
    </g>
    <g id="xtick_2">
     <g id="line2d_2">
      <g>
       <use style="stroke:#000000;stroke-width:0.8;" x="130.090909" xlink:href="#m349c4bfbd6" y="252"/>
      </g>
     </g>
     <g id="text_2">
      <!-- 2 -->
      <g transform="translate(126.909659 266.598437)scale(0.1 -0.1)">
       <defs>
        <path d="M 19.1875 8.296875 
L 53.609375 8.296875 
L 53.609375 0 
L 7.328125 0 
L 7.328125 8.296875 
Q 12.9375 14.109375 22.625 23.890625 
Q 32.328125 33.6875 34.8125 36.53125 
Q 39.546875 41.84375 41.421875 45.53125 
Q 43.3125 49.21875 43.3125 52.78125 
Q 43.3125 58.59375 39.234375 62.25 
Q 35.15625 65.921875 28.609375 65.921875 
Q 23.96875 65.921875 18.8125 64.3125 
Q 13.671875 62.703125 7.8125 59.421875 
L 7.8125 69.390625 
Q 13.765625 71.78125 18.9375 73 
Q 24.125 74.21875 28.421875 74.21875 
Q 39.75 74.21875 46.484375 68.546875 
Q 53.21875 62.890625 53.21875 53.421875 
Q 53.21875 48.921875 51.53125 44.890625 
Q 49.859375 40.875 45.40625 35.40625 
Q 44.1875 33.984375 37.640625 27.21875 
Q 31.109375 20.453125 19.1875 8.296875 
z
" id="DejaVuSans-50"/>
       </defs>
       <use xlink:href="#DejaVuSans-50"/>
      </g>
     </g>
    </g>
    <g id="xtick_3">
     <g id="line2d_3">
      <g>
       <use style="stroke:#000000;stroke-width:0.8;" x="190.963636" xlink:href="#m349c4bfbd6" y="252"/>
      </g>
     </g>
     <g id="text_3">
      <!-- 4 -->
      <g transform="translate(187.782386 266.598437)scale(0.1 -0.1)">
       <defs>
        <path d="M 37.796875 64.3125 
L 12.890625 25.390625 
L 37.796875 25.390625 
z
M 35.203125 72.90625 
L 47.609375 72.90625 
L 47.609375 25.390625 
L 58.015625 25.390625 
L 58.015625 17.1875 
L 47.609375 17.1875 
L 47.609375 0 
L 37.796875 0 
L 37.796875 17.1875 
L 4.890625 17.1875 
L 4.890625 26.703125 
z
" id="DejaVuSans-52"/>
       </defs>
       <use xlink:href="#DejaVuSans-52"/>
      </g>
     </g>
    </g>
    <g id="xtick_4">
     <g id="line2d_4">
      <g>
       <use style="stroke:#000000;stroke-width:0.8;" x="251.836364" xlink:href="#m349c4bfbd6" y="252"/>
      </g>
     </g>
     <g id="text_4">
      <!-- 6 -->
      <g transform="translate(248.655114 266.598437)scale(0.1 -0.1)">
       <defs>
        <path d="M 33.015625 40.375 
Q 26.375 40.375 22.484375 35.828125 
Q 18.609375 31.296875 18.609375 23.390625 
Q 18.609375 15.53125 22.484375 10.953125 
Q 26.375 6.390625 33.015625 6.390625 
Q 39.65625 6.390625 43.53125 10.953125 
Q 47.40625 15.53125 47.40625 23.390625 
Q 47.40625 31.296875 43.53125 35.828125 
Q 39.65625 40.375 33.015625 40.375 
z
M 52.59375 71.296875 
L 52.59375 62.3125 
Q 48.875 64.0625 45.09375 64.984375 
Q 41.3125 65.921875 37.59375 65.921875 
Q 27.828125 65.921875 22.671875 59.328125 
Q 17.53125 52.734375 16.796875 39.40625 
Q 19.671875 43.65625 24.015625 45.921875 
Q 28.375 48.1875 33.59375 48.1875 
Q 44.578125 48.1875 50.953125 41.515625 
Q 57.328125 34.859375 57.328125 23.390625 
Q 57.328125 12.15625 50.6875 5.359375 
Q 44.046875 -1.421875 33.015625 -1.421875 
Q 20.359375 -1.421875 13.671875 8.265625 
Q 6.984375 17.96875 6.984375 36.375 
Q 6.984375 53.65625 15.1875 63.9375 
Q 23.390625 74.21875 37.203125 74.21875 
Q 40.921875 74.21875 44.703125 73.484375 
Q 48.484375 72.75 52.59375 71.296875 
z
" id="DejaVuSans-54"/>
       </defs>
       <use xlink:href="#DejaVuSans-54"/>
      </g>
     </g>
    </g>
    <g id="xtick_5">
     <g id="line2d_5">
      <g>
       <use style="stroke:#000000;stroke-width:0.8;" x="312.709091" xlink:href="#m349c4bfbd6" y="252"/>
      </g>
     </g>
     <g id="text_5">
      <!-- 8 -->
      <g transform="translate(309.527841 266.598437)scale(0.1 -0.1)">
       <defs>
        <path d="M 31.78125 34.625 
Q 24.75 34.625 20.71875 30.859375 
Q 16.703125 27.09375 16.703125 20.515625 
Q 16.703125 13.921875 20.71875 10.15625 
Q 24.75 6.390625 31.78125 6.390625 
Q 38.8125 6.390625 42.859375 10.171875 
Q 46.921875 13.96875 46.921875 20.515625 
Q 46.921875 27.09375 42.890625 30.859375 
Q 38.875 34.625 31.78125 34.625 
z
M 21.921875 38.8125 
Q 15.578125 40.375 12.03125 44.71875 
Q 8.5 49.078125 8.5 55.328125 
Q 8.5 64.0625 14.71875 69.140625 
Q 20.953125 74.21875 31.78125 74.21875 
Q 42.671875 74.21875 48.875 69.140625 
Q 55.078125 64.0625 55.078125 55.328125 
Q 55.078125 49.078125 51.53125 44.71875 
Q 48 40.375 41.703125 38.8125 
Q 48.828125 37.15625 52.796875 32.3125 
Q 56.78125 27.484375 56.78125 20.515625 
Q 56.78125 9.90625 50.3125 4.234375 
Q 43.84375 -1.421875 31.78125 -1.421875 
Q 19.734375 -1.421875 13.25 4.234375 
Q 6.78125 9.90625 6.78125 20.515625 
Q 6.78125 27.484375 10.78125 32.3125 
Q 14.796875 37.15625 21.921875 38.8125 
z
M 18.3125 54.390625 
Q 18.3125 48.734375 21.84375 45.5625 
Q 25.390625 42.390625 31.78125 42.390625 
Q 38.140625 42.390625 41.71875 45.5625 
Q 45.3125 48.734375 45.3125 54.390625 
Q 45.3125 60.0625 41.71875 63.234375 
Q 38.140625 66.40625 31.78125 66.40625 
Q 25.390625 66.40625 21.84375 63.234375 
Q 18.3125 60.0625 18.3125 54.390625 
z
" id="DejaVuSans-56"/>
       </defs>
       <use xlink:href="#DejaVuSans-56"/>
      </g>
     </g>
    </g>
    <g id="xtick_6">
     <g id="line2d_6">
      <g>
       <use style="stroke:#000000;stroke-width:0.8;" x="373.581818" xlink:href="#m349c4bfbd6" y="252"/>
      </g>
     </g>
     <g id="text_6">
      <!-- 10 -->
      <g transform="translate(367.219318 266.598437)scale(0.1 -0.1)">
       <defs>
        <path d="M 12.40625 8.296875 
L 28.515625 8.296875 
L 28.515625 63.921875 
L 10.984375 60.40625 
L 10.984375 69.390625 
L 28.421875 72.90625 
L 38.28125 72.90625 
L 38.28125 8.296875 
L 54.390625 8.296875 
L 54.390625 0 
L 12.40625 0 
z
" id="DejaVuSans-49"/>
       </defs>
       <use xlink:href="#DejaVuSans-49"/>
       <use x="63.623047" xlink:href="#DejaVuSans-48"/>
      </g>
     </g>
    </g>
   </g>
   <g id="matplotlib.axis_2">
    <g id="ytick_1">
     <g id="line2d_7">
      <defs>
       <path d="M 0 0 
L -3.5 0 
" id="macf210afca" style="stroke:#000000;stroke-width:0.8;"/>
      </defs>
      <g>
       <use style="stroke:#000000;stroke-width:0.8;" x="54" xlink:href="#macf210afca" y="250.990699"/>
      </g>
     </g>
     <g id="text_7">
      <!-- −3 -->
      <g transform="translate(32.257812 254.789918)scale(0.1 -0.1)">
       <defs>
        <path d="M 10.59375 35.5 
L 73.1875 35.5 
L 73.1875 27.203125 
L 10.59375 27.203125 
z
" id="DejaVuSans-8722"/>
        <path d="M 40.578125 39.3125 
Q 47.65625 37.796875 51.625 33 
Q 55.609375 28.21875 55.609375 21.1875 
Q 55.609375 10.40625 48.1875 4.484375 
Q 40.765625 -1.421875 27.09375 -1.421875 
Q 22.515625 -1.421875 17.65625 -0.515625 
Q 12.796875 0.390625 7.625 2.203125 
L 7.625 11.71875 
Q 11.71875 9.328125 16.59375 8.109375 
Q 21.484375 6.890625 26.8125 6.890625 
Q 36.078125 6.890625 40.9375 10.546875 
Q 45.796875 14.203125 45.796875 21.1875 
Q 45.796875 27.640625 41.28125 31.265625 
Q 36.765625 34.90625 28.71875 34.90625 
L 20.21875 34.90625 
L 20.21875 43.015625 
L 29.109375 43.015625 
Q 36.375 43.015625 40.234375 45.921875 
Q 44.09375 48.828125 44.09375 54.296875 
Q 44.09375 59.90625 40.109375 62.90625 
Q 36.140625 65.921875 28.71875 65.921875 
Q 24.65625 65.921875 20.015625 65.03125 
Q 15.375 64.15625 9.8125 62.3125 
L 9.8125 71.09375 
Q 15.4375 72.65625 20.34375 73.4375 
Q 25.25 74.21875 29.59375 74.21875 
Q 40.828125 74.21875 47.359375 69.109375 
Q 53.90625 64.015625 53.90625 55.328125 
Q 53.90625 49.265625 50.4375 45.09375 
Q 46.96875 40.921875 40.578125 39.3125 
z
" id="DejaVuSans-51"/>
       </defs>
       <use xlink:href="#DejaVuSans-8722"/>
       <use x="83.789062" xlink:href="#DejaVuSans-51"/>
      </g>
     </g>
    </g>
    <g id="ytick_2">
     <g id="line2d_8">
      <g>
       <use style="stroke:#000000;stroke-width:0.8;" x="54" xlink:href="#macf210afca" y="216.566189"/>
      </g>
     </g>
     <g id="text_8">
      <!-- −2 -->
      <g transform="translate(32.257812 220.365407)scale(0.1 -0.1)">
       <use xlink:href="#DejaVuSans-8722"/>
       <use x="83.789062" xlink:href="#DejaVuSans-50"/>
      </g>
     </g>
    </g>
    <g id="ytick_3">
     <g id="line2d_9">
      <g>
       <use style="stroke:#000000;stroke-width:0.8;" x="54" xlink:href="#macf210afca" y="182.141678"/>
      </g>
     </g>
     <g id="text_9">
      <!-- −1 -->
      <g transform="translate(32.257812 185.940897)scale(0.1 -0.1)">
       <use xlink:href="#DejaVuSans-8722"/>
       <use x="83.789062" xlink:href="#DejaVuSans-49"/>
      </g>
     </g>
    </g>
    <g id="ytick_4">
     <g id="line2d_10">
      <g>
       <use style="stroke:#000000;stroke-width:0.8;" x="54" xlink:href="#macf210afca" y="147.717168"/>
      </g>
     </g>
     <g id="text_10">
      <!-- 0 -->
      <g transform="translate(40.6375 151.516386)scale(0.1 -0.1)">
       <use xlink:href="#DejaVuSans-48"/>
      </g>
     </g>
    </g>
    <g id="ytick_5">
     <g id="line2d_11">
      <g>
       <use style="stroke:#000000;stroke-width:0.8;" x="54" xlink:href="#macf210afca" y="113.292657"/>
      </g>
     </g>
     <g id="text_11">
      <!-- 1 -->
      <g transform="translate(40.6375 117.091876)scale(0.1 -0.1)">
       <use xlink:href="#DejaVuSans-49"/>
      </g>
     </g>
    </g>
    <g id="ytick_6">
     <g id="line2d_12">
      <g>
       <use style="stroke:#000000;stroke-width:0.8;" x="54" xlink:href="#macf210afca" y="78.868147"/>
      </g>
     </g>
     <g id="text_12">
      <!-- 2 -->
      <g transform="translate(40.6375 82.667366)scale(0.1 -0.1)">
       <use xlink:href="#DejaVuSans-50"/>
      </g>
     </g>
    </g>
    <g id="ytick_7">
     <g id="line2d_13">
      <g>
       <use style="stroke:#000000;stroke-width:0.8;" x="54" xlink:href="#macf210afca" y="44.443636"/>
      </g>
     </g>
     <g id="text_13">
      <!-- 3 -->
      <g transform="translate(40.6375 48.242855)scale(0.1 -0.1)">
       <use xlink:href="#DejaVuSans-51"/>
      </g>
     </g>
    </g>
   </g>
   <g id="line2d_14">
    <path clip-path="url(#p338bec7e60)" d="M 69.218182 44.443636 
L 69.826909 54.258856 
L 70.435636 67.5503 
L 71.348727 92.681226 
L 73.174909 152.469182 
L 74.696727 199.224209 
L 75.609818 220.844338 
L 76.218545 231.418122 
L 76.827273 238.489467 
L 77.131636 240.641022 
L 77.436 241.85081 
L 77.740364 242.116364 
L 78.044727 241.444589 
L 78.349091 239.851603 
L 78.957818 234.010919 
L 79.566545 224.895749 
L 80.479636 206.039924 
L 81.697091 174.200461 
L 84.132 107.530952 
L 85.045091 88.199862 
L 85.653818 78.457065 
L 86.262545 71.632396 
L 86.871273 67.935463 
L 87.175636 67.290686 
L 87.48 67.448723 
L 87.784364 68.399901 
L 88.088727 70.126794 
L 88.697455 75.800814 
L 89.306182 84.187552 
L 90.219273 100.990199 
L 91.436727 128.656049 
L 93.567273 178.69476 
L 94.480364 195.900664 
L 95.089091 204.807943 
L 95.697818 211.292213 
L 96.306545 215.147294 
L 96.610909 216.053773 
L 96.915273 216.274496 
L 97.219636 215.814204 
L 97.524 214.684332 
L 98.132727 210.493913 
L 98.741455 203.920203 
L 99.654545 190.282032 
L 100.872 167.201664 
L 103.306909 118.749039 
L 104.22 104.660841 
L 104.828727 97.544757 
L 105.437455 92.543755 
L 106.046182 89.811899 
L 106.350545 89.319852 
L 106.654909 89.410966 
L 106.959273 90.078449 
L 107.263636 91.309873 
L 107.872364 95.387764 
L 108.481091 101.440565 
L 109.394182 113.598371 
L 110.611636 133.658014 
L 112.742182 170.023858 
L 113.655273 182.558987 
L 114.264 189.061129 
L 114.872727 193.807539 
L 115.481455 196.646937 
L 115.785818 197.325502 
L 116.090182 197.506042 
L 116.394545 197.191799 
L 116.698909 196.390881 
L 117.307636 193.384962 
L 117.916364 188.644432 
L 118.829455 178.780461 
L 120.046909 162.049887 
L 122.481818 126.837127 
L 123.394909 116.570151 
L 124.003636 111.37285 
L 124.612364 107.708543 
L 125.221091 105.690453 
L 125.525455 105.315837 
L 125.829818 105.364819 
L 126.134182 105.832638 
L 126.438545 106.710431 
L 127.047273 109.640812 
L 127.656 114.008932 
L 128.569091 122.80562 
L 129.786545 137.349955 
L 131.917091 163.778542 
L 132.830182 172.910607 
L 133.743273 179.561135 
L 134.352 182.353987 
L 134.656364 183.221781 
L 134.960727 183.72928 
L 135.265091 183.875097 
L 135.569455 183.661443 
L 135.873818 183.094061 
L 136.482545 180.938197 
L 137.091273 177.519872 
L 138.004364 170.385884 
L 139.221818 158.25842 
L 141.656727 132.668111 
L 142.569818 125.186111 
L 143.178545 121.390388 
L 143.787273 118.705744 
L 144.396 117.215373 
L 144.700364 116.93077 
L 145.004727 116.953857 
L 145.309091 117.281298 
L 145.613455 117.906778 
L 146.222182 120.012276 
L 146.830909 123.16443 
L 147.744 129.529005 
L 148.961455 140.074234 
L 151.396364 161.667261 
L 152.309455 167.774157 
L 152.918182 170.790308 
L 153.526909 172.838933 
L 153.831273 173.479716 
L 154.135636 173.858953 
L 154.44 173.97553 
L 154.744364 173.830946 
L 155.048727 173.429269 
L 155.657455 171.883347 
L 156.266182 169.418615 
L 157.179273 164.259232 
L 158.396727 155.468598 
L 160.831636 136.871563 
L 161.744727 131.419247 
L 162.353455 128.647261 
L 162.962182 126.680542 
L 163.570909 125.580212 
L 163.875273 125.364413 
L 164.179636 125.372109 
L 164.484 125.600965 
L 164.788364 126.046483 
L 165.397091 127.559092 
L 166.005818 129.833637 
L 166.918909 134.438385 
L 168.136364 142.08395 
L 170.571273 157.779192 
L 171.484364 162.230921 
L 172.093091 164.434865 
L 172.701818 165.937413 
L 173.310545 166.6936 
L 173.614909 166.786019 
L 173.919273 166.688704 
L 174.223636 166.404535 
L 174.832364 165.296191 
L 175.441091 163.51916 
L 176.354182 159.787966 
L 177.571636 153.416176 
L 180.006545 139.901532 
L 180.919636 135.928405 
L 181.528364 133.904138 
L 182.137091 132.463485 
L 182.745818 131.651345 
L 183.050182 131.48801 
L 183.354545 131.487009 
L 183.658909 131.646713 
L 184.267636 132.433892 
L 184.876364 133.805976 
L 185.485091 135.69728 
L 186.398182 139.318013 
L 187.92 146.55445 
L 189.746182 154.9743 
L 190.659273 158.219371 
L 191.268 159.82974 
L 191.876727 160.93165 
L 192.485455 161.492009 
L 192.789818 161.56476 
L 193.094182 161.499672 
L 193.702909 160.965446 
L 194.311636 159.92122 
L 194.920364 158.418286 
L 195.833455 155.457112 
L 197.355273 149.373496 
L 199.181455 142.085458 
L 200.094545 139.190299 
L 201.007636 137.129164 
L 201.616364 136.298951 
L 202.225091 135.934227 
L 202.529455 135.928713 
L 203.138182 136.265724 
L 203.746909 137.046073 
L 204.355636 138.230178 
L 205.268727 140.640288 
L 206.486182 144.659038 
L 208.921091 152.950952 
L 209.834182 155.316365 
L 210.442909 156.492962 
L 211.051636 157.300973 
L 211.660364 157.716046 
L 212.269091 157.729761 
L 212.877818 157.349646 
L 213.486545 156.598556 
L 214.095273 155.513467 
L 215.008364 153.370425 
L 216.530182 148.957799 
L 218.356364 143.659456 
L 219.269455 141.549854 
L 220.182545 140.043952 
L 220.791273 139.434307 
L 221.4 139.16248 
L 222.008727 139.232366 
L 222.617455 139.634351 
L 223.226182 140.345961 
L 224.139273 141.916303 
L 225.356727 144.695079 
L 228.400364 152.117825 
L 229.313455 153.677281 
L 229.922182 154.406261 
L 230.530909 154.857669 
L 231.139636 155.019342 
L 231.748364 154.890746 
L 232.357091 154.48277 
L 232.965818 153.817064 
L 233.878909 152.406136 
L 235.096364 149.979914 
L 237.835636 144.23981 
L 238.748727 142.836291 
L 239.661818 141.902568 
L 240.270545 141.576531 
L 240.879273 141.498411 
L 241.488 141.666294 
L 242.096727 142.068639 
L 243.009818 143.064652 
L 243.922909 144.438482 
L 245.749091 147.775111 
L 247.270909 150.438797 
L 248.184 151.695505 
L 249.097091 152.56591 
L 249.705818 152.897941 
L 250.314545 153.019664 
L 250.923273 152.930521 
L 251.532 152.638254 
L 252.445091 151.85501 
L 253.358182 150.732667 
L 254.88 148.411301 
L 256.706182 145.611182 
L 257.619273 144.491171 
L 258.532364 143.687438 
L 259.141091 143.358831 
L 259.749818 143.208135 
L 260.358545 143.237701 
L 260.967273 143.442742 
L 261.880364 144.052257 
L 262.793455 144.964641 
L 264.315273 146.908937 
L 266.445818 149.67958 
L 267.358909 150.595547 
L 268.272 151.231816 
L 269.185091 151.541021 
L 269.793818 151.555644 
L 270.706909 151.296544 
L 271.62 150.731562 
L 272.837455 149.606866 
L 277.098545 145.160269 
L 278.011636 144.660554 
L 278.924727 144.44367 
L 279.837818 144.520141 
L 280.750909 144.874467 
L 281.664 145.467266 
L 282.881455 146.524341 
L 285.925091 149.374107 
L 287.142545 150.134781 
L 288.055636 150.444281 
L 288.968727 150.505527 
L 289.881818 150.320597 
L 290.794909 149.913082 
L 292.012364 149.098931 
L 296.273455 145.866611 
L 297.186545 145.501074 
L 298.099636 145.340691 
L 299.012727 145.393365 
L 299.925818 145.648088 
L 301.143273 146.250822 
L 302.969455 147.492849 
L 305.1 148.913518 
L 306.317455 149.468574 
L 307.230545 149.695713 
L 308.143636 149.742663 
L 309.056727 149.610716 
L 310.274182 149.187784 
L 311.796 148.376098 
L 314.839636 146.629656 
L 316.057091 146.183778 
L 317.274545 145.991935 
L 318.492 146.073582 
L 319.709455 146.405256 
L 321.231273 147.075689 
L 324.883636 148.807111 
L 326.101091 149.111264 
L 327.318545 149.188486 
L 328.536 149.035907 
L 330.057818 148.574681 
L 335.536364 146.552352 
L 336.753818 146.460573 
L 337.971273 146.566087 
L 339.493091 146.93613 
L 342.232364 147.932926 
L 344.058545 148.505655 
L 345.580364 148.758545 
L 347.102182 148.751301 
L 348.624 148.498517 
L 350.754545 147.877474 
L 353.493818 147.079176 
L 355.015636 146.842118 
L 356.537455 146.824861 
L 358.059273 147.020632 
L 360.189818 147.536861 
L 363.233455 148.287556 
L 365.059636 148.487368 
L 366.581455 148.445652 
L 368.407636 148.174325 
L 373.581818 147.1338 
L 373.581818 147.1338 
" style="fill:none;stroke:#1f77b4;stroke-linecap:square;stroke-width:1.5;"/>
   </g>
   <g id="patch_3">
    <path d="M 54 252 
L 54 34.56 
" style="fill:none;stroke:#000000;stroke-linecap:square;stroke-linejoin:miter;stroke-width:0.8;"/>
   </g>
   <g id="patch_4">
    <path d="M 388.8 252 
L 388.8 34.56 
" style="fill:none;stroke:#000000;stroke-linecap:square;stroke-linejoin:miter;stroke-width:0.8;"/>
   </g>
   <g id="patch_5">
    <path d="M 54 252 
L 388.8 252 
" style="fill:none;stroke:#000000;stroke-linecap:square;stroke-linejoin:miter;stroke-width:0.8;"/>
   </g>
   <g id="patch_6">
    <path d="M 54 34.56 
L 388.8 34.56 
" style="fill:none;stroke:#000000;stroke-linecap:square;stroke-linejoin:miter;stroke-width:0.8;"/>
   </g>
   <g id="text_14">
    <!-- x2-PE(CE)^2-zad3 -->
    <g transform="translate(166.332188 28.56)scale(0.12 -0.12)">
     <defs>
      <path d="M 54.890625 54.6875 
L 35.109375 28.078125 
L 55.90625 0 
L 45.3125 0 
L 29.390625 21.484375 
L 13.484375 0 
L 2.875 0 
L 24.125 28.609375 
L 4.6875 54.6875 
L 15.28125 54.6875 
L 29.78125 35.203125 
L 44.28125 54.6875 
z
" id="DejaVuSans-120"/>
      <path d="M 4.890625 31.390625 
L 31.203125 31.390625 
L 31.203125 23.390625 
L 4.890625 23.390625 
z
" id="DejaVuSans-45"/>
      <path d="M 19.671875 64.796875 
L 19.671875 37.40625 
L 32.078125 37.40625 
Q 38.96875 37.40625 42.71875 40.96875 
Q 46.484375 44.53125 46.484375 51.125 
Q 46.484375 57.671875 42.71875 61.234375 
Q 38.96875 64.796875 32.078125 64.796875 
z
M 9.8125 72.90625 
L 32.078125 72.90625 
Q 44.34375 72.90625 50.609375 67.359375 
Q 56.890625 61.8125 56.890625 51.125 
Q 56.890625 40.328125 50.609375 34.8125 
Q 44.34375 29.296875 32.078125 29.296875 
L 19.671875 29.296875 
L 19.671875 0 
L 9.8125 0 
z
" id="DejaVuSans-80"/>
      <path d="M 9.8125 72.90625 
L 55.90625 72.90625 
L 55.90625 64.59375 
L 19.671875 64.59375 
L 19.671875 43.015625 
L 54.390625 43.015625 
L 54.390625 34.71875 
L 19.671875 34.71875 
L 19.671875 8.296875 
L 56.78125 8.296875 
L 56.78125 0 
L 9.8125 0 
z
" id="DejaVuSans-69"/>
      <path d="M 31 75.875 
Q 24.46875 64.65625 21.28125 53.65625 
Q 18.109375 42.671875 18.109375 31.390625 
Q 18.109375 20.125 21.3125 9.0625 
Q 24.515625 -2 31 -13.1875 
L 23.1875 -13.1875 
Q 15.875 -1.703125 12.234375 9.375 
Q 8.59375 20.453125 8.59375 31.390625 
Q 8.59375 42.28125 12.203125 53.3125 
Q 15.828125 64.359375 23.1875 75.875 
z
" id="DejaVuSans-40"/>
      <path d="M 64.40625 67.28125 
L 64.40625 56.890625 
Q 59.421875 61.53125 53.78125 63.8125 
Q 48.140625 66.109375 41.796875 66.109375 
Q 29.296875 66.109375 22.65625 58.46875 
Q 16.015625 50.828125 16.015625 36.375 
Q 16.015625 21.96875 22.65625 14.328125 
Q 29.296875 6.6875 41.796875 6.6875 
Q 48.140625 6.6875 53.78125 8.984375 
Q 59.421875 11.28125 64.40625 15.921875 
L 64.40625 5.609375 
Q 59.234375 2.09375 53.4375 0.328125 
Q 47.65625 -1.421875 41.21875 -1.421875 
Q 24.65625 -1.421875 15.125 8.703125 
Q 5.609375 18.84375 5.609375 36.375 
Q 5.609375 53.953125 15.125 64.078125 
Q 24.65625 74.21875 41.21875 74.21875 
Q 47.75 74.21875 53.53125 72.484375 
Q 59.328125 70.75 64.40625 67.28125 
z
" id="DejaVuSans-67"/>
      <path d="M 8.015625 75.875 
L 15.828125 75.875 
Q 23.140625 64.359375 26.78125 53.3125 
Q 30.421875 42.28125 30.421875 31.390625 
Q 30.421875 20.453125 26.78125 9.375 
Q 23.140625 -1.703125 15.828125 -13.1875 
L 8.015625 -13.1875 
Q 14.5 -2 17.703125 9.0625 
Q 20.90625 20.125 20.90625 31.390625 
Q 20.90625 42.671875 17.703125 53.65625 
Q 14.5 64.65625 8.015625 75.875 
z
" id="DejaVuSans-41"/>
      <path d="M 46.6875 72.90625 
L 73.1875 45.703125 
L 63.375 45.703125 
L 41.890625 64.984375 
L 20.40625 45.703125 
L 10.59375 45.703125 
L 37.109375 72.90625 
z
" id="DejaVuSans-94"/>
      <path d="M 5.515625 54.6875 
L 48.1875 54.6875 
L 48.1875 46.484375 
L 14.40625 7.171875 
L 48.1875 7.171875 
L 48.1875 0 
L 4.296875 0 
L 4.296875 8.203125 
L 38.09375 47.515625 
L 5.515625 47.515625 
z
" id="DejaVuSans-122"/>
      <path d="M 34.28125 27.484375 
Q 23.390625 27.484375 19.1875 25 
Q 14.984375 22.515625 14.984375 16.5 
Q 14.984375 11.71875 18.140625 8.90625 
Q 21.296875 6.109375 26.703125 6.109375 
Q 34.1875 6.109375 38.703125 11.40625 
Q 43.21875 16.703125 43.21875 25.484375 
L 43.21875 27.484375 
z
M 52.203125 31.203125 
L 52.203125 0 
L 43.21875 0 
L 43.21875 8.296875 
Q 40.140625 3.328125 35.546875 0.953125 
Q 30.953125 -1.421875 24.3125 -1.421875 
Q 15.921875 -1.421875 10.953125 3.296875 
Q 6 8.015625 6 15.921875 
Q 6 25.140625 12.171875 29.828125 
Q 18.359375 34.515625 30.609375 34.515625 
L 43.21875 34.515625 
L 43.21875 35.40625 
Q 43.21875 41.609375 39.140625 45 
Q 35.0625 48.390625 27.6875 48.390625 
Q 23 48.390625 18.546875 47.265625 
Q 14.109375 46.140625 10.015625 43.890625 
L 10.015625 52.203125 
Q 14.9375 54.109375 19.578125 55.046875 
Q 24.21875 56 28.609375 56 
Q 40.484375 56 46.34375 49.84375 
Q 52.203125 43.703125 52.203125 31.203125 
z
" id="DejaVuSans-97"/>
      <path d="M 45.40625 46.390625 
L 45.40625 75.984375 
L 54.390625 75.984375 
L 54.390625 0 
L 45.40625 0 
L 45.40625 8.203125 
Q 42.578125 3.328125 38.25 0.953125 
Q 33.9375 -1.421875 27.875 -1.421875 
Q 17.96875 -1.421875 11.734375 6.484375 
Q 5.515625 14.40625 5.515625 27.296875 
Q 5.515625 40.1875 11.734375 48.09375 
Q 17.96875 56 27.875 56 
Q 33.9375 56 38.25 53.625 
Q 42.578125 51.265625 45.40625 46.390625 
z
M 14.796875 27.296875 
Q 14.796875 17.390625 18.875 11.75 
Q 22.953125 6.109375 30.078125 6.109375 
Q 37.203125 6.109375 41.296875 11.75 
Q 45.40625 17.390625 45.40625 27.296875 
Q 45.40625 37.203125 41.296875 42.84375 
Q 37.203125 48.484375 30.078125 48.484375 
Q 22.953125 48.484375 18.875 42.84375 
Q 14.796875 37.203125 14.796875 27.296875 
z
" id="DejaVuSans-100"/>
     </defs>
     <use xlink:href="#DejaVuSans-120"/>
     <use x="59.179688" xlink:href="#DejaVuSans-50"/>
     <use x="122.802734" xlink:href="#DejaVuSans-45"/>
     <use x="158.886719" xlink:href="#DejaVuSans-80"/>
     <use x="219.189453" xlink:href="#DejaVuSans-69"/>
     <use x="282.373047" xlink:href="#DejaVuSans-40"/>
     <use x="321.386719" xlink:href="#DejaVuSans-67"/>
     <use x="391.210938" xlink:href="#DejaVuSans-69"/>
     <use x="454.394531" xlink:href="#DejaVuSans-41"/>
     <use x="493.408203" xlink:href="#DejaVuSans-94"/>
     <use x="577.197266" xlink:href="#DejaVuSans-50"/>
     <use x="640.820312" xlink:href="#DejaVuSans-45"/>
     <use x="676.904297" xlink:href="#DejaVuSans-122"/>
     <use x="729.394531" xlink:href="#DejaVuSans-97"/>
     <use x="790.673828" xlink:href="#DejaVuSans-100"/>
     <use x="854.150391" xlink:href="#DejaVuSans-51"/>
    </g>
   </g>
   <g id="legend_1">
    <g id="patch_7">
     <path d="M 337.51875 57.238125 
L 381.8 57.238125 
Q 383.8 57.238125 383.8 55.238125 
L 383.8 41.56 
Q 383.8 39.56 381.8 39.56 
L 337.51875 39.56 
Q 335.51875 39.56 335.51875 41.56 
L 335.51875 55.238125 
Q 335.51875 57.238125 337.51875 57.238125 
z
" style="fill:#ffffff;opacity:0.8;stroke:#cccccc;stroke-linejoin:miter;"/>
    </g>
    <g id="line2d_15">
     <path d="M 339.51875 47.658437 
L 359.51875 47.658437 
" style="fill:none;stroke:#1f77b4;stroke-linecap:square;stroke-width:1.5;"/>
    </g>
    <g id="line2d_16"/>
    <g id="text_15">
     <!-- x2 -->
     <g transform="translate(367.51875 51.158437)scale(0.1 -0.1)">
      <use xlink:href="#DejaVuSans-120"/>
      <use x="59.179688" xlink:href="#DejaVuSans-50"/>
     </g>
    </g>
   </g>
  </g>
 </g>
 <defs>
  <clipPath id="p338bec7e60">
   <rect height="217.44" width="334.8" x="54" y="34.56"/>
  </clipPath>
 </defs>
</svg>
