<?xml version="1.0" encoding="utf-8" standalone="no"?>
<!DOCTYPE svg PUBLIC "-//W3C//DTD SVG 1.1//EN"
  "http://www.w3.org/Graphics/SVG/1.1/DTD/svg11.dtd">
<!-- Created with matplotlib (https://matplotlib.org/) -->
<svg height="288pt" version="1.1" viewBox="0 0 432 288" width="432pt" xmlns="http://www.w3.org/2000/svg" xmlns:xlink="http://www.w3.org/1999/xlink">
 <metadata>
  <rdf:RDF xmlns:cc="http://creativecommons.org/ns#" xmlns:dc="http://purl.org/dc/elements/1.1/" xmlns:rdf="http://www.w3.org/1999/02/22-rdf-syntax-ns#">
   <cc:Work>
    <dc:type rdf:resource="http://purl.org/dc/dcmitype/StillImage"/>
    <dc:date>2021-01-08T19:31:16.131645</dc:date>
    <dc:format>image/svg+xml</dc:format>
    <dc:creator>
     <cc:Agent>
      <dc:title>Matplotlib v3.3.2, https://matplotlib.org/</dc:title>
     </cc:Agent>
    </dc:creator>
   </cc:Work>
  </rdf:RDF>
 </metadata>
 <defs>
  <style type="text/css">*{stroke-linecap:butt;stroke-linejoin:round;}</style>
 </defs>
 <g id="figure_1">
  <g id="patch_1">
   <path d="M 0 288 
L 432 288 
L 432 0 
L 0 0 
z
" style="fill:none;"/>
  </g>
  <g id="axes_1">
   <g id="patch_2">
    <path d="M 54 252 
L 388.8 252 
L 388.8 34.56 
L 54 34.56 
z
" style="fill:#ffffff;"/>
   </g>
   <g id="matplotlib.axis_1">
    <g id="xtick_1">
     <g id="line2d_1">
      <defs>
       <path d="M 0 0 
L 0 3.5 
" id="m0bdbd96070" style="stroke:#000000;stroke-width:0.8;"/>
      </defs>
      <g>
       <use style="stroke:#000000;stroke-width:0.8;" x="69.218182" xlink:href="#m0bdbd96070" y="252"/>
      </g>
     </g>
     <g id="text_1">
      <!-- 0 -->
      <g transform="translate(66.036932 266.598437)scale(0.1 -0.1)">
       <defs>
        <path d="M 31.78125 66.40625 
Q 24.171875 66.40625 20.328125 58.90625 
Q 16.5 51.421875 16.5 36.375 
Q 16.5 21.390625 20.328125 13.890625 
Q 24.171875 6.390625 31.78125 6.390625 
Q 39.453125 6.390625 43.28125 13.890625 
Q 47.125 21.390625 47.125 36.375 
Q 47.125 51.421875 43.28125 58.90625 
Q 39.453125 66.40625 31.78125 66.40625 
z
M 31.78125 74.21875 
Q 44.046875 74.21875 50.515625 64.515625 
Q 56.984375 54.828125 56.984375 36.375 
Q 56.984375 17.96875 50.515625 8.265625 
Q 44.046875 -1.421875 31.78125 -1.421875 
Q 19.53125 -1.421875 13.0625 8.265625 
Q 6.59375 17.96875 6.59375 36.375 
Q 6.59375 54.828125 13.0625 64.515625 
Q 19.53125 74.21875 31.78125 74.21875 
z
" id="DejaVuSans-48"/>
       </defs>
       <use xlink:href="#DejaVuSans-48"/>
      </g>
     </g>
    </g>
    <g id="xtick_2">
     <g id="line2d_2">
      <g>
       <use style="stroke:#000000;stroke-width:0.8;" x="130.090909" xlink:href="#m0bdbd96070" y="252"/>
      </g>
     </g>
     <g id="text_2">
      <!-- 2 -->
      <g transform="translate(126.909659 266.598437)scale(0.1 -0.1)">
       <defs>
        <path d="M 19.1875 8.296875 
L 53.609375 8.296875 
L 53.609375 0 
L 7.328125 0 
L 7.328125 8.296875 
Q 12.9375 14.109375 22.625 23.890625 
Q 32.328125 33.6875 34.8125 36.53125 
Q 39.546875 41.84375 41.421875 45.53125 
Q 43.3125 49.21875 43.3125 52.78125 
Q 43.3125 58.59375 39.234375 62.25 
Q 35.15625 65.921875 28.609375 65.921875 
Q 23.96875 65.921875 18.8125 64.3125 
Q 13.671875 62.703125 7.8125 59.421875 
L 7.8125 69.390625 
Q 13.765625 71.78125 18.9375 73 
Q 24.125 74.21875 28.421875 74.21875 
Q 39.75 74.21875 46.484375 68.546875 
Q 53.21875 62.890625 53.21875 53.421875 
Q 53.21875 48.921875 51.53125 44.890625 
Q 49.859375 40.875 45.40625 35.40625 
Q 44.1875 33.984375 37.640625 27.21875 
Q 31.109375 20.453125 19.1875 8.296875 
z
" id="DejaVuSans-50"/>
       </defs>
       <use xlink:href="#DejaVuSans-50"/>
      </g>
     </g>
    </g>
    <g id="xtick_3">
     <g id="line2d_3">
      <g>
       <use style="stroke:#000000;stroke-width:0.8;" x="190.963636" xlink:href="#m0bdbd96070" y="252"/>
      </g>
     </g>
     <g id="text_3">
      <!-- 4 -->
      <g transform="translate(187.782386 266.598437)scale(0.1 -0.1)">
       <defs>
        <path d="M 37.796875 64.3125 
L 12.890625 25.390625 
L 37.796875 25.390625 
z
M 35.203125 72.90625 
L 47.609375 72.90625 
L 47.609375 25.390625 
L 58.015625 25.390625 
L 58.015625 17.1875 
L 47.609375 17.1875 
L 47.609375 0 
L 37.796875 0 
L 37.796875 17.1875 
L 4.890625 17.1875 
L 4.890625 26.703125 
z
" id="DejaVuSans-52"/>
       </defs>
       <use xlink:href="#DejaVuSans-52"/>
      </g>
     </g>
    </g>
    <g id="xtick_4">
     <g id="line2d_4">
      <g>
       <use style="stroke:#000000;stroke-width:0.8;" x="251.836364" xlink:href="#m0bdbd96070" y="252"/>
      </g>
     </g>
     <g id="text_4">
      <!-- 6 -->
      <g transform="translate(248.655114 266.598437)scale(0.1 -0.1)">
       <defs>
        <path d="M 33.015625 40.375 
Q 26.375 40.375 22.484375 35.828125 
Q 18.609375 31.296875 18.609375 23.390625 
Q 18.609375 15.53125 22.484375 10.953125 
Q 26.375 6.390625 33.015625 6.390625 
Q 39.65625 6.390625 43.53125 10.953125 
Q 47.40625 15.53125 47.40625 23.390625 
Q 47.40625 31.296875 43.53125 35.828125 
Q 39.65625 40.375 33.015625 40.375 
z
M 52.59375 71.296875 
L 52.59375 62.3125 
Q 48.875 64.0625 45.09375 64.984375 
Q 41.3125 65.921875 37.59375 65.921875 
Q 27.828125 65.921875 22.671875 59.328125 
Q 17.53125 52.734375 16.796875 39.40625 
Q 19.671875 43.65625 24.015625 45.921875 
Q 28.375 48.1875 33.59375 48.1875 
Q 44.578125 48.1875 50.953125 41.515625 
Q 57.328125 34.859375 57.328125 23.390625 
Q 57.328125 12.15625 50.6875 5.359375 
Q 44.046875 -1.421875 33.015625 -1.421875 
Q 20.359375 -1.421875 13.671875 8.265625 
Q 6.984375 17.96875 6.984375 36.375 
Q 6.984375 53.65625 15.1875 63.9375 
Q 23.390625 74.21875 37.203125 74.21875 
Q 40.921875 74.21875 44.703125 73.484375 
Q 48.484375 72.75 52.59375 71.296875 
z
" id="DejaVuSans-54"/>
       </defs>
       <use xlink:href="#DejaVuSans-54"/>
      </g>
     </g>
    </g>
    <g id="xtick_5">
     <g id="line2d_5">
      <g>
       <use style="stroke:#000000;stroke-width:0.8;" x="312.709091" xlink:href="#m0bdbd96070" y="252"/>
      </g>
     </g>
     <g id="text_5">
      <!-- 8 -->
      <g transform="translate(309.527841 266.598437)scale(0.1 -0.1)">
       <defs>
        <path d="M 31.78125 34.625 
Q 24.75 34.625 20.71875 30.859375 
Q 16.703125 27.09375 16.703125 20.515625 
Q 16.703125 13.921875 20.71875 10.15625 
Q 24.75 6.390625 31.78125 6.390625 
Q 38.8125 6.390625 42.859375 10.171875 
Q 46.921875 13.96875 46.921875 20.515625 
Q 46.921875 27.09375 42.890625 30.859375 
Q 38.875 34.625 31.78125 34.625 
z
M 21.921875 38.8125 
Q 15.578125 40.375 12.03125 44.71875 
Q 8.5 49.078125 8.5 55.328125 
Q 8.5 64.0625 14.71875 69.140625 
Q 20.953125 74.21875 31.78125 74.21875 
Q 42.671875 74.21875 48.875 69.140625 
Q 55.078125 64.0625 55.078125 55.328125 
Q 55.078125 49.078125 51.53125 44.71875 
Q 48 40.375 41.703125 38.8125 
Q 48.828125 37.15625 52.796875 32.3125 
Q 56.78125 27.484375 56.78125 20.515625 
Q 56.78125 9.90625 50.3125 4.234375 
Q 43.84375 -1.421875 31.78125 -1.421875 
Q 19.734375 -1.421875 13.25 4.234375 
Q 6.78125 9.90625 6.78125 20.515625 
Q 6.78125 27.484375 10.78125 32.3125 
Q 14.796875 37.15625 21.921875 38.8125 
z
M 18.3125 54.390625 
Q 18.3125 48.734375 21.84375 45.5625 
Q 25.390625 42.390625 31.78125 42.390625 
Q 38.140625 42.390625 41.71875 45.5625 
Q 45.3125 48.734375 45.3125 54.390625 
Q 45.3125 60.0625 41.71875 63.234375 
Q 38.140625 66.40625 31.78125 66.40625 
Q 25.390625 66.40625 21.84375 63.234375 
Q 18.3125 60.0625 18.3125 54.390625 
z
" id="DejaVuSans-56"/>
       </defs>
       <use xlink:href="#DejaVuSans-56"/>
      </g>
     </g>
    </g>
    <g id="xtick_6">
     <g id="line2d_6">
      <g>
       <use style="stroke:#000000;stroke-width:0.8;" x="373.581818" xlink:href="#m0bdbd96070" y="252"/>
      </g>
     </g>
     <g id="text_6">
      <!-- 10 -->
      <g transform="translate(367.219318 266.598437)scale(0.1 -0.1)">
       <defs>
        <path d="M 12.40625 8.296875 
L 28.515625 8.296875 
L 28.515625 63.921875 
L 10.984375 60.40625 
L 10.984375 69.390625 
L 28.421875 72.90625 
L 38.28125 72.90625 
L 38.28125 8.296875 
L 54.390625 8.296875 
L 54.390625 0 
L 12.40625 0 
z
" id="DejaVuSans-49"/>
       </defs>
       <use xlink:href="#DejaVuSans-49"/>
       <use x="63.623047" xlink:href="#DejaVuSans-48"/>
      </g>
     </g>
    </g>
   </g>
   <g id="matplotlib.axis_2">
    <g id="ytick_1">
     <g id="line2d_7">
      <defs>
       <path d="M 0 0 
L -3.5 0 
" id="m223633a767" style="stroke:#000000;stroke-width:0.8;"/>
      </defs>
      <g>
       <use style="stroke:#000000;stroke-width:0.8;" x="54" xlink:href="#m223633a767" y="223.092606"/>
      </g>
     </g>
     <g id="text_7">
      <!-- −2 -->
      <g transform="translate(32.257812 226.891825)scale(0.1 -0.1)">
       <defs>
        <path d="M 10.59375 35.5 
L 73.1875 35.5 
L 73.1875 27.203125 
L 10.59375 27.203125 
z
" id="DejaVuSans-8722"/>
       </defs>
       <use xlink:href="#DejaVuSans-8722"/>
       <use x="83.789062" xlink:href="#DejaVuSans-50"/>
      </g>
     </g>
    </g>
    <g id="ytick_2">
     <g id="line2d_8">
      <g>
       <use style="stroke:#000000;stroke-width:0.8;" x="54" xlink:href="#m223633a767" y="187.156209"/>
      </g>
     </g>
     <g id="text_8">
      <!-- −1 -->
      <g transform="translate(32.257812 190.955427)scale(0.1 -0.1)">
       <use xlink:href="#DejaVuSans-8722"/>
       <use x="83.789062" xlink:href="#DejaVuSans-49"/>
      </g>
     </g>
    </g>
    <g id="ytick_3">
     <g id="line2d_9">
      <g>
       <use style="stroke:#000000;stroke-width:0.8;" x="54" xlink:href="#m223633a767" y="151.219811"/>
      </g>
     </g>
     <g id="text_9">
      <!-- 0 -->
      <g transform="translate(40.6375 155.01903)scale(0.1 -0.1)">
       <use xlink:href="#DejaVuSans-48"/>
      </g>
     </g>
    </g>
    <g id="ytick_4">
     <g id="line2d_10">
      <g>
       <use style="stroke:#000000;stroke-width:0.8;" x="54" xlink:href="#m223633a767" y="115.283414"/>
      </g>
     </g>
     <g id="text_10">
      <!-- 1 -->
      <g transform="translate(40.6375 119.082632)scale(0.1 -0.1)">
       <use xlink:href="#DejaVuSans-49"/>
      </g>
     </g>
    </g>
    <g id="ytick_5">
     <g id="line2d_11">
      <g>
       <use style="stroke:#000000;stroke-width:0.8;" x="54" xlink:href="#m223633a767" y="79.347016"/>
      </g>
     </g>
     <g id="text_11">
      <!-- 2 -->
      <g transform="translate(40.6375 83.146235)scale(0.1 -0.1)">
       <use xlink:href="#DejaVuSans-50"/>
      </g>
     </g>
    </g>
    <g id="ytick_6">
     <g id="line2d_12">
      <g>
       <use style="stroke:#000000;stroke-width:0.8;" x="54" xlink:href="#m223633a767" y="43.410619"/>
      </g>
     </g>
     <g id="text_12">
      <!-- 3 -->
      <g transform="translate(40.6375 47.209837)scale(0.1 -0.1)">
       <defs>
        <path d="M 40.578125 39.3125 
Q 47.65625 37.796875 51.625 33 
Q 55.609375 28.21875 55.609375 21.1875 
Q 55.609375 10.40625 48.1875 4.484375 
Q 40.765625 -1.421875 27.09375 -1.421875 
Q 22.515625 -1.421875 17.65625 -0.515625 
Q 12.796875 0.390625 7.625 2.203125 
L 7.625 11.71875 
Q 11.71875 9.328125 16.59375 8.109375 
Q 21.484375 6.890625 26.8125 6.890625 
Q 36.078125 6.890625 40.9375 10.546875 
Q 45.796875 14.203125 45.796875 21.1875 
Q 45.796875 27.640625 41.28125 31.265625 
Q 36.765625 34.90625 28.71875 34.90625 
L 20.21875 34.90625 
L 20.21875 43.015625 
L 29.109375 43.015625 
Q 36.375 43.015625 40.234375 45.921875 
Q 44.09375 48.828125 44.09375 54.296875 
Q 44.09375 59.90625 40.109375 62.90625 
Q 36.140625 65.921875 28.71875 65.921875 
Q 24.65625 65.921875 20.015625 65.03125 
Q 15.375 64.15625 9.8125 62.3125 
L 9.8125 71.09375 
Q 15.4375 72.65625 20.34375 73.4375 
Q 25.25 74.21875 29.59375 74.21875 
Q 40.828125 74.21875 47.359375 69.109375 
Q 53.90625 64.015625 53.90625 55.328125 
Q 53.90625 49.265625 50.4375 45.09375 
Q 46.96875 40.921875 40.578125 39.3125 
z
" id="DejaVuSans-51"/>
       </defs>
       <use xlink:href="#DejaVuSans-51"/>
      </g>
     </g>
    </g>
   </g>
   <g id="line2d_13">
    <path clip-path="url(#pbb3507c185)" d="M 69.218182 115.283414 
L 70.435636 77.757033 
L 71.348727 57.797949 
L 71.957455 49.310723 
L 72.261818 46.623838 
L 72.566182 44.999694 
L 72.870545 44.443636 
L 73.174909 44.950386 
L 73.479273 46.504191 
L 73.783636 49.079094 
L 74.392364 57.139573 
L 75.001091 68.735986 
L 75.914182 91.577794 
L 77.131636 128.664555 
L 79.262182 194.683163 
L 80.175273 216.998538 
L 80.784 228.389316 
L 81.392727 236.517961 
L 82.001455 241.130524 
L 82.305818 242.078022 
L 82.610182 242.116364 
L 82.914545 241.254352 
L 83.218909 239.509613 
L 83.827636 233.484929 
L 84.436364 224.347806 
L 85.349455 205.75594 
L 86.566909 174.76236 
L 89.001818 110.83146 
L 89.914909 92.599952 
L 90.523636 83.533679 
L 91.132364 77.310073 
L 91.436727 75.327637 
L 91.741091 74.116631 
L 92.045455 73.681253 
L 92.349818 74.017982 
L 92.654182 75.115685 
L 92.958545 76.955809 
L 93.567273 82.753618 
L 94.176 91.126046 
L 95.089091 107.657033 
L 96.306545 134.551064 
L 98.437091 182.535944 
L 99.350182 198.796436 
L 99.958909 207.113944 
L 100.567636 213.06733 
L 101.176364 216.470098 
L 101.480727 217.185099 
L 101.785091 217.239757 
L 102.089455 216.6402 
L 102.393818 215.39897 
L 103.002545 211.07255 
L 103.611273 204.480502 
L 104.524364 191.030604 
L 105.741818 168.560742 
L 108.176727 122.093808 
L 109.089818 108.804752 
L 109.698545 102.180885 
L 110.307273 97.617654 
L 110.611636 96.155353 
L 110.916 95.253012 
L 111.220364 94.913912 
L 111.524727 95.135721 
L 111.829091 95.910578 
L 112.133455 97.225227 
L 112.742182 101.395053 
L 113.350909 107.439494 
L 114.264 119.402882 
L 115.481455 138.905127 
L 117.612 173.781803 
L 118.525091 185.629983 
L 119.133818 191.703131 
L 119.742545 196.062996 
L 120.351273 198.57264 
L 120.655636 199.111428 
L 120.96 199.1706 
L 121.264364 198.754414 
L 121.568727 197.87179 
L 122.177455 194.765379 
L 122.786182 190.009793 
L 123.699273 180.280062 
L 124.916727 163.99009 
L 127.351636 130.217073 
L 128.264727 120.530878 
L 128.873455 115.69169 
L 129.482182 112.346218 
L 130.090909 110.595941 
L 130.395273 110.333033 
L 130.699636 110.4776 
L 131.004 111.024095 
L 131.308364 111.96305 
L 131.917091 114.961674 
L 132.525818 119.325199 
L 133.438909 127.982781 
L 134.656364 142.12459 
L 136.786909 167.47345 
L 137.7 176.106377 
L 138.308727 180.540579 
L 138.917455 183.73319 
L 139.526182 185.583671 
L 139.830545 185.989138 
L 140.134909 186.04626 
L 140.439273 185.757988 
L 140.743636 185.130664 
L 141.352364 182.900569 
L 141.961091 179.470046 
L 142.874182 172.431738 
L 144.091636 160.622235 
L 146.526545 136.075804 
L 147.439636 129.015884 
L 148.048364 125.480702 
L 148.657091 123.028264 
L 149.265818 121.733207 
L 149.570182 121.530188 
L 149.874545 121.623176 
L 150.178909 122.008261 
L 150.483273 122.67868 
L 151.092 124.834811 
L 151.700727 127.984701 
L 152.613818 134.249771 
L 153.831273 144.504329 
L 155.961818 162.927927 
L 156.874909 169.217962 
L 157.483636 172.455376 
L 158.092364 174.793046 
L 158.701091 176.157169 
L 159.005455 176.461931 
L 159.309818 176.513692 
L 159.614182 176.314495 
L 159.918545 175.868848 
L 160.527273 174.268108 
L 161.136 171.793601 
L 162.049091 166.702388 
L 163.266545 158.141199 
L 165.701455 140.301007 
L 166.614545 135.15543 
L 167.223273 132.572994 
L 167.832 130.775386 
L 168.440727 129.817491 
L 168.745091 129.661273 
L 169.049455 129.720085 
L 169.353818 129.991171 
L 169.962545 131.148852 
L 170.571273 133.072177 
L 171.484364 137.186835 
L 172.701818 144.310693 
L 175.441091 161.301644 
L 176.354182 165.494541 
L 176.962909 167.540602 
L 177.571636 168.904041 
L 178.180364 169.544984 
L 178.484727 169.59004 
L 178.789091 169.452758 
L 179.093455 169.136337 
L 179.702182 167.987525 
L 180.310909 166.202728 
L 181.224 162.520084 
L 182.441455 156.313855 
L 184.876364 143.347934 
L 185.789455 139.59772 
L 186.398182 137.711352 
L 187.006909 136.393857 
L 187.615636 135.685586 
L 187.92 135.565761 
L 188.224364 135.602137 
L 188.528727 135.792776 
L 189.137455 136.621604 
L 189.746182 138.007573 
L 190.659273 140.982488 
L 191.876727 146.145384 
L 194.616 158.493951 
L 195.529091 161.550885 
L 196.137818 163.046367 
L 196.746545 164.046941 
L 197.355273 164.523224 
L 197.659636 164.561368 
L 197.964 164.467032 
L 198.572727 163.891274 
L 199.181455 162.829023 
L 199.790182 161.331806 
L 200.703273 158.421946 
L 202.225091 152.520421 
L 204.051273 145.545019 
L 204.964364 142.811853 
L 205.573091 141.434003 
L 206.181818 140.468483 
L 206.790545 139.944957 
L 207.399273 139.875122 
L 208.008 140.252604 
L 208.616727 141.053577 
L 209.225455 142.238048 
L 210.138545 144.611795 
L 211.356 148.521126 
L 213.486545 155.593716 
L 214.399636 158.026314 
L 215.312727 159.789514 
L 215.921455 160.523706 
L 216.530182 160.877446 
L 217.138909 160.844474 
L 217.747636 160.433857 
L 218.356364 159.669325 
L 219.269455 157.943486 
L 220.182545 155.680228 
L 223.834909 145.742319 
L 224.748 144.130935 
L 225.356727 143.423426 
L 225.965455 143.036579 
L 226.574182 142.979157 
L 227.182909 143.246795 
L 227.791636 143.822443 
L 228.400364 144.677283 
L 229.313455 146.394837 
L 230.530909 149.229364 
L 232.965818 155.005854 
L 233.878909 156.630618 
L 234.792 157.732515 
L 235.400727 158.134444 
L 236.009455 158.256509 
L 236.618182 158.099537 
L 237.226909 157.675304 
L 237.835636 157.005858 
L 238.748727 155.612424 
L 239.966182 153.248379 
L 242.401091 148.27134 
L 243.314182 146.819732 
L 244.227273 145.79723 
L 244.836 145.393732 
L 245.444727 145.227343 
L 246.053455 145.299838 
L 246.662182 145.603566 
L 247.270909 146.121943 
L 248.184 147.246024 
L 249.401455 149.211066 
L 252.140727 153.950967 
L 253.053818 155.135434 
L 253.966909 155.941259 
L 254.575636 156.237224 
L 255.184364 156.330028 
L 255.793091 156.220105 
L 256.401818 155.915849 
L 257.314909 155.131652 
L 258.228 154.028189 
L 259.749818 151.775575 
L 261.576 149.094752 
L 262.489091 148.036904 
L 263.402182 147.289694 
L 264.010909 146.993233 
L 264.619636 146.868859 
L 265.228364 146.918003 
L 265.837091 147.135247 
L 266.750182 147.748595 
L 267.663273 148.647723 
L 269.185091 150.537097 
L 271.315636 153.189872 
L 272.228727 154.053333 
L 273.141818 154.642601 
L 274.054909 154.914264 
L 274.968 154.854042 
L 275.881091 154.477167 
L 276.794182 153.826159 
L 278.011636 152.647027 
L 281.359636 149.152117 
L 282.272727 148.52544 
L 283.185818 148.153659 
L 284.098909 148.06171 
L 285.012 148.249256 
L 285.925091 148.691481 
L 287.142545 149.594561 
L 291.403636 153.270213 
L 292.316727 153.701096 
L 293.229818 153.901625 
L 294.142909 153.861139 
L 295.056 153.590413 
L 296.273455 152.926702 
L 297.795273 151.781313 
L 300.230182 149.913395 
L 301.447636 149.268185 
L 302.360727 148.995526 
L 303.273818 148.925953 
L 304.186909 149.059474 
L 305.404364 149.520351 
L 306.926182 150.425563 
L 310.274182 152.56495 
L 311.491636 153.018533 
L 312.404727 153.166515 
L 313.317818 153.139473 
L 314.535273 152.846445 
L 315.752727 152.314414 
L 318.187636 150.91841 
L 320.013818 150.015255 
L 321.231273 149.656938 
L 322.448727 149.553716 
L 323.666182 149.711345 
L 324.883636 150.095155 
L 326.709818 150.939585 
L 329.144727 152.080488 
L 330.666545 152.523706 
L 331.884 152.640992 
L 333.101455 152.534608 
L 334.623273 152.128564 
L 336.753818 151.264558 
L 338.884364 150.439575 
L 340.406182 150.086617 
L 341.623636 150.009698 
L 342.841091 150.122317 
L 344.362909 150.489269 
L 350.145818 152.201981 
L 351.667636 152.23374 
L 353.189455 152.022834 
L 355.32 151.446395 
L 358.363636 150.589693 
L 359.885455 150.37076 
L 361.407273 150.364548 
L 363.233455 150.62162 
L 365.972727 151.30778 
L 368.407636 151.829502 
L 370.233818 151.969207 
L 372.06 151.847679 
L 373.581818 151.585322 
L 373.581818 151.585322 
" style="fill:none;stroke:#1f77b4;stroke-linecap:square;stroke-width:1.5;"/>
   </g>
   <g id="patch_3">
    <path d="M 54 252 
L 54 34.56 
" style="fill:none;stroke:#000000;stroke-linecap:square;stroke-linejoin:miter;stroke-width:0.8;"/>
   </g>
   <g id="patch_4">
    <path d="M 388.8 252 
L 388.8 34.56 
" style="fill:none;stroke:#000000;stroke-linecap:square;stroke-linejoin:miter;stroke-width:0.8;"/>
   </g>
   <g id="patch_5">
    <path d="M 54 252 
L 388.8 252 
" style="fill:none;stroke:#000000;stroke-linecap:square;stroke-linejoin:miter;stroke-width:0.8;"/>
   </g>
   <g id="patch_6">
    <path d="M 54 34.56 
L 388.8 34.56 
" style="fill:none;stroke:#000000;stroke-linecap:square;stroke-linejoin:miter;stroke-width:0.8;"/>
   </g>
   <g id="text_13">
    <!-- x1-PE(CE)^2-zad3 -->
    <g transform="translate(166.332188 28.56)scale(0.12 -0.12)">
     <defs>
      <path d="M 54.890625 54.6875 
L 35.109375 28.078125 
L 55.90625 0 
L 45.3125 0 
L 29.390625 21.484375 
L 13.484375 0 
L 2.875 0 
L 24.125 28.609375 
L 4.6875 54.6875 
L 15.28125 54.6875 
L 29.78125 35.203125 
L 44.28125 54.6875 
z
" id="DejaVuSans-120"/>
      <path d="M 4.890625 31.390625 
L 31.203125 31.390625 
L 31.203125 23.390625 
L 4.890625 23.390625 
z
" id="DejaVuSans-45"/>
      <path d="M 19.671875 64.796875 
L 19.671875 37.40625 
L 32.078125 37.40625 
Q 38.96875 37.40625 42.71875 40.96875 
Q 46.484375 44.53125 46.484375 51.125 
Q 46.484375 57.671875 42.71875 61.234375 
Q 38.96875 64.796875 32.078125 64.796875 
z
M 9.8125 72.90625 
L 32.078125 72.90625 
Q 44.34375 72.90625 50.609375 67.359375 
Q 56.890625 61.8125 56.890625 51.125 
Q 56.890625 40.328125 50.609375 34.8125 
Q 44.34375 29.296875 32.078125 29.296875 
L 19.671875 29.296875 
L 19.671875 0 
L 9.8125 0 
z
" id="DejaVuSans-80"/>
      <path d="M 9.8125 72.90625 
L 55.90625 72.90625 
L 55.90625 64.59375 
L 19.671875 64.59375 
L 19.671875 43.015625 
L 54.390625 43.015625 
L 54.390625 34.71875 
L 19.671875 34.71875 
L 19.671875 8.296875 
L 56.78125 8.296875 
L 56.78125 0 
L 9.8125 0 
z
" id="DejaVuSans-69"/>
      <path d="M 31 75.875 
Q 24.46875 64.65625 21.28125 53.65625 
Q 18.109375 42.671875 18.109375 31.390625 
Q 18.109375 20.125 21.3125 9.0625 
Q 24.515625 -2 31 -13.1875 
L 23.1875 -13.1875 
Q 15.875 -1.703125 12.234375 9.375 
Q 8.59375 20.453125 8.59375 31.390625 
Q 8.59375 42.28125 12.203125 53.3125 
Q 15.828125 64.359375 23.1875 75.875 
z
" id="DejaVuSans-40"/>
      <path d="M 64.40625 67.28125 
L 64.40625 56.890625 
Q 59.421875 61.53125 53.78125 63.8125 
Q 48.140625 66.109375 41.796875 66.109375 
Q 29.296875 66.109375 22.65625 58.46875 
Q 16.015625 50.828125 16.015625 36.375 
Q 16.015625 21.96875 22.65625 14.328125 
Q 29.296875 6.6875 41.796875 6.6875 
Q 48.140625 6.6875 53.78125 8.984375 
Q 59.421875 11.28125 64.40625 15.921875 
L 64.40625 5.609375 
Q 59.234375 2.09375 53.4375 0.328125 
Q 47.65625 -1.421875 41.21875 -1.421875 
Q 24.65625 -1.421875 15.125 8.703125 
Q 5.609375 18.84375 5.609375 36.375 
Q 5.609375 53.953125 15.125 64.078125 
Q 24.65625 74.21875 41.21875 74.21875 
Q 47.75 74.21875 53.53125 72.484375 
Q 59.328125 70.75 64.40625 67.28125 
z
" id="DejaVuSans-67"/>
      <path d="M 8.015625 75.875 
L 15.828125 75.875 
Q 23.140625 64.359375 26.78125 53.3125 
Q 30.421875 42.28125 30.421875 31.390625 
Q 30.421875 20.453125 26.78125 9.375 
Q 23.140625 -1.703125 15.828125 -13.1875 
L 8.015625 -13.1875 
Q 14.5 -2 17.703125 9.0625 
Q 20.90625 20.125 20.90625 31.390625 
Q 20.90625 42.671875 17.703125 53.65625 
Q 14.5 64.65625 8.015625 75.875 
z
" id="DejaVuSans-41"/>
      <path d="M 46.6875 72.90625 
L 73.1875 45.703125 
L 63.375 45.703125 
L 41.890625 64.984375 
L 20.40625 45.703125 
L 10.59375 45.703125 
L 37.109375 72.90625 
z
" id="DejaVuSans-94"/>
      <path d="M 5.515625 54.6875 
L 48.1875 54.6875 
L 48.1875 46.484375 
L 14.40625 7.171875 
L 48.1875 7.171875 
L 48.1875 0 
L 4.296875 0 
L 4.296875 8.203125 
L 38.09375 47.515625 
L 5.515625 47.515625 
z
" id="DejaVuSans-122"/>
      <path d="M 34.28125 27.484375 
Q 23.390625 27.484375 19.1875 25 
Q 14.984375 22.515625 14.984375 16.5 
Q 14.984375 11.71875 18.140625 8.90625 
Q 21.296875 6.109375 26.703125 6.109375 
Q 34.1875 6.109375 38.703125 11.40625 
Q 43.21875 16.703125 43.21875 25.484375 
L 43.21875 27.484375 
z
M 52.203125 31.203125 
L 52.203125 0 
L 43.21875 0 
L 43.21875 8.296875 
Q 40.140625 3.328125 35.546875 0.953125 
Q 30.953125 -1.421875 24.3125 -1.421875 
Q 15.921875 -1.421875 10.953125 3.296875 
Q 6 8.015625 6 15.921875 
Q 6 25.140625 12.171875 29.828125 
Q 18.359375 34.515625 30.609375 34.515625 
L 43.21875 34.515625 
L 43.21875 35.40625 
Q 43.21875 41.609375 39.140625 45 
Q 35.0625 48.390625 27.6875 48.390625 
Q 23 48.390625 18.546875 47.265625 
Q 14.109375 46.140625 10.015625 43.890625 
L 10.015625 52.203125 
Q 14.9375 54.109375 19.578125 55.046875 
Q 24.21875 56 28.609375 56 
Q 40.484375 56 46.34375 49.84375 
Q 52.203125 43.703125 52.203125 31.203125 
z
" id="DejaVuSans-97"/>
      <path d="M 45.40625 46.390625 
L 45.40625 75.984375 
L 54.390625 75.984375 
L 54.390625 0 
L 45.40625 0 
L 45.40625 8.203125 
Q 42.578125 3.328125 38.25 0.953125 
Q 33.9375 -1.421875 27.875 -1.421875 
Q 17.96875 -1.421875 11.734375 6.484375 
Q 5.515625 14.40625 5.515625 27.296875 
Q 5.515625 40.1875 11.734375 48.09375 
Q 17.96875 56 27.875 56 
Q 33.9375 56 38.25 53.625 
Q 42.578125 51.265625 45.40625 46.390625 
z
M 14.796875 27.296875 
Q 14.796875 17.390625 18.875 11.75 
Q 22.953125 6.109375 30.078125 6.109375 
Q 37.203125 6.109375 41.296875 11.75 
Q 45.40625 17.390625 45.40625 27.296875 
Q 45.40625 37.203125 41.296875 42.84375 
Q 37.203125 48.484375 30.078125 48.484375 
Q 22.953125 48.484375 18.875 42.84375 
Q 14.796875 37.203125 14.796875 27.296875 
z
" id="DejaVuSans-100"/>
     </defs>
     <use xlink:href="#DejaVuSans-120"/>
     <use x="59.179688" xlink:href="#DejaVuSans-49"/>
     <use x="122.802734" xlink:href="#DejaVuSans-45"/>
     <use x="158.886719" xlink:href="#DejaVuSans-80"/>
     <use x="219.189453" xlink:href="#DejaVuSans-69"/>
     <use x="282.373047" xlink:href="#DejaVuSans-40"/>
     <use x="321.386719" xlink:href="#DejaVuSans-67"/>
     <use x="391.210938" xlink:href="#DejaVuSans-69"/>
     <use x="454.394531" xlink:href="#DejaVuSans-41"/>
     <use x="493.408203" xlink:href="#DejaVuSans-94"/>
     <use x="577.197266" xlink:href="#DejaVuSans-50"/>
     <use x="640.820312" xlink:href="#DejaVuSans-45"/>
     <use x="676.904297" xlink:href="#DejaVuSans-122"/>
     <use x="729.394531" xlink:href="#DejaVuSans-97"/>
     <use x="790.673828" xlink:href="#DejaVuSans-100"/>
     <use x="854.150391" xlink:href="#DejaVuSans-51"/>
    </g>
   </g>
   <g id="legend_1">
    <g id="patch_7">
     <path d="M 337.51875 57.238125 
L 381.8 57.238125 
Q 383.8 57.238125 383.8 55.238125 
L 383.8 41.56 
Q 383.8 39.56 381.8 39.56 
L 337.51875 39.56 
Q 335.51875 39.56 335.51875 41.56 
L 335.51875 55.238125 
Q 335.51875 57.238125 337.51875 57.238125 
z
" style="fill:#ffffff;opacity:0.8;stroke:#cccccc;stroke-linejoin:miter;"/>
    </g>
    <g id="line2d_14">
     <path d="M 339.51875 47.658437 
L 359.51875 47.658437 
" style="fill:none;stroke:#1f77b4;stroke-linecap:square;stroke-width:1.5;"/>
    </g>
    <g id="line2d_15"/>
    <g id="text_14">
     <!-- x1 -->
     <g transform="translate(367.51875 51.158437)scale(0.1 -0.1)">
      <use xlink:href="#DejaVuSans-120"/>
      <use x="59.179688" xlink:href="#DejaVuSans-49"/>
     </g>
    </g>
   </g>
  </g>
 </g>
 <defs>
  <clipPath id="pbb3507c185">
   <rect height="217.44" width="334.8" x="54" y="34.56"/>
  </clipPath>
 </defs>
</svg>
