<?xml version="1.0" encoding="utf-8" standalone="no"?>
<!DOCTYPE svg PUBLIC "-//W3C//DTD SVG 1.1//EN"
  "http://www.w3.org/Graphics/SVG/1.1/DTD/svg11.dtd">
<!-- Created with matplotlib (https://matplotlib.org/) -->
<svg height="288pt" version="1.1" viewBox="0 0 432 288" width="432pt" xmlns="http://www.w3.org/2000/svg" xmlns:xlink="http://www.w3.org/1999/xlink">
 <metadata>
  <rdf:RDF xmlns:cc="http://creativecommons.org/ns#" xmlns:dc="http://purl.org/dc/elements/1.1/" xmlns:rdf="http://www.w3.org/1999/02/22-rdf-syntax-ns#">
   <cc:Work>
    <dc:type rdf:resource="http://purl.org/dc/dcmitype/StillImage"/>
    <dc:date>2021-01-08T19:31:14.742808</dc:date>
    <dc:format>image/svg+xml</dc:format>
    <dc:creator>
     <cc:Agent>
      <dc:title>Matplotlib v3.3.2, https://matplotlib.org/</dc:title>
     </cc:Agent>
    </dc:creator>
   </cc:Work>
  </rdf:RDF>
 </metadata>
 <defs>
  <style type="text/css">*{stroke-linecap:butt;stroke-linejoin:round;}</style>
 </defs>
 <g id="figure_1">
  <g id="patch_1">
   <path d="M 0 288 
L 432 288 
L 432 0 
L 0 0 
z
" style="fill:none;"/>
  </g>
  <g id="axes_1">
   <g id="patch_2">
    <path d="M 54 252 
L 388.8 252 
L 388.8 34.56 
L 54 34.56 
z
" style="fill:#ffffff;"/>
   </g>
   <g id="matplotlib.axis_1">
    <g id="xtick_1">
     <g id="line2d_1">
      <defs>
       <path d="M 0 0 
L 0 3.5 
" id="mb09bc81ff5" style="stroke:#000000;stroke-width:0.8;"/>
      </defs>
      <g>
       <use style="stroke:#000000;stroke-width:0.8;" x="69.218182" xlink:href="#mb09bc81ff5" y="252"/>
      </g>
     </g>
     <g id="text_1">
      <!-- 0 -->
      <g transform="translate(66.036932 266.598437)scale(0.1 -0.1)">
       <defs>
        <path d="M 31.78125 66.40625 
Q 24.171875 66.40625 20.328125 58.90625 
Q 16.5 51.421875 16.5 36.375 
Q 16.5 21.390625 20.328125 13.890625 
Q 24.171875 6.390625 31.78125 6.390625 
Q 39.453125 6.390625 43.28125 13.890625 
Q 47.125 21.390625 47.125 36.375 
Q 47.125 51.421875 43.28125 58.90625 
Q 39.453125 66.40625 31.78125 66.40625 
z
M 31.78125 74.21875 
Q 44.046875 74.21875 50.515625 64.515625 
Q 56.984375 54.828125 56.984375 36.375 
Q 56.984375 17.96875 50.515625 8.265625 
Q 44.046875 -1.421875 31.78125 -1.421875 
Q 19.53125 -1.421875 13.0625 8.265625 
Q 6.59375 17.96875 6.59375 36.375 
Q 6.59375 54.828125 13.0625 64.515625 
Q 19.53125 74.21875 31.78125 74.21875 
z
" id="DejaVuSans-48"/>
       </defs>
       <use xlink:href="#DejaVuSans-48"/>
      </g>
     </g>
    </g>
    <g id="xtick_2">
     <g id="line2d_2">
      <g>
       <use style="stroke:#000000;stroke-width:0.8;" x="130.090909" xlink:href="#mb09bc81ff5" y="252"/>
      </g>
     </g>
     <g id="text_2">
      <!-- 2 -->
      <g transform="translate(126.909659 266.598437)scale(0.1 -0.1)">
       <defs>
        <path d="M 19.1875 8.296875 
L 53.609375 8.296875 
L 53.609375 0 
L 7.328125 0 
L 7.328125 8.296875 
Q 12.9375 14.109375 22.625 23.890625 
Q 32.328125 33.6875 34.8125 36.53125 
Q 39.546875 41.84375 41.421875 45.53125 
Q 43.3125 49.21875 43.3125 52.78125 
Q 43.3125 58.59375 39.234375 62.25 
Q 35.15625 65.921875 28.609375 65.921875 
Q 23.96875 65.921875 18.8125 64.3125 
Q 13.671875 62.703125 7.8125 59.421875 
L 7.8125 69.390625 
Q 13.765625 71.78125 18.9375 73 
Q 24.125 74.21875 28.421875 74.21875 
Q 39.75 74.21875 46.484375 68.546875 
Q 53.21875 62.890625 53.21875 53.421875 
Q 53.21875 48.921875 51.53125 44.890625 
Q 49.859375 40.875 45.40625 35.40625 
Q 44.1875 33.984375 37.640625 27.21875 
Q 31.109375 20.453125 19.1875 8.296875 
z
" id="DejaVuSans-50"/>
       </defs>
       <use xlink:href="#DejaVuSans-50"/>
      </g>
     </g>
    </g>
    <g id="xtick_3">
     <g id="line2d_3">
      <g>
       <use style="stroke:#000000;stroke-width:0.8;" x="190.963636" xlink:href="#mb09bc81ff5" y="252"/>
      </g>
     </g>
     <g id="text_3">
      <!-- 4 -->
      <g transform="translate(187.782386 266.598437)scale(0.1 -0.1)">
       <defs>
        <path d="M 37.796875 64.3125 
L 12.890625 25.390625 
L 37.796875 25.390625 
z
M 35.203125 72.90625 
L 47.609375 72.90625 
L 47.609375 25.390625 
L 58.015625 25.390625 
L 58.015625 17.1875 
L 47.609375 17.1875 
L 47.609375 0 
L 37.796875 0 
L 37.796875 17.1875 
L 4.890625 17.1875 
L 4.890625 26.703125 
z
" id="DejaVuSans-52"/>
       </defs>
       <use xlink:href="#DejaVuSans-52"/>
      </g>
     </g>
    </g>
    <g id="xtick_4">
     <g id="line2d_4">
      <g>
       <use style="stroke:#000000;stroke-width:0.8;" x="251.836364" xlink:href="#mb09bc81ff5" y="252"/>
      </g>
     </g>
     <g id="text_4">
      <!-- 6 -->
      <g transform="translate(248.655114 266.598437)scale(0.1 -0.1)">
       <defs>
        <path d="M 33.015625 40.375 
Q 26.375 40.375 22.484375 35.828125 
Q 18.609375 31.296875 18.609375 23.390625 
Q 18.609375 15.53125 22.484375 10.953125 
Q 26.375 6.390625 33.015625 6.390625 
Q 39.65625 6.390625 43.53125 10.953125 
Q 47.40625 15.53125 47.40625 23.390625 
Q 47.40625 31.296875 43.53125 35.828125 
Q 39.65625 40.375 33.015625 40.375 
z
M 52.59375 71.296875 
L 52.59375 62.3125 
Q 48.875 64.0625 45.09375 64.984375 
Q 41.3125 65.921875 37.59375 65.921875 
Q 27.828125 65.921875 22.671875 59.328125 
Q 17.53125 52.734375 16.796875 39.40625 
Q 19.671875 43.65625 24.015625 45.921875 
Q 28.375 48.1875 33.59375 48.1875 
Q 44.578125 48.1875 50.953125 41.515625 
Q 57.328125 34.859375 57.328125 23.390625 
Q 57.328125 12.15625 50.6875 5.359375 
Q 44.046875 -1.421875 33.015625 -1.421875 
Q 20.359375 -1.421875 13.671875 8.265625 
Q 6.984375 17.96875 6.984375 36.375 
Q 6.984375 53.65625 15.1875 63.9375 
Q 23.390625 74.21875 37.203125 74.21875 
Q 40.921875 74.21875 44.703125 73.484375 
Q 48.484375 72.75 52.59375 71.296875 
z
" id="DejaVuSans-54"/>
       </defs>
       <use xlink:href="#DejaVuSans-54"/>
      </g>
     </g>
    </g>
    <g id="xtick_5">
     <g id="line2d_5">
      <g>
       <use style="stroke:#000000;stroke-width:0.8;" x="312.709091" xlink:href="#mb09bc81ff5" y="252"/>
      </g>
     </g>
     <g id="text_5">
      <!-- 8 -->
      <g transform="translate(309.527841 266.598437)scale(0.1 -0.1)">
       <defs>
        <path d="M 31.78125 34.625 
Q 24.75 34.625 20.71875 30.859375 
Q 16.703125 27.09375 16.703125 20.515625 
Q 16.703125 13.921875 20.71875 10.15625 
Q 24.75 6.390625 31.78125 6.390625 
Q 38.8125 6.390625 42.859375 10.171875 
Q 46.921875 13.96875 46.921875 20.515625 
Q 46.921875 27.09375 42.890625 30.859375 
Q 38.875 34.625 31.78125 34.625 
z
M 21.921875 38.8125 
Q 15.578125 40.375 12.03125 44.71875 
Q 8.5 49.078125 8.5 55.328125 
Q 8.5 64.0625 14.71875 69.140625 
Q 20.953125 74.21875 31.78125 74.21875 
Q 42.671875 74.21875 48.875 69.140625 
Q 55.078125 64.0625 55.078125 55.328125 
Q 55.078125 49.078125 51.53125 44.71875 
Q 48 40.375 41.703125 38.8125 
Q 48.828125 37.15625 52.796875 32.3125 
Q 56.78125 27.484375 56.78125 20.515625 
Q 56.78125 9.90625 50.3125 4.234375 
Q 43.84375 -1.421875 31.78125 -1.421875 
Q 19.734375 -1.421875 13.25 4.234375 
Q 6.78125 9.90625 6.78125 20.515625 
Q 6.78125 27.484375 10.78125 32.3125 
Q 14.796875 37.15625 21.921875 38.8125 
z
M 18.3125 54.390625 
Q 18.3125 48.734375 21.84375 45.5625 
Q 25.390625 42.390625 31.78125 42.390625 
Q 38.140625 42.390625 41.71875 45.5625 
Q 45.3125 48.734375 45.3125 54.390625 
Q 45.3125 60.0625 41.71875 63.234375 
Q 38.140625 66.40625 31.78125 66.40625 
Q 25.390625 66.40625 21.84375 63.234375 
Q 18.3125 60.0625 18.3125 54.390625 
z
" id="DejaVuSans-56"/>
       </defs>
       <use xlink:href="#DejaVuSans-56"/>
      </g>
     </g>
    </g>
    <g id="xtick_6">
     <g id="line2d_6">
      <g>
       <use style="stroke:#000000;stroke-width:0.8;" x="373.581818" xlink:href="#mb09bc81ff5" y="252"/>
      </g>
     </g>
     <g id="text_6">
      <!-- 10 -->
      <g transform="translate(367.219318 266.598437)scale(0.1 -0.1)">
       <defs>
        <path d="M 12.40625 8.296875 
L 28.515625 8.296875 
L 28.515625 63.921875 
L 10.984375 60.40625 
L 10.984375 69.390625 
L 28.421875 72.90625 
L 38.28125 72.90625 
L 38.28125 8.296875 
L 54.390625 8.296875 
L 54.390625 0 
L 12.40625 0 
z
" id="DejaVuSans-49"/>
       </defs>
       <use xlink:href="#DejaVuSans-49"/>
       <use x="63.623047" xlink:href="#DejaVuSans-48"/>
      </g>
     </g>
    </g>
   </g>
   <g id="matplotlib.axis_2">
    <g id="ytick_1">
     <g id="line2d_7">
      <defs>
       <path d="M 0 0 
L -3.5 0 
" id="med00cc3a99" style="stroke:#000000;stroke-width:0.8;"/>
      </defs>
      <g>
       <use style="stroke:#000000;stroke-width:0.8;" x="54" xlink:href="#med00cc3a99" y="237.046478"/>
      </g>
     </g>
     <g id="text_7">
      <!-- −3 -->
      <g transform="translate(32.257812 240.845696)scale(0.1 -0.1)">
       <defs>
        <path d="M 10.59375 35.5 
L 73.1875 35.5 
L 73.1875 27.203125 
L 10.59375 27.203125 
z
" id="DejaVuSans-8722"/>
        <path d="M 40.578125 39.3125 
Q 47.65625 37.796875 51.625 33 
Q 55.609375 28.21875 55.609375 21.1875 
Q 55.609375 10.40625 48.1875 4.484375 
Q 40.765625 -1.421875 27.09375 -1.421875 
Q 22.515625 -1.421875 17.65625 -0.515625 
Q 12.796875 0.390625 7.625 2.203125 
L 7.625 11.71875 
Q 11.71875 9.328125 16.59375 8.109375 
Q 21.484375 6.890625 26.8125 6.890625 
Q 36.078125 6.890625 40.9375 10.546875 
Q 45.796875 14.203125 45.796875 21.1875 
Q 45.796875 27.640625 41.28125 31.265625 
Q 36.765625 34.90625 28.71875 34.90625 
L 20.21875 34.90625 
L 20.21875 43.015625 
L 29.109375 43.015625 
Q 36.375 43.015625 40.234375 45.921875 
Q 44.09375 48.828125 44.09375 54.296875 
Q 44.09375 59.90625 40.109375 62.90625 
Q 36.140625 65.921875 28.71875 65.921875 
Q 24.65625 65.921875 20.015625 65.03125 
Q 15.375 64.15625 9.8125 62.3125 
L 9.8125 71.09375 
Q 15.4375 72.65625 20.34375 73.4375 
Q 25.25 74.21875 29.59375 74.21875 
Q 40.828125 74.21875 47.359375 69.109375 
Q 53.90625 64.015625 53.90625 55.328125 
Q 53.90625 49.265625 50.4375 45.09375 
Q 46.96875 40.921875 40.578125 39.3125 
z
" id="DejaVuSans-51"/>
       </defs>
       <use xlink:href="#DejaVuSans-8722"/>
       <use x="83.789062" xlink:href="#DejaVuSans-51"/>
      </g>
     </g>
    </g>
    <g id="ytick_2">
     <g id="line2d_8">
      <g>
       <use style="stroke:#000000;stroke-width:0.8;" x="54" xlink:href="#med00cc3a99" y="205.791302"/>
      </g>
     </g>
     <g id="text_8">
      <!-- −2 -->
      <g transform="translate(32.257812 209.59052)scale(0.1 -0.1)">
       <use xlink:href="#DejaVuSans-8722"/>
       <use x="83.789062" xlink:href="#DejaVuSans-50"/>
      </g>
     </g>
    </g>
    <g id="ytick_3">
     <g id="line2d_9">
      <g>
       <use style="stroke:#000000;stroke-width:0.8;" x="54" xlink:href="#med00cc3a99" y="174.536125"/>
      </g>
     </g>
     <g id="text_9">
      <!-- −1 -->
      <g transform="translate(32.257812 178.335344)scale(0.1 -0.1)">
       <use xlink:href="#DejaVuSans-8722"/>
       <use x="83.789062" xlink:href="#DejaVuSans-49"/>
      </g>
     </g>
    </g>
    <g id="ytick_4">
     <g id="line2d_10">
      <g>
       <use style="stroke:#000000;stroke-width:0.8;" x="54" xlink:href="#med00cc3a99" y="143.280949"/>
      </g>
     </g>
     <g id="text_10">
      <!-- 0 -->
      <g transform="translate(40.6375 147.080168)scale(0.1 -0.1)">
       <use xlink:href="#DejaVuSans-48"/>
      </g>
     </g>
    </g>
    <g id="ytick_5">
     <g id="line2d_11">
      <g>
       <use style="stroke:#000000;stroke-width:0.8;" x="54" xlink:href="#med00cc3a99" y="112.025773"/>
      </g>
     </g>
     <g id="text_11">
      <!-- 1 -->
      <g transform="translate(40.6375 115.824992)scale(0.1 -0.1)">
       <use xlink:href="#DejaVuSans-49"/>
      </g>
     </g>
    </g>
    <g id="ytick_6">
     <g id="line2d_12">
      <g>
       <use style="stroke:#000000;stroke-width:0.8;" x="54" xlink:href="#med00cc3a99" y="80.770597"/>
      </g>
     </g>
     <g id="text_12">
      <!-- 2 -->
      <g transform="translate(40.6375 84.569816)scale(0.1 -0.1)">
       <use xlink:href="#DejaVuSans-50"/>
      </g>
     </g>
    </g>
    <g id="ytick_7">
     <g id="line2d_13">
      <g>
       <use style="stroke:#000000;stroke-width:0.8;" x="54" xlink:href="#med00cc3a99" y="49.515421"/>
      </g>
     </g>
     <g id="text_13">
      <!-- 3 -->
      <g transform="translate(40.6375 53.31464)scale(0.1 -0.1)">
       <use xlink:href="#DejaVuSans-51"/>
      </g>
     </g>
    </g>
   </g>
   <g id="line2d_14">
    <path clip-path="url(#pb06a03bca8)" d="M 69.218182 112.025773 
L 70.435636 77.979036 
L 71.348727 58.970294 
L 71.957455 50.40339 
L 72.566182 45.539215 
L 72.870545 44.56227 
L 73.174909 44.571688 
L 73.479273 45.567374 
L 73.783636 47.539381 
L 74.392364 54.323982 
L 75.001091 64.65501 
L 75.914182 85.865425 
L 77.131636 121.726695 
L 79.566545 197.459097 
L 80.479636 219.468618 
L 81.088364 230.458674 
L 81.697091 237.973235 
L 82.001455 240.327807 
L 82.305818 241.71272 
L 82.610182 242.114137 
L 82.914545 241.528047 
L 83.218909 239.960306 
L 83.523273 237.426578 
L 84.132 229.571827 
L 84.740727 218.276937 
L 85.653818 195.902538 
L 86.871273 159.168013 
L 89.001818 92.587173 
L 89.914909 69.777386 
L 90.523636 58.115239 
L 91.132364 49.848375 
L 91.741091 45.306366 
L 92.045455 44.494809 
L 92.349818 44.670289 
L 92.654182 45.831052 
L 92.958545 47.965501 
L 93.567273 55.060633 
L 94.176 65.672824 
L 95.089091 87.22583 
L 96.306545 123.351091 
L 98.741455 198.840916 
L 99.654545 220.516139 
L 100.263273 231.229124 
L 100.872 238.435898 
L 101.176364 240.628858 
L 101.480727 241.849151 
L 101.785091 242.084584 
L 102.089455 241.332807 
L 102.393818 239.601329 
L 103.002545 233.27809 
L 103.611273 223.366956 
L 104.524364 202.672628 
L 105.741818 167.219124 
L 108.481091 83.044262 
L 109.394182 62.577518 
L 110.002909 52.850228 
L 110.611636 46.728119 
L 110.916 45.101201 
L 111.220364 44.455261 
L 111.524727 44.796753 
L 111.829091 46.122265 
L 112.133455 48.418553 
L 112.742182 55.82221 
L 113.350909 66.712566 
L 114.264 88.602072 
L 115.481455 124.981116 
L 117.916364 200.207035 
L 118.829455 221.541836 
L 119.438182 231.974723 
L 120.046909 238.871674 
L 120.351273 240.902402 
L 120.655636 241.957731 
L 120.96 242.027115 
L 121.264364 241.109862 
L 121.568727 239.215137 
L 122.177455 232.578571 
L 122.786182 222.381998 
L 123.699273 201.336277 
L 124.916727 165.603869 
L 127.351636 89.763941 
L 128.264727 67.597991 
L 128.873455 56.477556 
L 129.482182 48.817694 
L 129.786545 46.386668 
L 130.090909 44.923777 
L 130.395273 44.443636 
L 130.699636 44.951044 
L 131.004 46.44093 
L 131.308364 48.898407 
L 131.917091 56.608498 
L 132.525818 67.773941 
L 133.438909 89.993763 
L 134.656364 126.61631 
L 137.091273 201.557068 
L 138.004364 222.54542 
L 138.613091 232.69526 
L 139.221818 239.28044 
L 139.526182 241.148364 
L 139.830545 242.03843 
L 140.134909 241.941745 
L 140.439273 240.859276 
L 140.743636 238.801839 
L 141.352364 231.853822 
L 141.961091 221.374691 
L 142.874182 199.983523 
L 144.091636 163.982308 
L 146.526545 88.374811 
L 147.439636 66.540219 
L 148.048364 55.695392 
L 148.657091 48.342319 
L 148.961455 46.072595 
L 149.265818 44.774144 
L 149.570182 44.459938 
L 149.874545 45.133118 
L 150.178909 46.786956 
L 150.787636 52.960879 
L 151.396364 62.735572 
L 152.309455 83.26108 
L 153.526909 118.578685 
L 156.266182 202.890634 
L 157.179273 223.526606 
L 157.788 233.390533 
L 158.396727 239.662082 
L 158.701091 241.366672 
L 159.005455 242.091224 
L 159.309818 241.828498 
L 159.614182 240.58112 
L 159.918545 238.361551 
L 160.527273 231.104047 
L 161.136 220.345319 
L 162.049091 198.614749 
L 163.266545 162.354899 
L 165.701455 87.001196 
L 166.614545 65.50413 
L 167.223273 54.937975 
L 167.832 47.89377 
L 168.136364 45.785989 
L 168.440727 44.652344 
L 168.745091 44.504162 
L 169.049455 45.342923 
L 169.353818 47.160247 
L 169.962545 53.648355 
L 170.571273 63.709825 
L 171.484364 84.589514 
L 172.701818 120.190786 
L 175.441091 204.207356 
L 176.354182 224.485119 
L 176.962909 234.060345 
L 177.571636 240.01649 
L 177.876 241.557266 
L 178.180364 242.1161 
L 178.484727 241.687407 
L 178.789091 240.275471 
L 179.093455 237.894399 
L 179.702182 230.329458 
L 180.310909 219.294174 
L 181.224 197.230342 
L 182.441455 160.722102 
L 184.876364 85.643483 
L 185.789455 64.490019 
L 186.398182 54.205521 
L 187.006909 47.472173 
L 187.311273 45.52693 
L 187.615636 44.558412 
L 187.92 44.576295 
L 188.224364 45.580401 
L 188.528727 47.560697 
L 189.137455 54.361156 
L 189.746182 64.706561 
L 190.659273 85.93453 
L 191.876727 121.80941 
L 194.311636 197.529768 
L 195.224727 219.52234 
L 195.833455 230.498319 
L 196.442182 237.997222 
L 196.746545 240.343565 
L 197.050909 241.720092 
L 197.355273 242.11305 
L 197.659636 241.518511 
L 197.964 239.942417 
L 198.268364 237.400514 
L 198.877091 229.530274 
L 199.485818 218.221552 
L 200.398909 195.830692 
L 201.616364 159.084378 
L 203.746909 92.514623 
L 204.66 69.720988 
L 205.268727 58.072517 
L 205.877455 49.821031 
L 206.486182 45.295492 
L 206.790545 44.492374 
L 207.094909 44.676318 
L 207.399273 45.845484 
L 207.703636 47.988192 
L 208.312364 55.099081 
L 208.921091 65.725497 
L 209.834182 87.295748 
L 211.051636 123.4341 
L 213.486545 198.910792 
L 214.399636 220.568753 
L 215.008364 231.267505 
L 215.617091 238.458516 
L 215.921455 240.643215 
L 216.225818 241.855104 
L 216.530182 242.082074 
L 216.834545 241.321858 
L 217.138909 239.582051 
L 217.747636 233.242813 
L 218.356364 223.317085 
L 219.269455 202.604757 
L 220.486909 167.136885 
L 223.226182 82.977298 
L 224.139273 62.528867 
L 224.748 52.816318 
L 225.356727 46.710304 
L 225.661091 45.09174 
L 225.965455 44.454249 
L 226.269818 44.804201 
L 226.574182 46.138097 
L 226.878545 48.442612 
L 227.487273 55.861921 
L 228.096 66.766346 
L 229.009091 88.672784 
L 230.226545 125.064395 
L 232.661455 200.276097 
L 233.574545 221.593328 
L 234.183273 232.01183 
L 234.792 238.892917 
L 235.096364 240.915355 
L 235.400727 241.962263 
L 235.705091 242.023182 
L 236.009455 241.097503 
L 236.313818 239.194475 
L 236.922545 232.542005 
L 237.531273 222.330984 
L 238.444364 201.267564 
L 239.661818 165.521302 
L 242.096727 89.692901 
L 243.009818 67.543748 
L 243.618545 56.437316 
L 244.227273 48.79306 
L 244.531636 46.370247 
L 244.836 44.915732 
L 245.140364 44.444048 
L 245.444727 44.959908 
L 245.749091 46.458158 
L 246.053455 48.923828 
L 246.662182 56.649461 
L 247.270909 67.828813 
L 248.184 90.065248 
L 249.401455 126.699836 
L 251.836364 201.625296 
L 252.749455 222.595774 
L 253.358182 232.731082 
L 253.966909 239.300302 
L 254.271273 241.159907 
L 254.575636 242.04154 
L 254.88 241.936391 
L 255.184364 240.845511 
L 255.488727 238.779799 
L 256.097455 231.815977 
L 256.706182 221.322548 
L 257.619273 199.913988 
L 258.836727 163.899435 
L 261.271636 88.304556 
L 262.184727 66.487077 
L 262.793455 55.656409 
L 263.402182 48.319051 
L 263.706545 46.057573 
L 264.010909 44.767517 
L 264.315273 44.461773 
L 264.619636 45.143397 
L 264.924 46.805576 
L 265.532727 52.995541 
L 266.141455 62.784894 
L 267.054545 83.328545 
L 268.272 118.66076 
L 271.011273 202.958009 
L 271.924364 223.575809 
L 272.533091 233.425061 
L 273.141818 239.680557 
L 273.446182 241.376804 
L 273.750545 242.092911 
L 274.054909 241.821724 
L 274.359273 240.565951 
L 274.663636 238.338141 
L 275.272364 231.064934 
L 275.881091 220.292062 
L 276.794182 198.544411 
L 278.011636 162.271745 
L 280.446545 86.931745 
L 281.359636 65.452104 
L 281.968364 54.900262 
L 282.577091 47.871873 
L 282.881455 45.772369 
L 283.185818 44.647137 
L 283.490182 44.50742 
L 283.794545 45.354614 
L 284.098909 47.180253 
L 284.707636 53.684311 
L 285.316364 63.760298 
L 286.229455 84.65783 
L 287.446909 120.273201 
L 290.186182 204.273859 
L 291.099273 224.533155 
L 291.708 234.093568 
L 292.316727 240.033573 
L 292.621091 241.565983 
L 292.925455 242.116364 
L 293.229818 241.679215 
L 293.534182 240.258904 
L 293.838545 237.869624 
L 294.447273 230.289088 
L 295.056 219.239818 
L 295.969091 197.159221 
L 297.186545 160.63869 
L 299.621455 85.574858 
L 300.534545 64.439124 
L 301.143273 54.169088 
L 301.752 47.451655 
L 302.056364 45.514718 
L 302.360727 44.554627 
L 302.665091 44.580975 
L 302.969455 45.5935 
L 303.273818 47.582083 
L 303.882545 54.398396 
L 304.491273 64.75817 
L 305.404364 86.003677 
L 306.621818 121.89214 
L 309.056727 197.600398 
L 309.969818 219.576006 
L 310.578545 230.5379 
L 311.187273 238.021139 
L 311.491636 240.359252 
L 311.796 241.727392 
L 312.100364 242.11189 
L 312.404727 241.508903 
L 312.709091 239.924456 
L 313.013455 237.374381 
L 313.622182 229.488658 
L 314.230909 218.166112 
L 315.144 195.758809 
L 316.361455 159.000732 
L 318.492 92.442111 
L 319.405091 69.664644 
L 320.013818 58.029857 
L 320.622545 49.793757 
L 321.231273 45.28469 
L 321.535636 44.490012 
L 321.84 44.682418 
L 322.144364 45.859987 
L 322.448727 48.010952 
L 323.057455 55.137594 
L 323.666182 65.778227 
L 324.579273 87.365708 
L 325.796727 123.517122 
L 328.231636 198.980627 
L 329.144727 220.621311 
L 329.753455 231.305821 
L 330.362182 238.481064 
L 330.666545 240.657501 
L 330.970909 241.860985 
L 331.275273 242.079491 
L 331.579636 241.310837 
L 331.884 239.562702 
L 332.492727 233.20747 
L 333.101455 223.267157 
L 334.014545 202.536843 
L 335.232 167.054629 
L 337.971273 82.910379 
L 338.884364 62.480276 
L 339.493091 52.782476 
L 340.101818 46.692559 
L 340.406182 45.082351 
L 340.710545 44.45331 
L 341.014909 44.81172 
L 341.319273 46.154001 
L 341.623636 48.46674 
L 342.232364 55.901697 
L 342.841091 66.820183 
L 343.754182 88.743536 
L 344.971636 125.147687 
L 347.406545 200.345116 
L 348.319636 221.644761 
L 348.928364 232.048871 
L 349.537091 238.91409 
L 349.841455 240.928235 
L 350.145818 241.966723 
L 350.450182 242.019177 
L 350.754545 241.085072 
L 351.058909 239.173743 
L 351.667636 232.505373 
L 352.276364 222.279913 
L 353.189455 201.198809 
L 354.406909 165.438719 
L 356.841818 89.6219 
L 357.754909 67.489561 
L 358.363636 56.397139 
L 358.972364 48.768496 
L 359.276727 46.353897 
L 359.581091 44.907759 
L 359.885455 44.444532 
L 360.189818 44.968845 
L 360.494182 46.475458 
L 360.798545 48.949317 
L 361.407273 56.690488 
L 362.016 67.883741 
L 362.929091 90.136772 
L 364.146545 126.783374 
L 366.581455 201.693481 
L 367.494545 222.646069 
L 368.103273 232.766839 
L 368.712 239.320094 
L 369.016364 241.171379 
L 369.320727 242.044577 
L 369.625091 241.930964 
L 369.929455 240.831674 
L 370.233818 238.75769 
L 370.842545 231.778067 
L 371.451273 221.270348 
L 372.364364 199.844412 
L 373.581818 163.816549 
L 373.581818 163.816549 
" style="fill:none;stroke:#1f77b4;stroke-linecap:square;stroke-width:1.5;"/>
   </g>
   <g id="patch_3">
    <path d="M 54 252 
L 54 34.56 
" style="fill:none;stroke:#000000;stroke-linecap:square;stroke-linejoin:miter;stroke-width:0.8;"/>
   </g>
   <g id="patch_4">
    <path d="M 388.8 252 
L 388.8 34.56 
" style="fill:none;stroke:#000000;stroke-linecap:square;stroke-linejoin:miter;stroke-width:0.8;"/>
   </g>
   <g id="patch_5">
    <path d="M 54 252 
L 388.8 252 
" style="fill:none;stroke:#000000;stroke-linecap:square;stroke-linejoin:miter;stroke-width:0.8;"/>
   </g>
   <g id="patch_6">
    <path d="M 54 34.56 
L 388.8 34.56 
" style="fill:none;stroke:#000000;stroke-linecap:square;stroke-linejoin:miter;stroke-width:0.8;"/>
   </g>
   <g id="text_14">
    <!-- x1-Runge-Kutta-zad3 -->
    <g transform="translate(158.26125 28.56)scale(0.12 -0.12)">
     <defs>
      <path d="M 54.890625 54.6875 
L 35.109375 28.078125 
L 55.90625 0 
L 45.3125 0 
L 29.390625 21.484375 
L 13.484375 0 
L 2.875 0 
L 24.125 28.609375 
L 4.6875 54.6875 
L 15.28125 54.6875 
L 29.78125 35.203125 
L 44.28125 54.6875 
z
" id="DejaVuSans-120"/>
      <path d="M 4.890625 31.390625 
L 31.203125 31.390625 
L 31.203125 23.390625 
L 4.890625 23.390625 
z
" id="DejaVuSans-45"/>
      <path d="M 44.390625 34.1875 
Q 47.5625 33.109375 50.5625 29.59375 
Q 53.5625 26.078125 56.59375 19.921875 
L 66.609375 0 
L 56 0 
L 46.6875 18.703125 
Q 43.0625 26.03125 39.671875 28.421875 
Q 36.28125 30.8125 30.421875 30.8125 
L 19.671875 30.8125 
L 19.671875 0 
L 9.8125 0 
L 9.8125 72.90625 
L 32.078125 72.90625 
Q 44.578125 72.90625 50.734375 67.671875 
Q 56.890625 62.453125 56.890625 51.90625 
Q 56.890625 45.015625 53.6875 40.46875 
Q 50.484375 35.9375 44.390625 34.1875 
z
M 19.671875 64.796875 
L 19.671875 38.921875 
L 32.078125 38.921875 
Q 39.203125 38.921875 42.84375 42.21875 
Q 46.484375 45.515625 46.484375 51.90625 
Q 46.484375 58.296875 42.84375 61.546875 
Q 39.203125 64.796875 32.078125 64.796875 
z
" id="DejaVuSans-82"/>
      <path d="M 8.5 21.578125 
L 8.5 54.6875 
L 17.484375 54.6875 
L 17.484375 21.921875 
Q 17.484375 14.15625 20.5 10.265625 
Q 23.53125 6.390625 29.59375 6.390625 
Q 36.859375 6.390625 41.078125 11.03125 
Q 45.3125 15.671875 45.3125 23.6875 
L 45.3125 54.6875 
L 54.296875 54.6875 
L 54.296875 0 
L 45.3125 0 
L 45.3125 8.40625 
Q 42.046875 3.421875 37.71875 1 
Q 33.40625 -1.421875 27.6875 -1.421875 
Q 18.265625 -1.421875 13.375 4.4375 
Q 8.5 10.296875 8.5 21.578125 
z
M 31.109375 56 
z
" id="DejaVuSans-117"/>
      <path d="M 54.890625 33.015625 
L 54.890625 0 
L 45.90625 0 
L 45.90625 32.71875 
Q 45.90625 40.484375 42.875 44.328125 
Q 39.84375 48.1875 33.796875 48.1875 
Q 26.515625 48.1875 22.3125 43.546875 
Q 18.109375 38.921875 18.109375 30.90625 
L 18.109375 0 
L 9.078125 0 
L 9.078125 54.6875 
L 18.109375 54.6875 
L 18.109375 46.1875 
Q 21.34375 51.125 25.703125 53.5625 
Q 30.078125 56 35.796875 56 
Q 45.21875 56 50.046875 50.171875 
Q 54.890625 44.34375 54.890625 33.015625 
z
" id="DejaVuSans-110"/>
      <path d="M 45.40625 27.984375 
Q 45.40625 37.75 41.375 43.109375 
Q 37.359375 48.484375 30.078125 48.484375 
Q 22.859375 48.484375 18.828125 43.109375 
Q 14.796875 37.75 14.796875 27.984375 
Q 14.796875 18.265625 18.828125 12.890625 
Q 22.859375 7.515625 30.078125 7.515625 
Q 37.359375 7.515625 41.375 12.890625 
Q 45.40625 18.265625 45.40625 27.984375 
z
M 54.390625 6.78125 
Q 54.390625 -7.171875 48.1875 -13.984375 
Q 42 -20.796875 29.203125 -20.796875 
Q 24.46875 -20.796875 20.265625 -20.09375 
Q 16.0625 -19.390625 12.109375 -17.921875 
L 12.109375 -9.1875 
Q 16.0625 -11.328125 19.921875 -12.34375 
Q 23.78125 -13.375 27.78125 -13.375 
Q 36.625 -13.375 41.015625 -8.765625 
Q 45.40625 -4.15625 45.40625 5.171875 
L 45.40625 9.625 
Q 42.625 4.78125 38.28125 2.390625 
Q 33.9375 0 27.875 0 
Q 17.828125 0 11.671875 7.65625 
Q 5.515625 15.328125 5.515625 27.984375 
Q 5.515625 40.671875 11.671875 48.328125 
Q 17.828125 56 27.875 56 
Q 33.9375 56 38.28125 53.609375 
Q 42.625 51.21875 45.40625 46.390625 
L 45.40625 54.6875 
L 54.390625 54.6875 
z
" id="DejaVuSans-103"/>
      <path d="M 56.203125 29.59375 
L 56.203125 25.203125 
L 14.890625 25.203125 
Q 15.484375 15.921875 20.484375 11.0625 
Q 25.484375 6.203125 34.421875 6.203125 
Q 39.59375 6.203125 44.453125 7.46875 
Q 49.3125 8.734375 54.109375 11.28125 
L 54.109375 2.78125 
Q 49.265625 0.734375 44.1875 -0.34375 
Q 39.109375 -1.421875 33.890625 -1.421875 
Q 20.796875 -1.421875 13.15625 6.1875 
Q 5.515625 13.8125 5.515625 26.8125 
Q 5.515625 40.234375 12.765625 48.109375 
Q 20.015625 56 32.328125 56 
Q 43.359375 56 49.78125 48.890625 
Q 56.203125 41.796875 56.203125 29.59375 
z
M 47.21875 32.234375 
Q 47.125 39.59375 43.09375 43.984375 
Q 39.0625 48.390625 32.421875 48.390625 
Q 24.90625 48.390625 20.390625 44.140625 
Q 15.875 39.890625 15.1875 32.171875 
z
" id="DejaVuSans-101"/>
      <path d="M 9.8125 72.90625 
L 19.671875 72.90625 
L 19.671875 42.09375 
L 52.390625 72.90625 
L 65.09375 72.90625 
L 28.90625 38.921875 
L 67.671875 0 
L 54.6875 0 
L 19.671875 35.109375 
L 19.671875 0 
L 9.8125 0 
z
" id="DejaVuSans-75"/>
      <path d="M 18.3125 70.21875 
L 18.3125 54.6875 
L 36.8125 54.6875 
L 36.8125 47.703125 
L 18.3125 47.703125 
L 18.3125 18.015625 
Q 18.3125 11.328125 20.140625 9.421875 
Q 21.96875 7.515625 27.59375 7.515625 
L 36.8125 7.515625 
L 36.8125 0 
L 27.59375 0 
Q 17.1875 0 13.234375 3.875 
Q 9.28125 7.765625 9.28125 18.015625 
L 9.28125 47.703125 
L 2.6875 47.703125 
L 2.6875 54.6875 
L 9.28125 54.6875 
L 9.28125 70.21875 
z
" id="DejaVuSans-116"/>
      <path d="M 34.28125 27.484375 
Q 23.390625 27.484375 19.1875 25 
Q 14.984375 22.515625 14.984375 16.5 
Q 14.984375 11.71875 18.140625 8.90625 
Q 21.296875 6.109375 26.703125 6.109375 
Q 34.1875 6.109375 38.703125 11.40625 
Q 43.21875 16.703125 43.21875 25.484375 
L 43.21875 27.484375 
z
M 52.203125 31.203125 
L 52.203125 0 
L 43.21875 0 
L 43.21875 8.296875 
Q 40.140625 3.328125 35.546875 0.953125 
Q 30.953125 -1.421875 24.3125 -1.421875 
Q 15.921875 -1.421875 10.953125 3.296875 
Q 6 8.015625 6 15.921875 
Q 6 25.140625 12.171875 29.828125 
Q 18.359375 34.515625 30.609375 34.515625 
L 43.21875 34.515625 
L 43.21875 35.40625 
Q 43.21875 41.609375 39.140625 45 
Q 35.0625 48.390625 27.6875 48.390625 
Q 23 48.390625 18.546875 47.265625 
Q 14.109375 46.140625 10.015625 43.890625 
L 10.015625 52.203125 
Q 14.9375 54.109375 19.578125 55.046875 
Q 24.21875 56 28.609375 56 
Q 40.484375 56 46.34375 49.84375 
Q 52.203125 43.703125 52.203125 31.203125 
z
" id="DejaVuSans-97"/>
      <path d="M 5.515625 54.6875 
L 48.1875 54.6875 
L 48.1875 46.484375 
L 14.40625 7.171875 
L 48.1875 7.171875 
L 48.1875 0 
L 4.296875 0 
L 4.296875 8.203125 
L 38.09375 47.515625 
L 5.515625 47.515625 
z
" id="DejaVuSans-122"/>
      <path d="M 45.40625 46.390625 
L 45.40625 75.984375 
L 54.390625 75.984375 
L 54.390625 0 
L 45.40625 0 
L 45.40625 8.203125 
Q 42.578125 3.328125 38.25 0.953125 
Q 33.9375 -1.421875 27.875 -1.421875 
Q 17.96875 -1.421875 11.734375 6.484375 
Q 5.515625 14.40625 5.515625 27.296875 
Q 5.515625 40.1875 11.734375 48.09375 
Q 17.96875 56 27.875 56 
Q 33.9375 56 38.25 53.625 
Q 42.578125 51.265625 45.40625 46.390625 
z
M 14.796875 27.296875 
Q 14.796875 17.390625 18.875 11.75 
Q 22.953125 6.109375 30.078125 6.109375 
Q 37.203125 6.109375 41.296875 11.75 
Q 45.40625 17.390625 45.40625 27.296875 
Q 45.40625 37.203125 41.296875 42.84375 
Q 37.203125 48.484375 30.078125 48.484375 
Q 22.953125 48.484375 18.875 42.84375 
Q 14.796875 37.203125 14.796875 27.296875 
z
" id="DejaVuSans-100"/>
     </defs>
     <use xlink:href="#DejaVuSans-120"/>
     <use x="59.179688" xlink:href="#DejaVuSans-49"/>
     <use x="122.802734" xlink:href="#DejaVuSans-45"/>
     <use x="158.886719" xlink:href="#DejaVuSans-82"/>
     <use x="223.869141" xlink:href="#DejaVuSans-117"/>
     <use x="287.248047" xlink:href="#DejaVuSans-110"/>
     <use x="350.626953" xlink:href="#DejaVuSans-103"/>
     <use x="414.103516" xlink:href="#DejaVuSans-101"/>
     <use x="475.626953" xlink:href="#DejaVuSans-45"/>
     <use x="511.710938" xlink:href="#DejaVuSans-75"/>
     <use x="572.287109" xlink:href="#DejaVuSans-117"/>
     <use x="635.666016" xlink:href="#DejaVuSans-116"/>
     <use x="674.875" xlink:href="#DejaVuSans-116"/>
     <use x="714.083984" xlink:href="#DejaVuSans-97"/>
     <use x="775.363281" xlink:href="#DejaVuSans-45"/>
     <use x="811.447266" xlink:href="#DejaVuSans-122"/>
     <use x="863.9375" xlink:href="#DejaVuSans-97"/>
     <use x="925.216797" xlink:href="#DejaVuSans-100"/>
     <use x="988.693359" xlink:href="#DejaVuSans-51"/>
    </g>
   </g>
   <g id="legend_1">
    <g id="patch_7">
     <path d="M 61 152.119062 
L 105.28125 152.119062 
Q 107.28125 152.119062 107.28125 150.119062 
L 107.28125 136.440937 
Q 107.28125 134.440937 105.28125 134.440937 
L 61 134.440937 
Q 59 134.440937 59 136.440937 
L 59 150.119062 
Q 59 152.119062 61 152.119062 
z
" style="fill:#ffffff;opacity:0.8;stroke:#cccccc;stroke-linejoin:miter;"/>
    </g>
    <g id="line2d_15">
     <path d="M 63 142.539375 
L 83 142.539375 
" style="fill:none;stroke:#1f77b4;stroke-linecap:square;stroke-width:1.5;"/>
    </g>
    <g id="line2d_16"/>
    <g id="text_15">
     <!-- x1 -->
     <g transform="translate(91 146.039375)scale(0.1 -0.1)">
      <use xlink:href="#DejaVuSans-120"/>
      <use x="59.179688" xlink:href="#DejaVuSans-49"/>
     </g>
    </g>
   </g>
  </g>
 </g>
 <defs>
  <clipPath id="pb06a03bca8">
   <rect height="217.44" width="334.8" x="54" y="34.56"/>
  </clipPath>
 </defs>
</svg>
