<?xml version="1.0" encoding="utf-8" standalone="no"?>
<!DOCTYPE svg PUBLIC "-//W3C//DTD SVG 1.1//EN"
  "http://www.w3.org/Graphics/SVG/1.1/DTD/svg11.dtd">
<!-- Created with matplotlib (https://matplotlib.org/) -->
<svg height="288pt" version="1.1" viewBox="0 0 432 288" width="432pt" xmlns="http://www.w3.org/2000/svg" xmlns:xlink="http://www.w3.org/1999/xlink">
 <metadata>
  <rdf:RDF xmlns:cc="http://creativecommons.org/ns#" xmlns:dc="http://purl.org/dc/elements/1.1/" xmlns:rdf="http://www.w3.org/1999/02/22-rdf-syntax-ns#">
   <cc:Work>
    <dc:type rdf:resource="http://purl.org/dc/dcmitype/StillImage"/>
    <dc:date>2021-01-08T19:31:14.994939</dc:date>
    <dc:format>image/svg+xml</dc:format>
    <dc:creator>
     <cc:Agent>
      <dc:title>Matplotlib v3.3.2, https://matplotlib.org/</dc:title>
     </cc:Agent>
    </dc:creator>
   </cc:Work>
  </rdf:RDF>
 </metadata>
 <defs>
  <style type="text/css">*{stroke-linecap:butt;stroke-linejoin:round;}</style>
 </defs>
 <g id="figure_1">
  <g id="patch_1">
   <path d="M 0 288 
L 432 288 
L 432 0 
L 0 0 
z
" style="fill:none;"/>
  </g>
  <g id="axes_1">
   <g id="patch_2">
    <path d="M 54 252 
L 388.8 252 
L 388.8 34.56 
L 54 34.56 
z
" style="fill:#ffffff;"/>
   </g>
   <g id="matplotlib.axis_1">
    <g id="xtick_1">
     <g id="line2d_1">
      <defs>
       <path d="M 0 0 
L 0 3.5 
" id="md2ed180840" style="stroke:#000000;stroke-width:0.8;"/>
      </defs>
      <g>
       <use style="stroke:#000000;stroke-width:0.8;" x="69.218182" xlink:href="#md2ed180840" y="252"/>
      </g>
     </g>
     <g id="text_1">
      <!-- 0 -->
      <g transform="translate(66.036932 266.598437)scale(0.1 -0.1)">
       <defs>
        <path d="M 31.78125 66.40625 
Q 24.171875 66.40625 20.328125 58.90625 
Q 16.5 51.421875 16.5 36.375 
Q 16.5 21.390625 20.328125 13.890625 
Q 24.171875 6.390625 31.78125 6.390625 
Q 39.453125 6.390625 43.28125 13.890625 
Q 47.125 21.390625 47.125 36.375 
Q 47.125 51.421875 43.28125 58.90625 
Q 39.453125 66.40625 31.78125 66.40625 
z
M 31.78125 74.21875 
Q 44.046875 74.21875 50.515625 64.515625 
Q 56.984375 54.828125 56.984375 36.375 
Q 56.984375 17.96875 50.515625 8.265625 
Q 44.046875 -1.421875 31.78125 -1.421875 
Q 19.53125 -1.421875 13.0625 8.265625 
Q 6.59375 17.96875 6.59375 36.375 
Q 6.59375 54.828125 13.0625 64.515625 
Q 19.53125 74.21875 31.78125 74.21875 
z
" id="DejaVuSans-48"/>
       </defs>
       <use xlink:href="#DejaVuSans-48"/>
      </g>
     </g>
    </g>
    <g id="xtick_2">
     <g id="line2d_2">
      <g>
       <use style="stroke:#000000;stroke-width:0.8;" x="130.090909" xlink:href="#md2ed180840" y="252"/>
      </g>
     </g>
     <g id="text_2">
      <!-- 2 -->
      <g transform="translate(126.909659 266.598437)scale(0.1 -0.1)">
       <defs>
        <path d="M 19.1875 8.296875 
L 53.609375 8.296875 
L 53.609375 0 
L 7.328125 0 
L 7.328125 8.296875 
Q 12.9375 14.109375 22.625 23.890625 
Q 32.328125 33.6875 34.8125 36.53125 
Q 39.546875 41.84375 41.421875 45.53125 
Q 43.3125 49.21875 43.3125 52.78125 
Q 43.3125 58.59375 39.234375 62.25 
Q 35.15625 65.921875 28.609375 65.921875 
Q 23.96875 65.921875 18.8125 64.3125 
Q 13.671875 62.703125 7.8125 59.421875 
L 7.8125 69.390625 
Q 13.765625 71.78125 18.9375 73 
Q 24.125 74.21875 28.421875 74.21875 
Q 39.75 74.21875 46.484375 68.546875 
Q 53.21875 62.890625 53.21875 53.421875 
Q 53.21875 48.921875 51.53125 44.890625 
Q 49.859375 40.875 45.40625 35.40625 
Q 44.1875 33.984375 37.640625 27.21875 
Q 31.109375 20.453125 19.1875 8.296875 
z
" id="DejaVuSans-50"/>
       </defs>
       <use xlink:href="#DejaVuSans-50"/>
      </g>
     </g>
    </g>
    <g id="xtick_3">
     <g id="line2d_3">
      <g>
       <use style="stroke:#000000;stroke-width:0.8;" x="190.963636" xlink:href="#md2ed180840" y="252"/>
      </g>
     </g>
     <g id="text_3">
      <!-- 4 -->
      <g transform="translate(187.782386 266.598437)scale(0.1 -0.1)">
       <defs>
        <path d="M 37.796875 64.3125 
L 12.890625 25.390625 
L 37.796875 25.390625 
z
M 35.203125 72.90625 
L 47.609375 72.90625 
L 47.609375 25.390625 
L 58.015625 25.390625 
L 58.015625 17.1875 
L 47.609375 17.1875 
L 47.609375 0 
L 37.796875 0 
L 37.796875 17.1875 
L 4.890625 17.1875 
L 4.890625 26.703125 
z
" id="DejaVuSans-52"/>
       </defs>
       <use xlink:href="#DejaVuSans-52"/>
      </g>
     </g>
    </g>
    <g id="xtick_4">
     <g id="line2d_4">
      <g>
       <use style="stroke:#000000;stroke-width:0.8;" x="251.836364" xlink:href="#md2ed180840" y="252"/>
      </g>
     </g>
     <g id="text_4">
      <!-- 6 -->
      <g transform="translate(248.655114 266.598437)scale(0.1 -0.1)">
       <defs>
        <path d="M 33.015625 40.375 
Q 26.375 40.375 22.484375 35.828125 
Q 18.609375 31.296875 18.609375 23.390625 
Q 18.609375 15.53125 22.484375 10.953125 
Q 26.375 6.390625 33.015625 6.390625 
Q 39.65625 6.390625 43.53125 10.953125 
Q 47.40625 15.53125 47.40625 23.390625 
Q 47.40625 31.296875 43.53125 35.828125 
Q 39.65625 40.375 33.015625 40.375 
z
M 52.59375 71.296875 
L 52.59375 62.3125 
Q 48.875 64.0625 45.09375 64.984375 
Q 41.3125 65.921875 37.59375 65.921875 
Q 27.828125 65.921875 22.671875 59.328125 
Q 17.53125 52.734375 16.796875 39.40625 
Q 19.671875 43.65625 24.015625 45.921875 
Q 28.375 48.1875 33.59375 48.1875 
Q 44.578125 48.1875 50.953125 41.515625 
Q 57.328125 34.859375 57.328125 23.390625 
Q 57.328125 12.15625 50.6875 5.359375 
Q 44.046875 -1.421875 33.015625 -1.421875 
Q 20.359375 -1.421875 13.671875 8.265625 
Q 6.984375 17.96875 6.984375 36.375 
Q 6.984375 53.65625 15.1875 63.9375 
Q 23.390625 74.21875 37.203125 74.21875 
Q 40.921875 74.21875 44.703125 73.484375 
Q 48.484375 72.75 52.59375 71.296875 
z
" id="DejaVuSans-54"/>
       </defs>
       <use xlink:href="#DejaVuSans-54"/>
      </g>
     </g>
    </g>
    <g id="xtick_5">
     <g id="line2d_5">
      <g>
       <use style="stroke:#000000;stroke-width:0.8;" x="312.709091" xlink:href="#md2ed180840" y="252"/>
      </g>
     </g>
     <g id="text_5">
      <!-- 8 -->
      <g transform="translate(309.527841 266.598437)scale(0.1 -0.1)">
       <defs>
        <path d="M 31.78125 34.625 
Q 24.75 34.625 20.71875 30.859375 
Q 16.703125 27.09375 16.703125 20.515625 
Q 16.703125 13.921875 20.71875 10.15625 
Q 24.75 6.390625 31.78125 6.390625 
Q 38.8125 6.390625 42.859375 10.171875 
Q 46.921875 13.96875 46.921875 20.515625 
Q 46.921875 27.09375 42.890625 30.859375 
Q 38.875 34.625 31.78125 34.625 
z
M 21.921875 38.8125 
Q 15.578125 40.375 12.03125 44.71875 
Q 8.5 49.078125 8.5 55.328125 
Q 8.5 64.0625 14.71875 69.140625 
Q 20.953125 74.21875 31.78125 74.21875 
Q 42.671875 74.21875 48.875 69.140625 
Q 55.078125 64.0625 55.078125 55.328125 
Q 55.078125 49.078125 51.53125 44.71875 
Q 48 40.375 41.703125 38.8125 
Q 48.828125 37.15625 52.796875 32.3125 
Q 56.78125 27.484375 56.78125 20.515625 
Q 56.78125 9.90625 50.3125 4.234375 
Q 43.84375 -1.421875 31.78125 -1.421875 
Q 19.734375 -1.421875 13.25 4.234375 
Q 6.78125 9.90625 6.78125 20.515625 
Q 6.78125 27.484375 10.78125 32.3125 
Q 14.796875 37.15625 21.921875 38.8125 
z
M 18.3125 54.390625 
Q 18.3125 48.734375 21.84375 45.5625 
Q 25.390625 42.390625 31.78125 42.390625 
Q 38.140625 42.390625 41.71875 45.5625 
Q 45.3125 48.734375 45.3125 54.390625 
Q 45.3125 60.0625 41.71875 63.234375 
Q 38.140625 66.40625 31.78125 66.40625 
Q 25.390625 66.40625 21.84375 63.234375 
Q 18.3125 60.0625 18.3125 54.390625 
z
" id="DejaVuSans-56"/>
       </defs>
       <use xlink:href="#DejaVuSans-56"/>
      </g>
     </g>
    </g>
    <g id="xtick_6">
     <g id="line2d_6">
      <g>
       <use style="stroke:#000000;stroke-width:0.8;" x="373.581818" xlink:href="#md2ed180840" y="252"/>
      </g>
     </g>
     <g id="text_6">
      <!-- 10 -->
      <g transform="translate(367.219318 266.598437)scale(0.1 -0.1)">
       <defs>
        <path d="M 12.40625 8.296875 
L 28.515625 8.296875 
L 28.515625 63.921875 
L 10.984375 60.40625 
L 10.984375 69.390625 
L 28.421875 72.90625 
L 38.28125 72.90625 
L 38.28125 8.296875 
L 54.390625 8.296875 
L 54.390625 0 
L 12.40625 0 
z
" id="DejaVuSans-49"/>
       </defs>
       <use xlink:href="#DejaVuSans-49"/>
       <use x="63.623047" xlink:href="#DejaVuSans-48"/>
      </g>
     </g>
    </g>
   </g>
   <g id="matplotlib.axis_2">
    <g id="ytick_1">
     <g id="line2d_7">
      <defs>
       <path d="M 0 0 
L -3.5 0 
" id="m0c59aea8bd" style="stroke:#000000;stroke-width:0.8;"/>
      </defs>
      <g>
       <use style="stroke:#000000;stroke-width:0.8;" x="54" xlink:href="#m0c59aea8bd" y="237.044864"/>
      </g>
     </g>
     <g id="text_7">
      <!-- −3 -->
      <g transform="translate(32.257812 240.844082)scale(0.1 -0.1)">
       <defs>
        <path d="M 10.59375 35.5 
L 73.1875 35.5 
L 73.1875 27.203125 
L 10.59375 27.203125 
z
" id="DejaVuSans-8722"/>
        <path d="M 40.578125 39.3125 
Q 47.65625 37.796875 51.625 33 
Q 55.609375 28.21875 55.609375 21.1875 
Q 55.609375 10.40625 48.1875 4.484375 
Q 40.765625 -1.421875 27.09375 -1.421875 
Q 22.515625 -1.421875 17.65625 -0.515625 
Q 12.796875 0.390625 7.625 2.203125 
L 7.625 11.71875 
Q 11.71875 9.328125 16.59375 8.109375 
Q 21.484375 6.890625 26.8125 6.890625 
Q 36.078125 6.890625 40.9375 10.546875 
Q 45.796875 14.203125 45.796875 21.1875 
Q 45.796875 27.640625 41.28125 31.265625 
Q 36.765625 34.90625 28.71875 34.90625 
L 20.21875 34.90625 
L 20.21875 43.015625 
L 29.109375 43.015625 
Q 36.375 43.015625 40.234375 45.921875 
Q 44.09375 48.828125 44.09375 54.296875 
Q 44.09375 59.90625 40.109375 62.90625 
Q 36.140625 65.921875 28.71875 65.921875 
Q 24.65625 65.921875 20.015625 65.03125 
Q 15.375 64.15625 9.8125 62.3125 
L 9.8125 71.09375 
Q 15.4375 72.65625 20.34375 73.4375 
Q 25.25 74.21875 29.59375 74.21875 
Q 40.828125 74.21875 47.359375 69.109375 
Q 53.90625 64.015625 53.90625 55.328125 
Q 53.90625 49.265625 50.4375 45.09375 
Q 46.96875 40.921875 40.578125 39.3125 
z
" id="DejaVuSans-51"/>
       </defs>
       <use xlink:href="#DejaVuSans-8722"/>
       <use x="83.789062" xlink:href="#DejaVuSans-51"/>
      </g>
     </g>
    </g>
    <g id="ytick_2">
     <g id="line2d_8">
      <g>
       <use style="stroke:#000000;stroke-width:0.8;" x="54" xlink:href="#m0c59aea8bd" y="205.789683"/>
      </g>
     </g>
     <g id="text_8">
      <!-- −2 -->
      <g transform="translate(32.257812 209.588902)scale(0.1 -0.1)">
       <use xlink:href="#DejaVuSans-8722"/>
       <use x="83.789062" xlink:href="#DejaVuSans-50"/>
      </g>
     </g>
    </g>
    <g id="ytick_3">
     <g id="line2d_9">
      <g>
       <use style="stroke:#000000;stroke-width:0.8;" x="54" xlink:href="#m0c59aea8bd" y="174.534502"/>
      </g>
     </g>
     <g id="text_9">
      <!-- −1 -->
      <g transform="translate(32.257812 178.333721)scale(0.1 -0.1)">
       <use xlink:href="#DejaVuSans-8722"/>
       <use x="83.789062" xlink:href="#DejaVuSans-49"/>
      </g>
     </g>
    </g>
    <g id="ytick_4">
     <g id="line2d_10">
      <g>
       <use style="stroke:#000000;stroke-width:0.8;" x="54" xlink:href="#m0c59aea8bd" y="143.279321"/>
      </g>
     </g>
     <g id="text_10">
      <!-- 0 -->
      <g transform="translate(40.6375 147.07854)scale(0.1 -0.1)">
       <use xlink:href="#DejaVuSans-48"/>
      </g>
     </g>
    </g>
    <g id="ytick_5">
     <g id="line2d_11">
      <g>
       <use style="stroke:#000000;stroke-width:0.8;" x="54" xlink:href="#m0c59aea8bd" y="112.024141"/>
      </g>
     </g>
     <g id="text_11">
      <!-- 1 -->
      <g transform="translate(40.6375 115.82336)scale(0.1 -0.1)">
       <use xlink:href="#DejaVuSans-49"/>
      </g>
     </g>
    </g>
    <g id="ytick_6">
     <g id="line2d_12">
      <g>
       <use style="stroke:#000000;stroke-width:0.8;" x="54" xlink:href="#m0c59aea8bd" y="80.76896"/>
      </g>
     </g>
     <g id="text_12">
      <!-- 2 -->
      <g transform="translate(40.6375 84.568179)scale(0.1 -0.1)">
       <use xlink:href="#DejaVuSans-50"/>
      </g>
     </g>
    </g>
    <g id="ytick_7">
     <g id="line2d_13">
      <g>
       <use style="stroke:#000000;stroke-width:0.8;" x="54" xlink:href="#m0c59aea8bd" y="49.513779"/>
      </g>
     </g>
     <g id="text_13">
      <!-- 3 -->
      <g transform="translate(40.6375 53.312998)scale(0.1 -0.1)">
       <use xlink:href="#DejaVuSans-51"/>
      </g>
     </g>
    </g>
   </g>
   <g id="line2d_14">
    <path clip-path="url(#pf47c0b167c)" d="M 69.218182 49.513779 
L 69.826909 57.592286 
L 70.435636 69.086859 
L 71.348727 91.698573 
L 72.566182 128.602394 
L 74.696727 195.0207 
L 75.609818 217.59613 
L 76.218545 229.060098 
L 76.827273 237.104261 
L 77.436 241.407927 
L 77.740364 242.097401 
L 78.044727 241.79952 
L 78.349091 240.51726 
L 78.653455 238.263432 
L 79.262182 230.940632 
L 79.870909 220.123059 
L 80.784 198.321353 
L 82.001455 162.007968 
L 84.436364 86.710588 
L 85.349455 65.285738 
L 85.958182 54.77896 
L 86.566909 47.800407 
L 86.871273 45.726995 
L 87.175636 44.628291 
L 87.48 44.515274 
L 87.784364 45.389074 
L 88.088727 47.240958 
L 88.697455 53.795382 
L 89.306182 63.917242 
L 90.219273 84.871226 
L 91.436727 120.531357 
L 94.176 204.482501 
L 95.089091 224.683709 
L 95.697818 234.197468 
L 96.306545 240.086613 
L 96.610909 241.592645 
L 96.915273 242.116364 
L 97.219636 241.652537 
L 97.524 240.205799 
L 97.828364 237.790606 
L 98.437091 230.160815 
L 99.045818 219.067339 
L 99.958909 196.933683 
L 101.176364 160.374086 
L 103.611273 85.35629 
L 104.524364 64.276315 
L 105.133091 54.051817 
L 105.741818 47.384532 
L 106.046182 45.473779 
L 106.350545 44.540264 
L 106.654909 44.593316 
L 106.959273 45.632404 
L 107.263636 47.647146 
L 107.872364 54.513523 
L 108.481091 64.918705 
L 109.394182 86.219708 
L 110.611636 122.151307 
L 113.046545 197.822005 
L 113.959636 219.744278 
L 114.568364 230.661828 
L 115.177091 238.095718 
L 115.481455 240.407889 
L 115.785818 241.749584 
L 116.090182 242.107399 
L 116.394545 241.477758 
L 116.698909 239.866952 
L 117.307636 233.775868 
L 117.916364 224.076978 
L 118.829455 203.645478 
L 120.046909 168.404036 
L 122.786182 84.018359 
L 123.699273 63.289216 
L 124.308 53.349886 
L 124.916727 46.995753 
L 125.221091 45.248198 
L 125.525455 44.480136 
L 125.829818 44.699241 
L 126.134182 45.903324 
L 126.438545 48.080354 
L 127.047273 55.256743 
L 127.656 65.942308 
L 128.569091 87.584311 
L 129.786545 123.777225 
L 132.221455 199.199736 
L 133.134545 220.786093 
L 133.743273 231.425769 
L 134.352 238.551329 
L 134.656364 240.70172 
L 134.960727 241.878701 
L 135.265091 242.070511 
L 135.569455 241.275233 
L 135.873818 239.500815 
L 136.482545 233.095078 
L 137.091273 223.108677 
L 138.004364 202.321463 
L 139.221818 166.793723 
L 141.961091 82.697174 
L 142.874182 62.324719 
L 143.482909 52.673365 
L 144.091636 46.634179 
L 144.396 45.050316 
L 144.700364 44.447924 
L 145.004727 44.83302 
L 145.309091 46.201757 
L 145.613455 48.54046 
L 146.222182 56.024834 
L 146.830909 66.987762 
L 147.744 88.964649 
L 148.961455 125.408652 
L 151.396364 200.561665 
L 152.309455 221.806008 
L 152.918182 232.164803 
L 153.526909 238.98002 
L 153.831273 240.968025 
L 154.135636 241.979958 
L 154.44 242.005709 
L 154.744364 241.04502 
L 155.048727 239.10749 
L 155.657455 232.388911 
L 156.266182 222.11782 
L 157.179273 200.980766 
L 158.396727 165.176767 
L 160.831636 89.395874 
L 161.744727 67.316394 
L 162.353455 56.268078 
L 162.962182 48.688621 
L 163.266545 46.299913 
L 163.570909 44.88019 
L 163.875273 44.443636 
L 164.179636 44.994615 
L 164.484 46.52762 
L 164.788364 49.027335 
L 165.397091 56.817578 
L 166.005818 68.054771 
L 166.918909 90.360333 
L 168.136364 127.045127 
L 170.266909 193.67066 
L 171.18 216.547081 
L 171.788727 228.265805 
L 172.397455 236.596392 
L 173.006182 241.206727 
L 173.310545 242.053327 
L 173.614909 241.913012 
L 173.919273 240.787183 
L 174.223636 238.687089 
L 174.832364 231.657567 
L 175.441091 221.104689 
L 176.354182 199.623766 
L 177.571636 163.553626 
L 180.006545 88.010783 
L 180.919636 66.264291 
L 181.528364 55.492396 
L 182.137091 48.220282 
L 182.441455 45.993048 
L 182.745818 44.737866 
L 183.050182 44.467275 
L 183.354545 45.18398 
L 183.658909 46.88082 
L 184.267636 53.137462 
L 184.876364 62.98777 
L 185.789455 83.606892 
L 187.006909 118.999981 
L 189.746182 203.236583 
L 190.659273 223.778988 
L 191.268 233.567323 
L 191.876727 239.756166 
L 192.181091 241.417759 
L 192.485455 242.098787 
L 192.789818 241.792446 
L 193.094182 240.501795 
L 193.398545 238.239731 
L 194.007273 230.901252 
L 194.616 220.069568 
L 195.529091 198.250848 
L 196.746545 161.924757 
L 199.181455 86.64131 
L 200.094545 65.23395 
L 200.703273 54.741517 
L 201.312 47.778802 
L 201.616364 45.713673 
L 201.920727 44.623385 
L 202.225091 44.518834 
L 202.529455 45.401062 
L 202.833818 47.261257 
L 203.442545 53.831611 
L 204.051273 63.967957 
L 204.964364 84.939719 
L 206.181818 120.61384 
L 208.921091 204.548817 
L 209.834182 224.731497 
L 210.442909 234.230413 
L 211.051636 240.103402 
L 211.356 241.601062 
L 211.660364 242.116326 
L 211.964727 241.644045 
L 212.269091 240.188937 
L 212.573455 237.765543 
L 213.182182 230.12018 
L 213.790909 219.012751 
L 214.704 196.862399 
L 215.921455 160.290622 
L 218.356364 85.287841 
L 219.269455 64.225661 
L 219.878182 54.015657 
L 220.486909 47.364307 
L 220.791273 45.461864 
L 221.095636 44.53678 
L 221.4 44.598297 
L 221.704364 45.6458 
L 222.008727 47.668824 
L 222.617455 54.551033 
L 223.226182 64.970553 
L 224.139273 86.289029 
L 225.356727 122.234101 
L 227.791636 197.892469 
L 228.704727 219.797711 
L 229.313455 230.701142 
L 229.922182 238.119346 
L 230.226545 240.42328 
L 230.530909 241.756584 
L 230.835273 242.105938 
L 231.139636 241.467851 
L 231.444 239.848698 
L 232.052727 233.741548 
L 232.661455 224.02796 
L 233.574545 203.578241 
L 234.792 168.322054 
L 237.531273 83.950758 
L 238.444364 63.23971 
L 239.053091 53.315018 
L 239.661818 46.976913 
L 239.966182 45.237695 
L 240.270545 44.478075 
L 240.574909 44.705642 
L 240.879273 45.918124 
L 241.183636 48.103405 
L 241.792364 55.295524 
L 242.401091 65.995274 
L 243.314182 87.65444 
L 244.531636 123.860307 
L 246.966545 199.269399 
L 247.879636 220.838414 
L 248.488364 231.463816 
L 249.097091 238.573586 
L 249.401455 240.715709 
L 249.705818 241.884281 
L 250.010182 242.067627 
L 250.314545 241.263914 
L 250.618909 239.481173 
L 251.227636 233.059461 
L 251.836364 223.058505 
L 252.749455 202.253369 
L 253.966909 166.711395 
L 256.706182 82.63044 
L 257.619273 62.276375 
L 258.228 52.639799 
L 258.836727 46.616729 
L 259.141091 45.041227 
L 259.445455 44.447286 
L 259.749818 44.84084 
L 260.054182 46.217957 
L 260.358545 48.564878 
L 260.967273 56.064875 
L 261.576 67.041831 
L 262.489091 89.035566 
L 263.706545 125.491998 
L 266.141455 200.630509 
L 267.054545 221.857202 
L 267.663273 232.201573 
L 268.272 239.000901 
L 268.576364 240.980607 
L 268.880727 241.984117 
L 269.185091 242.001402 
L 269.489455 241.032291 
L 269.793818 239.086466 
L 270.402545 232.352008 
L 271.011273 222.066509 
L 271.924364 200.911835 
L 273.141818 165.094118 
L 275.576727 89.325039 
L 276.489818 67.262439 
L 277.098545 56.228168 
L 277.707273 48.664345 
L 278.011636 46.283859 
L 278.316 44.872517 
L 278.620364 44.444422 
L 278.924727 45.003851 
L 279.229091 46.545215 
L 279.533455 49.053112 
L 280.142182 56.858868 
L 280.750909 68.109928 
L 281.664 90.432018 
L 282.881455 127.128714 
L 285.012 193.743365 
L 285.925091 216.603704 
L 286.533818 228.308788 
L 287.142545 236.62402 
L 287.751273 241.2179 
L 288.055636 242.056064 
L 288.36 241.907284 
L 288.664364 240.773048 
L 288.968727 238.664689 
L 289.577455 231.619387 
L 290.186182 221.052252 
L 291.099273 199.554019 
L 292.316727 163.470678 
L 294.751636 87.940738 
L 295.664727 66.211441 
L 296.273455 55.453746 
L 296.882182 48.197373 
L 297.186545 45.978394 
L 297.490909 44.731612 
L 297.795273 44.469484 
L 298.099636 45.19463 
L 298.404 46.899804 
L 299.012727 53.172465 
L 299.621455 63.037396 
L 300.534545 83.674582 
L 301.752 119.082148 
L 304.491273 203.303731 
L 305.404364 223.827886 
L 306.013091 233.601508 
L 306.621818 239.774276 
L 306.926182 241.42752 
L 307.230545 242.100101 
L 307.534909 241.785299 
L 307.839273 240.486259 
L 308.143636 238.215962 
L 308.752364 230.861807 
L 309.361091 220.016021 
L 310.274182 198.180303 
L 311.491636 161.841534 
L 313.926545 86.572074 
L 314.839636 65.18222 
L 315.448364 54.70414 
L 316.057091 47.757268 
L 316.361455 45.700422 
L 316.665818 44.618552 
L 316.970182 44.522465 
L 317.274545 45.413123 
L 317.578909 47.281626 
L 318.187636 53.867905 
L 318.796364 64.01873 
L 319.709455 85.008255 
L 320.926909 120.696339 
L 323.361818 196.571309 
L 324.274909 218.789861 
L 324.883636 229.954271 
L 325.492364 237.663231 
L 325.796727 240.120119 
L 326.101091 241.609407 
L 326.405455 242.116216 
L 326.709818 241.63548 
L 327.014182 240.172004 
L 327.318545 237.74041 
L 327.927273 230.079481 
L 328.536 218.958109 
L 329.449091 196.791076 
L 330.666545 160.207147 
L 333.101455 85.219435 
L 334.014545 64.175065 
L 334.623273 53.979562 
L 335.232 47.344152 
L 335.536364 45.450022 
L 335.840727 44.533368 
L 336.145091 44.60335 
L 336.449455 45.659268 
L 336.753818 47.690572 
L 337.362545 54.588608 
L 337.971273 65.022458 
L 338.884364 86.358391 
L 340.101818 122.31691 
L 342.536727 197.962892 
L 343.449818 219.851087 
L 344.058545 230.740391 
L 344.667273 238.142904 
L 344.971636 240.438599 
L 345.276 241.763511 
L 345.580364 242.104404 
L 345.884727 241.457871 
L 346.189091 239.830372 
L 346.797818 233.707161 
L 347.406545 223.978883 
L 348.319636 203.510959 
L 349.537091 168.240054 
L 352.276364 83.883201 
L 353.189455 63.190263 
L 353.798182 53.280216 
L 354.406909 46.958143 
L 354.711273 45.227264 
L 355.015636 44.476086 
L 355.32 44.712116 
L 355.624364 45.932995 
L 355.928727 48.126525 
L 356.537455 55.33437 
L 357.146182 66.048296 
L 358.059273 87.724609 
L 359.276727 123.943403 
L 361.711636 199.339022 
L 362.624727 220.890677 
L 363.233455 231.501799 
L 363.842182 238.595774 
L 364.146545 240.729626 
L 364.450909 241.889789 
L 364.755273 242.06467 
L 365.059636 241.252522 
L 365.364 239.46146 
L 365.972727 233.023778 
L 366.581455 223.008275 
L 367.494545 202.185232 
L 368.712 166.629051 
L 371.451273 82.563751 
L 372.364364 62.228091 
L 372.973091 52.6063 
L 373.581818 46.599351 
L 373.581818 46.599351 
" style="fill:none;stroke:#1f77b4;stroke-linecap:square;stroke-width:1.5;"/>
   </g>
   <g id="patch_3">
    <path d="M 54 252 
L 54 34.56 
" style="fill:none;stroke:#000000;stroke-linecap:square;stroke-linejoin:miter;stroke-width:0.8;"/>
   </g>
   <g id="patch_4">
    <path d="M 388.8 252 
L 388.8 34.56 
" style="fill:none;stroke:#000000;stroke-linecap:square;stroke-linejoin:miter;stroke-width:0.8;"/>
   </g>
   <g id="patch_5">
    <path d="M 54 252 
L 388.8 252 
" style="fill:none;stroke:#000000;stroke-linecap:square;stroke-linejoin:miter;stroke-width:0.8;"/>
   </g>
   <g id="patch_6">
    <path d="M 54 34.56 
L 388.8 34.56 
" style="fill:none;stroke:#000000;stroke-linecap:square;stroke-linejoin:miter;stroke-width:0.8;"/>
   </g>
   <g id="text_14">
    <!-- x2-Runge-Kutta-zad3 -->
    <g transform="translate(158.26125 28.56)scale(0.12 -0.12)">
     <defs>
      <path d="M 54.890625 54.6875 
L 35.109375 28.078125 
L 55.90625 0 
L 45.3125 0 
L 29.390625 21.484375 
L 13.484375 0 
L 2.875 0 
L 24.125 28.609375 
L 4.6875 54.6875 
L 15.28125 54.6875 
L 29.78125 35.203125 
L 44.28125 54.6875 
z
" id="DejaVuSans-120"/>
      <path d="M 4.890625 31.390625 
L 31.203125 31.390625 
L 31.203125 23.390625 
L 4.890625 23.390625 
z
" id="DejaVuSans-45"/>
      <path d="M 44.390625 34.1875 
Q 47.5625 33.109375 50.5625 29.59375 
Q 53.5625 26.078125 56.59375 19.921875 
L 66.609375 0 
L 56 0 
L 46.6875 18.703125 
Q 43.0625 26.03125 39.671875 28.421875 
Q 36.28125 30.8125 30.421875 30.8125 
L 19.671875 30.8125 
L 19.671875 0 
L 9.8125 0 
L 9.8125 72.90625 
L 32.078125 72.90625 
Q 44.578125 72.90625 50.734375 67.671875 
Q 56.890625 62.453125 56.890625 51.90625 
Q 56.890625 45.015625 53.6875 40.46875 
Q 50.484375 35.9375 44.390625 34.1875 
z
M 19.671875 64.796875 
L 19.671875 38.921875 
L 32.078125 38.921875 
Q 39.203125 38.921875 42.84375 42.21875 
Q 46.484375 45.515625 46.484375 51.90625 
Q 46.484375 58.296875 42.84375 61.546875 
Q 39.203125 64.796875 32.078125 64.796875 
z
" id="DejaVuSans-82"/>
      <path d="M 8.5 21.578125 
L 8.5 54.6875 
L 17.484375 54.6875 
L 17.484375 21.921875 
Q 17.484375 14.15625 20.5 10.265625 
Q 23.53125 6.390625 29.59375 6.390625 
Q 36.859375 6.390625 41.078125 11.03125 
Q 45.3125 15.671875 45.3125 23.6875 
L 45.3125 54.6875 
L 54.296875 54.6875 
L 54.296875 0 
L 45.3125 0 
L 45.3125 8.40625 
Q 42.046875 3.421875 37.71875 1 
Q 33.40625 -1.421875 27.6875 -1.421875 
Q 18.265625 -1.421875 13.375 4.4375 
Q 8.5 10.296875 8.5 21.578125 
z
M 31.109375 56 
z
" id="DejaVuSans-117"/>
      <path d="M 54.890625 33.015625 
L 54.890625 0 
L 45.90625 0 
L 45.90625 32.71875 
Q 45.90625 40.484375 42.875 44.328125 
Q 39.84375 48.1875 33.796875 48.1875 
Q 26.515625 48.1875 22.3125 43.546875 
Q 18.109375 38.921875 18.109375 30.90625 
L 18.109375 0 
L 9.078125 0 
L 9.078125 54.6875 
L 18.109375 54.6875 
L 18.109375 46.1875 
Q 21.34375 51.125 25.703125 53.5625 
Q 30.078125 56 35.796875 56 
Q 45.21875 56 50.046875 50.171875 
Q 54.890625 44.34375 54.890625 33.015625 
z
" id="DejaVuSans-110"/>
      <path d="M 45.40625 27.984375 
Q 45.40625 37.75 41.375 43.109375 
Q 37.359375 48.484375 30.078125 48.484375 
Q 22.859375 48.484375 18.828125 43.109375 
Q 14.796875 37.75 14.796875 27.984375 
Q 14.796875 18.265625 18.828125 12.890625 
Q 22.859375 7.515625 30.078125 7.515625 
Q 37.359375 7.515625 41.375 12.890625 
Q 45.40625 18.265625 45.40625 27.984375 
z
M 54.390625 6.78125 
Q 54.390625 -7.171875 48.1875 -13.984375 
Q 42 -20.796875 29.203125 -20.796875 
Q 24.46875 -20.796875 20.265625 -20.09375 
Q 16.0625 -19.390625 12.109375 -17.921875 
L 12.109375 -9.1875 
Q 16.0625 -11.328125 19.921875 -12.34375 
Q 23.78125 -13.375 27.78125 -13.375 
Q 36.625 -13.375 41.015625 -8.765625 
Q 45.40625 -4.15625 45.40625 5.171875 
L 45.40625 9.625 
Q 42.625 4.78125 38.28125 2.390625 
Q 33.9375 0 27.875 0 
Q 17.828125 0 11.671875 7.65625 
Q 5.515625 15.328125 5.515625 27.984375 
Q 5.515625 40.671875 11.671875 48.328125 
Q 17.828125 56 27.875 56 
Q 33.9375 56 38.28125 53.609375 
Q 42.625 51.21875 45.40625 46.390625 
L 45.40625 54.6875 
L 54.390625 54.6875 
z
" id="DejaVuSans-103"/>
      <path d="M 56.203125 29.59375 
L 56.203125 25.203125 
L 14.890625 25.203125 
Q 15.484375 15.921875 20.484375 11.0625 
Q 25.484375 6.203125 34.421875 6.203125 
Q 39.59375 6.203125 44.453125 7.46875 
Q 49.3125 8.734375 54.109375 11.28125 
L 54.109375 2.78125 
Q 49.265625 0.734375 44.1875 -0.34375 
Q 39.109375 -1.421875 33.890625 -1.421875 
Q 20.796875 -1.421875 13.15625 6.1875 
Q 5.515625 13.8125 5.515625 26.8125 
Q 5.515625 40.234375 12.765625 48.109375 
Q 20.015625 56 32.328125 56 
Q 43.359375 56 49.78125 48.890625 
Q 56.203125 41.796875 56.203125 29.59375 
z
M 47.21875 32.234375 
Q 47.125 39.59375 43.09375 43.984375 
Q 39.0625 48.390625 32.421875 48.390625 
Q 24.90625 48.390625 20.390625 44.140625 
Q 15.875 39.890625 15.1875 32.171875 
z
" id="DejaVuSans-101"/>
      <path d="M 9.8125 72.90625 
L 19.671875 72.90625 
L 19.671875 42.09375 
L 52.390625 72.90625 
L 65.09375 72.90625 
L 28.90625 38.921875 
L 67.671875 0 
L 54.6875 0 
L 19.671875 35.109375 
L 19.671875 0 
L 9.8125 0 
z
" id="DejaVuSans-75"/>
      <path d="M 18.3125 70.21875 
L 18.3125 54.6875 
L 36.8125 54.6875 
L 36.8125 47.703125 
L 18.3125 47.703125 
L 18.3125 18.015625 
Q 18.3125 11.328125 20.140625 9.421875 
Q 21.96875 7.515625 27.59375 7.515625 
L 36.8125 7.515625 
L 36.8125 0 
L 27.59375 0 
Q 17.1875 0 13.234375 3.875 
Q 9.28125 7.765625 9.28125 18.015625 
L 9.28125 47.703125 
L 2.6875 47.703125 
L 2.6875 54.6875 
L 9.28125 54.6875 
L 9.28125 70.21875 
z
" id="DejaVuSans-116"/>
      <path d="M 34.28125 27.484375 
Q 23.390625 27.484375 19.1875 25 
Q 14.984375 22.515625 14.984375 16.5 
Q 14.984375 11.71875 18.140625 8.90625 
Q 21.296875 6.109375 26.703125 6.109375 
Q 34.1875 6.109375 38.703125 11.40625 
Q 43.21875 16.703125 43.21875 25.484375 
L 43.21875 27.484375 
z
M 52.203125 31.203125 
L 52.203125 0 
L 43.21875 0 
L 43.21875 8.296875 
Q 40.140625 3.328125 35.546875 0.953125 
Q 30.953125 -1.421875 24.3125 -1.421875 
Q 15.921875 -1.421875 10.953125 3.296875 
Q 6 8.015625 6 15.921875 
Q 6 25.140625 12.171875 29.828125 
Q 18.359375 34.515625 30.609375 34.515625 
L 43.21875 34.515625 
L 43.21875 35.40625 
Q 43.21875 41.609375 39.140625 45 
Q 35.0625 48.390625 27.6875 48.390625 
Q 23 48.390625 18.546875 47.265625 
Q 14.109375 46.140625 10.015625 43.890625 
L 10.015625 52.203125 
Q 14.9375 54.109375 19.578125 55.046875 
Q 24.21875 56 28.609375 56 
Q 40.484375 56 46.34375 49.84375 
Q 52.203125 43.703125 52.203125 31.203125 
z
" id="DejaVuSans-97"/>
      <path d="M 5.515625 54.6875 
L 48.1875 54.6875 
L 48.1875 46.484375 
L 14.40625 7.171875 
L 48.1875 7.171875 
L 48.1875 0 
L 4.296875 0 
L 4.296875 8.203125 
L 38.09375 47.515625 
L 5.515625 47.515625 
z
" id="DejaVuSans-122"/>
      <path d="M 45.40625 46.390625 
L 45.40625 75.984375 
L 54.390625 75.984375 
L 54.390625 0 
L 45.40625 0 
L 45.40625 8.203125 
Q 42.578125 3.328125 38.25 0.953125 
Q 33.9375 -1.421875 27.875 -1.421875 
Q 17.96875 -1.421875 11.734375 6.484375 
Q 5.515625 14.40625 5.515625 27.296875 
Q 5.515625 40.1875 11.734375 48.09375 
Q 17.96875 56 27.875 56 
Q 33.9375 56 38.25 53.625 
Q 42.578125 51.265625 45.40625 46.390625 
z
M 14.796875 27.296875 
Q 14.796875 17.390625 18.875 11.75 
Q 22.953125 6.109375 30.078125 6.109375 
Q 37.203125 6.109375 41.296875 11.75 
Q 45.40625 17.390625 45.40625 27.296875 
Q 45.40625 37.203125 41.296875 42.84375 
Q 37.203125 48.484375 30.078125 48.484375 
Q 22.953125 48.484375 18.875 42.84375 
Q 14.796875 37.203125 14.796875 27.296875 
z
" id="DejaVuSans-100"/>
     </defs>
     <use xlink:href="#DejaVuSans-120"/>
     <use x="59.179688" xlink:href="#DejaVuSans-50"/>
     <use x="122.802734" xlink:href="#DejaVuSans-45"/>
     <use x="158.886719" xlink:href="#DejaVuSans-82"/>
     <use x="223.869141" xlink:href="#DejaVuSans-117"/>
     <use x="287.248047" xlink:href="#DejaVuSans-110"/>
     <use x="350.626953" xlink:href="#DejaVuSans-103"/>
     <use x="414.103516" xlink:href="#DejaVuSans-101"/>
     <use x="475.626953" xlink:href="#DejaVuSans-45"/>
     <use x="511.710938" xlink:href="#DejaVuSans-75"/>
     <use x="572.287109" xlink:href="#DejaVuSans-117"/>
     <use x="635.666016" xlink:href="#DejaVuSans-116"/>
     <use x="674.875" xlink:href="#DejaVuSans-116"/>
     <use x="714.083984" xlink:href="#DejaVuSans-97"/>
     <use x="775.363281" xlink:href="#DejaVuSans-45"/>
     <use x="811.447266" xlink:href="#DejaVuSans-122"/>
     <use x="863.9375" xlink:href="#DejaVuSans-97"/>
     <use x="925.216797" xlink:href="#DejaVuSans-100"/>
     <use x="988.693359" xlink:href="#DejaVuSans-51"/>
    </g>
   </g>
   <g id="legend_1">
    <g id="patch_7">
     <path d="M 337.51875 152.119062 
L 381.8 152.119062 
Q 383.8 152.119062 383.8 150.119062 
L 383.8 136.440937 
Q 383.8 134.440937 381.8 134.440937 
L 337.51875 134.440937 
Q 335.51875 134.440937 335.51875 136.440937 
L 335.51875 150.119062 
Q 335.51875 152.119062 337.51875 152.119062 
z
" style="fill:#ffffff;opacity:0.8;stroke:#cccccc;stroke-linejoin:miter;"/>
    </g>
    <g id="line2d_15">
     <path d="M 339.51875 142.539375 
L 359.51875 142.539375 
" style="fill:none;stroke:#1f77b4;stroke-linecap:square;stroke-width:1.5;"/>
    </g>
    <g id="line2d_16"/>
    <g id="text_15">
     <!-- x2 -->
     <g transform="translate(367.51875 146.039375)scale(0.1 -0.1)">
      <use xlink:href="#DejaVuSans-120"/>
      <use x="59.179688" xlink:href="#DejaVuSans-50"/>
     </g>
    </g>
   </g>
  </g>
 </g>
 <defs>
  <clipPath id="pf47c0b167c">
   <rect height="217.44" width="334.8" x="54" y="34.56"/>
  </clipPath>
 </defs>
</svg>
