<?xml version="1.0" encoding="utf-8" standalone="no"?>
<!DOCTYPE svg PUBLIC "-//W3C//DTD SVG 1.1//EN"
  "http://www.w3.org/Graphics/SVG/1.1/DTD/svg11.dtd">
<!-- Created with matplotlib (https://matplotlib.org/) -->
<svg height="288pt" version="1.1" viewBox="0 0 432 288" width="432pt" xmlns="http://www.w3.org/2000/svg" xmlns:xlink="http://www.w3.org/1999/xlink">
 <metadata>
  <rdf:RDF xmlns:cc="http://creativecommons.org/ns#" xmlns:dc="http://purl.org/dc/elements/1.1/" xmlns:rdf="http://www.w3.org/1999/02/22-rdf-syntax-ns#">
   <cc:Work>
    <dc:type rdf:resource="http://purl.org/dc/dcmitype/StillImage"/>
    <dc:date>2021-01-08T19:31:15.466498</dc:date>
    <dc:format>image/svg+xml</dc:format>
    <dc:creator>
     <cc:Agent>
      <dc:title>Matplotlib v3.3.2, https://matplotlib.org/</dc:title>
     </cc:Agent>
    </dc:creator>
   </cc:Work>
  </rdf:RDF>
 </metadata>
 <defs>
  <style type="text/css">*{stroke-linecap:butt;stroke-linejoin:round;}</style>
 </defs>
 <g id="figure_1">
  <g id="patch_1">
   <path d="M 0 288 
L 432 288 
L 432 0 
L 0 0 
z
" style="fill:none;"/>
  </g>
  <g id="axes_1">
   <g id="patch_2">
    <path d="M 54 252 
L 388.8 252 
L 388.8 34.56 
L 54 34.56 
z
" style="fill:#ffffff;"/>
   </g>
   <g id="matplotlib.axis_1">
    <g id="xtick_1">
     <g id="line2d_1">
      <defs>
       <path d="M 0 0 
L 0 3.5 
" id="m91cec71670" style="stroke:#000000;stroke-width:0.8;"/>
      </defs>
      <g>
       <use style="stroke:#000000;stroke-width:0.8;" x="69.218182" xlink:href="#m91cec71670" y="252"/>
      </g>
     </g>
     <g id="text_1">
      <!-- 0 -->
      <g transform="translate(66.036932 266.598437)scale(0.1 -0.1)">
       <defs>
        <path d="M 31.78125 66.40625 
Q 24.171875 66.40625 20.328125 58.90625 
Q 16.5 51.421875 16.5 36.375 
Q 16.5 21.390625 20.328125 13.890625 
Q 24.171875 6.390625 31.78125 6.390625 
Q 39.453125 6.390625 43.28125 13.890625 
Q 47.125 21.390625 47.125 36.375 
Q 47.125 51.421875 43.28125 58.90625 
Q 39.453125 66.40625 31.78125 66.40625 
z
M 31.78125 74.21875 
Q 44.046875 74.21875 50.515625 64.515625 
Q 56.984375 54.828125 56.984375 36.375 
Q 56.984375 17.96875 50.515625 8.265625 
Q 44.046875 -1.421875 31.78125 -1.421875 
Q 19.53125 -1.421875 13.0625 8.265625 
Q 6.59375 17.96875 6.59375 36.375 
Q 6.59375 54.828125 13.0625 64.515625 
Q 19.53125 74.21875 31.78125 74.21875 
z
" id="DejaVuSans-48"/>
       </defs>
       <use xlink:href="#DejaVuSans-48"/>
      </g>
     </g>
    </g>
    <g id="xtick_2">
     <g id="line2d_2">
      <g>
       <use style="stroke:#000000;stroke-width:0.8;" x="130.090909" xlink:href="#m91cec71670" y="252"/>
      </g>
     </g>
     <g id="text_2">
      <!-- 2 -->
      <g transform="translate(126.909659 266.598437)scale(0.1 -0.1)">
       <defs>
        <path d="M 19.1875 8.296875 
L 53.609375 8.296875 
L 53.609375 0 
L 7.328125 0 
L 7.328125 8.296875 
Q 12.9375 14.109375 22.625 23.890625 
Q 32.328125 33.6875 34.8125 36.53125 
Q 39.546875 41.84375 41.421875 45.53125 
Q 43.3125 49.21875 43.3125 52.78125 
Q 43.3125 58.59375 39.234375 62.25 
Q 35.15625 65.921875 28.609375 65.921875 
Q 23.96875 65.921875 18.8125 64.3125 
Q 13.671875 62.703125 7.8125 59.421875 
L 7.8125 69.390625 
Q 13.765625 71.78125 18.9375 73 
Q 24.125 74.21875 28.421875 74.21875 
Q 39.75 74.21875 46.484375 68.546875 
Q 53.21875 62.890625 53.21875 53.421875 
Q 53.21875 48.921875 51.53125 44.890625 
Q 49.859375 40.875 45.40625 35.40625 
Q 44.1875 33.984375 37.640625 27.21875 
Q 31.109375 20.453125 19.1875 8.296875 
z
" id="DejaVuSans-50"/>
       </defs>
       <use xlink:href="#DejaVuSans-50"/>
      </g>
     </g>
    </g>
    <g id="xtick_3">
     <g id="line2d_3">
      <g>
       <use style="stroke:#000000;stroke-width:0.8;" x="190.963636" xlink:href="#m91cec71670" y="252"/>
      </g>
     </g>
     <g id="text_3">
      <!-- 4 -->
      <g transform="translate(187.782386 266.598437)scale(0.1 -0.1)">
       <defs>
        <path d="M 37.796875 64.3125 
L 12.890625 25.390625 
L 37.796875 25.390625 
z
M 35.203125 72.90625 
L 47.609375 72.90625 
L 47.609375 25.390625 
L 58.015625 25.390625 
L 58.015625 17.1875 
L 47.609375 17.1875 
L 47.609375 0 
L 37.796875 0 
L 37.796875 17.1875 
L 4.890625 17.1875 
L 4.890625 26.703125 
z
" id="DejaVuSans-52"/>
       </defs>
       <use xlink:href="#DejaVuSans-52"/>
      </g>
     </g>
    </g>
    <g id="xtick_4">
     <g id="line2d_4">
      <g>
       <use style="stroke:#000000;stroke-width:0.8;" x="251.836364" xlink:href="#m91cec71670" y="252"/>
      </g>
     </g>
     <g id="text_4">
      <!-- 6 -->
      <g transform="translate(248.655114 266.598437)scale(0.1 -0.1)">
       <defs>
        <path d="M 33.015625 40.375 
Q 26.375 40.375 22.484375 35.828125 
Q 18.609375 31.296875 18.609375 23.390625 
Q 18.609375 15.53125 22.484375 10.953125 
Q 26.375 6.390625 33.015625 6.390625 
Q 39.65625 6.390625 43.53125 10.953125 
Q 47.40625 15.53125 47.40625 23.390625 
Q 47.40625 31.296875 43.53125 35.828125 
Q 39.65625 40.375 33.015625 40.375 
z
M 52.59375 71.296875 
L 52.59375 62.3125 
Q 48.875 64.0625 45.09375 64.984375 
Q 41.3125 65.921875 37.59375 65.921875 
Q 27.828125 65.921875 22.671875 59.328125 
Q 17.53125 52.734375 16.796875 39.40625 
Q 19.671875 43.65625 24.015625 45.921875 
Q 28.375 48.1875 33.59375 48.1875 
Q 44.578125 48.1875 50.953125 41.515625 
Q 57.328125 34.859375 57.328125 23.390625 
Q 57.328125 12.15625 50.6875 5.359375 
Q 44.046875 -1.421875 33.015625 -1.421875 
Q 20.359375 -1.421875 13.671875 8.265625 
Q 6.984375 17.96875 6.984375 36.375 
Q 6.984375 53.65625 15.1875 63.9375 
Q 23.390625 74.21875 37.203125 74.21875 
Q 40.921875 74.21875 44.703125 73.484375 
Q 48.484375 72.75 52.59375 71.296875 
z
" id="DejaVuSans-54"/>
       </defs>
       <use xlink:href="#DejaVuSans-54"/>
      </g>
     </g>
    </g>
    <g id="xtick_5">
     <g id="line2d_5">
      <g>
       <use style="stroke:#000000;stroke-width:0.8;" x="312.709091" xlink:href="#m91cec71670" y="252"/>
      </g>
     </g>
     <g id="text_5">
      <!-- 8 -->
      <g transform="translate(309.527841 266.598437)scale(0.1 -0.1)">
       <defs>
        <path d="M 31.78125 34.625 
Q 24.75 34.625 20.71875 30.859375 
Q 16.703125 27.09375 16.703125 20.515625 
Q 16.703125 13.921875 20.71875 10.15625 
Q 24.75 6.390625 31.78125 6.390625 
Q 38.8125 6.390625 42.859375 10.171875 
Q 46.921875 13.96875 46.921875 20.515625 
Q 46.921875 27.09375 42.890625 30.859375 
Q 38.875 34.625 31.78125 34.625 
z
M 21.921875 38.8125 
Q 15.578125 40.375 12.03125 44.71875 
Q 8.5 49.078125 8.5 55.328125 
Q 8.5 64.0625 14.71875 69.140625 
Q 20.953125 74.21875 31.78125 74.21875 
Q 42.671875 74.21875 48.875 69.140625 
Q 55.078125 64.0625 55.078125 55.328125 
Q 55.078125 49.078125 51.53125 44.71875 
Q 48 40.375 41.703125 38.8125 
Q 48.828125 37.15625 52.796875 32.3125 
Q 56.78125 27.484375 56.78125 20.515625 
Q 56.78125 9.90625 50.3125 4.234375 
Q 43.84375 -1.421875 31.78125 -1.421875 
Q 19.734375 -1.421875 13.25 4.234375 
Q 6.78125 9.90625 6.78125 20.515625 
Q 6.78125 27.484375 10.78125 32.3125 
Q 14.796875 37.15625 21.921875 38.8125 
z
M 18.3125 54.390625 
Q 18.3125 48.734375 21.84375 45.5625 
Q 25.390625 42.390625 31.78125 42.390625 
Q 38.140625 42.390625 41.71875 45.5625 
Q 45.3125 48.734375 45.3125 54.390625 
Q 45.3125 60.0625 41.71875 63.234375 
Q 38.140625 66.40625 31.78125 66.40625 
Q 25.390625 66.40625 21.84375 63.234375 
Q 18.3125 60.0625 18.3125 54.390625 
z
" id="DejaVuSans-56"/>
       </defs>
       <use xlink:href="#DejaVuSans-56"/>
      </g>
     </g>
    </g>
    <g id="xtick_6">
     <g id="line2d_6">
      <g>
       <use style="stroke:#000000;stroke-width:0.8;" x="373.581818" xlink:href="#m91cec71670" y="252"/>
      </g>
     </g>
     <g id="text_6">
      <!-- 10 -->
      <g transform="translate(367.219318 266.598437)scale(0.1 -0.1)">
       <defs>
        <path d="M 12.40625 8.296875 
L 28.515625 8.296875 
L 28.515625 63.921875 
L 10.984375 60.40625 
L 10.984375 69.390625 
L 28.421875 72.90625 
L 38.28125 72.90625 
L 38.28125 8.296875 
L 54.390625 8.296875 
L 54.390625 0 
L 12.40625 0 
z
" id="DejaVuSans-49"/>
       </defs>
       <use xlink:href="#DejaVuSans-49"/>
       <use x="63.623047" xlink:href="#DejaVuSans-48"/>
      </g>
     </g>
    </g>
   </g>
   <g id="matplotlib.axis_2">
    <g id="ytick_1">
     <g id="line2d_7">
      <defs>
       <path d="M 0 0 
L -3.5 0 
" id="mbe764c499d" style="stroke:#000000;stroke-width:0.8;"/>
      </defs>
      <g>
       <use style="stroke:#000000;stroke-width:0.8;" x="54" xlink:href="#mbe764c499d" y="237.044441"/>
      </g>
     </g>
     <g id="text_7">
      <!-- −3 -->
      <g transform="translate(32.257812 240.84366)scale(0.1 -0.1)">
       <defs>
        <path d="M 10.59375 35.5 
L 73.1875 35.5 
L 73.1875 27.203125 
L 10.59375 27.203125 
z
" id="DejaVuSans-8722"/>
        <path d="M 40.578125 39.3125 
Q 47.65625 37.796875 51.625 33 
Q 55.609375 28.21875 55.609375 21.1875 
Q 55.609375 10.40625 48.1875 4.484375 
Q 40.765625 -1.421875 27.09375 -1.421875 
Q 22.515625 -1.421875 17.65625 -0.515625 
Q 12.796875 0.390625 7.625 2.203125 
L 7.625 11.71875 
Q 11.71875 9.328125 16.59375 8.109375 
Q 21.484375 6.890625 26.8125 6.890625 
Q 36.078125 6.890625 40.9375 10.546875 
Q 45.796875 14.203125 45.796875 21.1875 
Q 45.796875 27.640625 41.28125 31.265625 
Q 36.765625 34.90625 28.71875 34.90625 
L 20.21875 34.90625 
L 20.21875 43.015625 
L 29.109375 43.015625 
Q 36.375 43.015625 40.234375 45.921875 
Q 44.09375 48.828125 44.09375 54.296875 
Q 44.09375 59.90625 40.109375 62.90625 
Q 36.140625 65.921875 28.71875 65.921875 
Q 24.65625 65.921875 20.015625 65.03125 
Q 15.375 64.15625 9.8125 62.3125 
L 9.8125 71.09375 
Q 15.4375 72.65625 20.34375 73.4375 
Q 25.25 74.21875 29.59375 74.21875 
Q 40.828125 74.21875 47.359375 69.109375 
Q 53.90625 64.015625 53.90625 55.328125 
Q 53.90625 49.265625 50.4375 45.09375 
Q 46.96875 40.921875 40.578125 39.3125 
z
" id="DejaVuSans-51"/>
       </defs>
       <use xlink:href="#DejaVuSans-8722"/>
       <use x="83.789062" xlink:href="#DejaVuSans-51"/>
      </g>
     </g>
    </g>
    <g id="ytick_2">
     <g id="line2d_8">
      <g>
       <use style="stroke:#000000;stroke-width:0.8;" x="54" xlink:href="#mbe764c499d" y="205.789556"/>
      </g>
     </g>
     <g id="text_8">
      <!-- −2 -->
      <g transform="translate(32.257812 209.588775)scale(0.1 -0.1)">
       <use xlink:href="#DejaVuSans-8722"/>
       <use x="83.789062" xlink:href="#DejaVuSans-50"/>
      </g>
     </g>
    </g>
    <g id="ytick_3">
     <g id="line2d_9">
      <g>
       <use style="stroke:#000000;stroke-width:0.8;" x="54" xlink:href="#mbe764c499d" y="174.534672"/>
      </g>
     </g>
     <g id="text_9">
      <!-- −1 -->
      <g transform="translate(32.257812 178.333891)scale(0.1 -0.1)">
       <use xlink:href="#DejaVuSans-8722"/>
       <use x="83.789062" xlink:href="#DejaVuSans-49"/>
      </g>
     </g>
    </g>
    <g id="ytick_4">
     <g id="line2d_10">
      <g>
       <use style="stroke:#000000;stroke-width:0.8;" x="54" xlink:href="#mbe764c499d" y="143.279787"/>
      </g>
     </g>
     <g id="text_10">
      <!-- 0 -->
      <g transform="translate(40.6375 147.079006)scale(0.1 -0.1)">
       <use xlink:href="#DejaVuSans-48"/>
      </g>
     </g>
    </g>
    <g id="ytick_5">
     <g id="line2d_11">
      <g>
       <use style="stroke:#000000;stroke-width:0.8;" x="54" xlink:href="#mbe764c499d" y="112.024903"/>
      </g>
     </g>
     <g id="text_11">
      <!-- 1 -->
      <g transform="translate(40.6375 115.824121)scale(0.1 -0.1)">
       <use xlink:href="#DejaVuSans-49"/>
      </g>
     </g>
    </g>
    <g id="ytick_6">
     <g id="line2d_12">
      <g>
       <use style="stroke:#000000;stroke-width:0.8;" x="54" xlink:href="#mbe764c499d" y="80.770018"/>
      </g>
     </g>
     <g id="text_12">
      <!-- 2 -->
      <g transform="translate(40.6375 84.569237)scale(0.1 -0.1)">
       <use xlink:href="#DejaVuSans-50"/>
      </g>
     </g>
    </g>
    <g id="ytick_7">
     <g id="line2d_13">
      <g>
       <use style="stroke:#000000;stroke-width:0.8;" x="54" xlink:href="#mbe764c499d" y="49.515134"/>
      </g>
     </g>
     <g id="text_13">
      <!-- 3 -->
      <g transform="translate(40.6375 53.314352)scale(0.1 -0.1)">
       <use xlink:href="#DejaVuSans-51"/>
      </g>
     </g>
    </g>
   </g>
   <g id="line2d_14">
    <path clip-path="url(#paf41cbc5f5)" d="M 69.218182 49.515134 
L 69.826909 57.585375 
L 70.435636 69.066317 
L 71.348727 91.650476 
L 72.566182 128.513632 
L 74.696727 194.894622 
L 75.609818 217.482045 
L 76.218545 228.96574 
L 76.827273 237.039071 
L 77.436 241.380713 
L 77.740364 242.092118 
L 78.044727 241.817864 
L 78.349091 240.560686 
L 78.653455 238.333126 
L 79.262182 231.065194 
L 79.870909 220.303337 
L 80.784 198.580347 
L 82.001455 162.346961 
L 84.436364 87.048914 
L 85.349455 65.55514 
L 85.958182 54.982345 
L 86.566909 47.923854 
L 86.871273 45.806074 
L 87.175636 44.660601 
L 87.48 44.49886 
L 87.784364 45.322465 
L 88.088727 47.1232 
L 88.697455 53.574644 
L 89.306182 63.59642 
L 90.219273 84.415863 
L 91.436727 119.948793 
L 94.176 203.952009 
L 95.089091 224.28536 
L 95.697818 233.914408 
L 96.306545 239.936131 
L 96.610909 241.513438 
L 96.915273 242.110858 
L 97.219636 241.722433 
L 97.524 240.352036 
L 97.828364 238.013337 
L 98.437091 230.533775 
L 99.045818 219.581439 
L 99.958909 197.628667 
L 101.176364 161.223403 
L 103.611273 86.112059 
L 104.524364 64.853813 
L 105.133091 54.474333 
L 105.741818 47.629377 
L 106.046182 45.623313 
L 106.350545 44.591378 
L 106.654909 44.543866 
L 106.959273 45.481252 
L 107.263636 47.394184 
L 107.872364 54.060819 
L 108.481091 64.278437 
L 109.394182 85.338598 
L 110.611636 121.061799 
L 113.046545 196.831495 
L 113.959636 218.973165 
L 114.568364 230.082828 
L 115.177091 237.737665 
L 115.481455 240.168572 
L 115.785818 241.633008 
L 116.090182 242.116364 
L 116.394545 241.613819 
L 116.698909 240.130386 
L 117.003273 237.680862 
L 117.612 229.990671 
L 118.220727 218.849323 
L 119.133818 196.669709 
L 120.351273 160.097442 
L 122.786182 85.182861 
L 123.699273 64.162989 
L 124.308 53.978214 
L 124.916727 47.347709 
L 125.221091 45.453629 
L 125.525455 44.535372 
L 125.829818 44.602096 
L 126.134182 45.653136 
L 126.438545 47.678009 
L 127.047273 54.558943 
L 127.656 64.971034 
L 128.569091 86.269093 
L 129.786545 122.177779 
L 132.221455 197.789239 
L 133.134545 219.70357 
L 133.743273 230.623972 
L 134.352 238.06801 
L 134.656364 240.388038 
L 134.960727 241.739406 
L 135.265091 242.108632 
L 135.569455 241.492035 
L 135.873818 239.895765 
L 136.482545 233.837509 
L 137.091273 224.174988 
L 138.004364 203.800036 
L 139.221818 168.624982 
L 141.961091 84.261443 
L 142.874182 63.48276 
L 143.482909 53.494055 
L 144.091636 47.078888 
L 144.396 45.297047 
L 144.700364 44.49259 
L 145.004727 44.673541 
L 145.309091 45.838095 
L 145.613455 47.974637 
L 146.222182 55.068949 
L 146.830909 65.674119 
L 147.744 87.207222 
L 148.961455 123.296586 
L 151.396364 198.739682 
L 152.309455 220.423739 
L 152.918182 231.153418 
L 153.526909 238.38566 
L 153.831273 240.594499 
L 154.135636 241.832618 
L 154.44 242.087666 
L 154.744364 241.357099 
L 155.048727 239.648205 
L 155.657455 233.373209 
L 156.266182 223.512428 
L 157.179273 202.891715 
L 158.396727 167.517764 
L 161.136 83.347929 
L 162.049091 62.813218 
L 162.657818 53.021919 
L 163.266545 46.822951 
L 163.570909 45.153587 
L 163.875273 44.463037 
L 164.179636 44.758191 
L 164.484 46.036104 
L 164.788364 48.284029 
L 165.397091 55.590768 
L 166.005818 66.387596 
L 166.918909 88.152861 
L 168.136364 124.418069 
L 170.571273 199.682698 
L 171.484364 221.133577 
L 172.093091 231.671096 
L 172.701818 238.690574 
L 173.006182 240.787927 
L 173.310545 241.912631 
L 173.614909 242.053466 
L 173.919273 241.209028 
L 174.223636 239.387739 
L 174.832364 232.896843 
L 175.441091 222.839122 
L 176.354182 201.975411 
L 177.571636 166.4073 
L 180.310909 82.442442 
L 181.224 62.154452 
L 181.832727 52.561872 
L 182.441455 46.579932 
L 182.745818 45.023268 
L 183.050182 44.446719 
L 183.354545 44.856036 
L 183.658909 46.247136 
L 183.963273 48.606142 
L 184.572 56.124331 
L 185.180727 67.111371 
L 186.093818 89.105883 
L 187.311273 125.542079 
L 189.746182 200.61816 
L 190.659273 221.832989 
L 191.268 232.176936 
L 191.876727 238.98271 
L 192.181091 240.968297 
L 192.485455 241.979436 
L 192.789818 242.006039 
L 193.094182 241.047842 
L 193.398545 239.114402 
L 194.007273 232.408476 
L 194.616 222.155161 
L 195.529091 201.051247 
L 196.746545 165.293739 
L 199.181455 89.552246 
L 200.094545 67.451964 
L 200.703273 56.376831 
L 201.312 48.7605 
L 201.616364 46.349863 
L 201.920727 44.906108 
L 202.225091 44.443636 
L 202.529455 44.967062 
L 202.833818 46.471162 
L 203.138182 48.940935 
L 203.746909 56.669565 
L 204.355636 67.845347 
L 205.268727 90.06616 
L 206.486182 126.668463 
L 208.921091 201.545944 
L 209.834182 222.521881 
L 210.442909 232.670871 
L 211.051636 239.262029 
L 211.356 241.135584 
L 211.660364 242.033022 
L 211.964727 241.94539 
L 212.269091 240.873562 
L 212.573455 238.828231 
L 213.182182 231.908172 
L 213.790909 221.460638 
L 214.704 200.119345 
L 215.921455 164.17723 
L 218.356364 88.595829 
L 219.269455 66.723426 
L 219.878182 55.837823 
L 220.486909 48.432476 
L 220.791273 46.132775 
L 221.095636 44.802122 
L 221.4 44.45379 
L 221.704364 45.091254 
L 222.008727 46.708154 
L 222.617455 52.80614 
L 223.226182 62.505046 
L 224.139273 82.925184 
L 225.356727 118.136995 
L 228.096 202.465924 
L 229.009091 223.200161 
L 229.617818 233.152835 
L 230.226545 239.528494 
L 230.530909 241.289766 
L 230.835273 242.073383 
L 231.139636 241.871527 
L 231.444 240.686213 
L 231.748364 238.529264 
L 232.357091 231.395999 
L 232.965818 220.755644 
L 233.878909 199.179832 
L 235.096364 163.057922 
L 237.531273 87.646736 
L 238.444364 66.00514 
L 239.053091 55.310526 
L 239.661818 48.117153 
L 239.966182 45.928698 
L 240.270545 44.711325 
L 240.574909 44.477179 
L 240.879273 45.228595 
L 241.183636 46.958078 
L 241.792364 53.272653 
L 242.401091 63.16958 
L 243.314182 83.834975 
L 244.531636 119.244818 
L 247.270909 203.377978 
L 248.184 223.867737 
L 248.792727 233.622762 
L 249.401455 239.782069 
L 249.705818 241.430823 
L 250.010182 242.100513 
L 250.314545 241.784461 
L 250.618909 240.485819 
L 250.923273 238.21754 
L 251.532 230.872026 
L 252.140727 220.040275 
L 253.053818 198.232832 
L 254.271273 161.935965 
L 256.706182 86.705093 
L 257.619273 65.297203 
L 258.228 54.795009 
L 258.836727 47.814575 
L 259.141091 45.737657 
L 259.445455 44.633728 
L 259.749818 44.5138 
L 260.054182 45.379068 
L 260.358545 47.220903 
L 260.967273 53.75122 
L 261.576 63.844842 
L 262.489091 84.752727 
L 263.706545 120.35586 
L 266.445818 204.281983 
L 267.358909 224.524521 
L 267.967636 234.080591 
L 268.576364 240.022721 
L 268.880727 241.558734 
L 269.185091 242.114409 
L 269.489455 241.684203 
L 269.793818 240.272407 
L 270.098182 237.893103 
L 270.706909 230.336321 
L 271.315636 219.314625 
L 272.228727 197.278473 
L 273.446182 160.81151 
L 275.881091 85.771027 
L 276.794182 64.59971 
L 277.402909 54.291343 
L 278.011636 47.524782 
L 278.316 45.55968 
L 278.620364 44.569343 
L 278.924727 44.563648 
L 279.229091 45.542652 
L 279.533455 47.496591 
L 280.142182 54.241777 
L 280.750909 64.530743 
L 281.664 85.678317 
L 282.881455 121.469972 
L 285.316364 197.182921 
L 286.229455 219.241715 
L 286.838182 230.282269 
L 287.446909 237.860059 
L 287.751273 240.250416 
L 288.055636 241.673484 
L 288.36 242.115069 
L 288.664364 241.570766 
L 288.968727 240.046005 
L 289.273091 237.555994 
L 289.881818 229.788958 
L 290.490545 218.578793 
L 291.403636 196.316882 
L 292.621091 159.684707 
L 294.751636 93.087438 
L 295.664727 70.1842 
L 296.273455 58.432998 
L 296.882182 50.058761 
L 297.490909 45.39479 
L 297.795273 44.518176 
L 298.099636 44.626716 
L 298.404 45.719326 
L 298.708364 47.785107 
L 299.317091 54.744259 
L 299.925818 65.22719 
L 300.838909 86.611621 
L 302.056364 122.587004 
L 304.491273 198.138007 
L 305.404364 219.968384 
L 306.013091 230.819139 
L 306.621818 238.185762 
L 306.926182 240.465125 
L 307.230545 241.775057 
L 307.534909 242.102493 
L 307.839273 241.444166 
L 308.143636 239.806644 
L 308.752364 233.668953 
L 309.361091 223.933707 
L 310.274182 203.468474 
L 311.491636 168.220065 
L 314.230909 83.926123 
L 315.144 63.236426 
L 315.752727 53.319829 
L 316.361455 46.983705 
L 316.665818 45.243009 
L 316.970182 44.480237 
L 317.274545 44.702996 
L 317.578909 45.909065 
L 317.883273 48.086412 
L 318.492 55.258597 
L 319.100727 65.93409 
L 320.013818 87.552514 
L 321.231273 123.706808 
L 323.666182 199.085746 
L 324.579273 220.684783 
L 325.188 231.344286 
L 325.796727 238.498755 
L 326.101091 240.666818 
L 326.405455 241.863439 
L 326.709818 242.076682 
L 327.014182 241.30442 
L 327.318545 239.554356 
L 327.927273 233.200229 
L 328.536 223.267203 
L 329.449091 202.557217 
L 330.666545 167.111642 
L 333.405818 83.015533 
L 334.318909 62.570819 
L 334.927636 52.852111 
L 335.536364 46.732492 
L 335.840727 45.104357 
L 336.145091 44.455528 
L 336.449455 44.792477 
L 336.753818 46.111844 
L 337.058182 48.400466 
L 337.666909 55.784723 
L 338.275636 66.651348 
L 339.188727 88.50087 
L 340.406182 124.829234 
L 342.841091 200.026012 
L 343.754182 221.390815 
L 344.362909 231.857638 
L 344.971636 238.798996 
L 345.276 240.855469 
L 345.580364 241.938619 
L 345.884727 242.03764 
L 346.189091 241.151545 
L 346.493455 239.289174 
L 347.102182 232.719463 
L 347.710909 222.589986 
L 348.624 201.638022 
L 349.841455 166.000027 
L 352.580727 82.113014 
L 353.493818 61.91602 
L 354.102545 52.396503 
L 354.711273 46.49421 
L 355.015636 44.978853 
L 355.32 44.444055 
L 355.624364 44.895149 
L 355.928727 46.327636 
L 356.233091 48.727226 
L 356.841818 56.322566 
L 357.450545 67.378869 
L 358.363636 89.456562 
L 359.581091 125.95413 
L 362.016 200.958678 
L 362.929091 222.086387 
L 363.537818 232.359128 
L 364.146545 239.086445 
L 364.450909 241.031053 
L 364.755273 242.000585 
L 365.059636 241.985372 
L 365.364 240.985564 
L 365.668364 239.011135 
L 366.277091 232.226719 
L 366.885818 221.902148 
L 367.798909 200.711011 
L 369.016364 164.885369 
L 371.451273 89.201303 
L 372.364364 67.184096 
L 372.973091 56.17817 
L 373.581818 48.638954 
L 373.581818 48.638954 
" style="fill:none;stroke:#1f77b4;stroke-linecap:square;stroke-width:1.5;"/>
   </g>
   <g id="patch_3">
    <path d="M 54 252 
L 54 34.56 
" style="fill:none;stroke:#000000;stroke-linecap:square;stroke-linejoin:miter;stroke-width:0.8;"/>
   </g>
   <g id="patch_4">
    <path d="M 388.8 252 
L 388.8 34.56 
" style="fill:none;stroke:#000000;stroke-linecap:square;stroke-linejoin:miter;stroke-width:0.8;"/>
   </g>
   <g id="patch_5">
    <path d="M 54 252 
L 388.8 252 
" style="fill:none;stroke:#000000;stroke-linecap:square;stroke-linejoin:miter;stroke-width:0.8;"/>
   </g>
   <g id="patch_6">
    <path d="M 54 34.56 
L 388.8 34.56 
" style="fill:none;stroke:#000000;stroke-linecap:square;stroke-linejoin:miter;stroke-width:0.8;"/>
   </g>
   <g id="text_14">
    <!-- x2-Trapezoidal-zad3 -->
    <g transform="translate(161.732813 28.56)scale(0.12 -0.12)">
     <defs>
      <path d="M 54.890625 54.6875 
L 35.109375 28.078125 
L 55.90625 0 
L 45.3125 0 
L 29.390625 21.484375 
L 13.484375 0 
L 2.875 0 
L 24.125 28.609375 
L 4.6875 54.6875 
L 15.28125 54.6875 
L 29.78125 35.203125 
L 44.28125 54.6875 
z
" id="DejaVuSans-120"/>
      <path d="M 4.890625 31.390625 
L 31.203125 31.390625 
L 31.203125 23.390625 
L 4.890625 23.390625 
z
" id="DejaVuSans-45"/>
      <path d="M -0.296875 72.90625 
L 61.375 72.90625 
L 61.375 64.59375 
L 35.5 64.59375 
L 35.5 0 
L 25.59375 0 
L 25.59375 64.59375 
L -0.296875 64.59375 
z
" id="DejaVuSans-84"/>
      <path d="M 41.109375 46.296875 
Q 39.59375 47.171875 37.8125 47.578125 
Q 36.03125 48 33.890625 48 
Q 26.265625 48 22.1875 43.046875 
Q 18.109375 38.09375 18.109375 28.8125 
L 18.109375 0 
L 9.078125 0 
L 9.078125 54.6875 
L 18.109375 54.6875 
L 18.109375 46.1875 
Q 20.953125 51.171875 25.484375 53.578125 
Q 30.03125 56 36.53125 56 
Q 37.453125 56 38.578125 55.875 
Q 39.703125 55.765625 41.0625 55.515625 
z
" id="DejaVuSans-114"/>
      <path d="M 34.28125 27.484375 
Q 23.390625 27.484375 19.1875 25 
Q 14.984375 22.515625 14.984375 16.5 
Q 14.984375 11.71875 18.140625 8.90625 
Q 21.296875 6.109375 26.703125 6.109375 
Q 34.1875 6.109375 38.703125 11.40625 
Q 43.21875 16.703125 43.21875 25.484375 
L 43.21875 27.484375 
z
M 52.203125 31.203125 
L 52.203125 0 
L 43.21875 0 
L 43.21875 8.296875 
Q 40.140625 3.328125 35.546875 0.953125 
Q 30.953125 -1.421875 24.3125 -1.421875 
Q 15.921875 -1.421875 10.953125 3.296875 
Q 6 8.015625 6 15.921875 
Q 6 25.140625 12.171875 29.828125 
Q 18.359375 34.515625 30.609375 34.515625 
L 43.21875 34.515625 
L 43.21875 35.40625 
Q 43.21875 41.609375 39.140625 45 
Q 35.0625 48.390625 27.6875 48.390625 
Q 23 48.390625 18.546875 47.265625 
Q 14.109375 46.140625 10.015625 43.890625 
L 10.015625 52.203125 
Q 14.9375 54.109375 19.578125 55.046875 
Q 24.21875 56 28.609375 56 
Q 40.484375 56 46.34375 49.84375 
Q 52.203125 43.703125 52.203125 31.203125 
z
" id="DejaVuSans-97"/>
      <path d="M 18.109375 8.203125 
L 18.109375 -20.796875 
L 9.078125 -20.796875 
L 9.078125 54.6875 
L 18.109375 54.6875 
L 18.109375 46.390625 
Q 20.953125 51.265625 25.265625 53.625 
Q 29.59375 56 35.59375 56 
Q 45.5625 56 51.78125 48.09375 
Q 58.015625 40.1875 58.015625 27.296875 
Q 58.015625 14.40625 51.78125 6.484375 
Q 45.5625 -1.421875 35.59375 -1.421875 
Q 29.59375 -1.421875 25.265625 0.953125 
Q 20.953125 3.328125 18.109375 8.203125 
z
M 48.6875 27.296875 
Q 48.6875 37.203125 44.609375 42.84375 
Q 40.53125 48.484375 33.40625 48.484375 
Q 26.265625 48.484375 22.1875 42.84375 
Q 18.109375 37.203125 18.109375 27.296875 
Q 18.109375 17.390625 22.1875 11.75 
Q 26.265625 6.109375 33.40625 6.109375 
Q 40.53125 6.109375 44.609375 11.75 
Q 48.6875 17.390625 48.6875 27.296875 
z
" id="DejaVuSans-112"/>
      <path d="M 56.203125 29.59375 
L 56.203125 25.203125 
L 14.890625 25.203125 
Q 15.484375 15.921875 20.484375 11.0625 
Q 25.484375 6.203125 34.421875 6.203125 
Q 39.59375 6.203125 44.453125 7.46875 
Q 49.3125 8.734375 54.109375 11.28125 
L 54.109375 2.78125 
Q 49.265625 0.734375 44.1875 -0.34375 
Q 39.109375 -1.421875 33.890625 -1.421875 
Q 20.796875 -1.421875 13.15625 6.1875 
Q 5.515625 13.8125 5.515625 26.8125 
Q 5.515625 40.234375 12.765625 48.109375 
Q 20.015625 56 32.328125 56 
Q 43.359375 56 49.78125 48.890625 
Q 56.203125 41.796875 56.203125 29.59375 
z
M 47.21875 32.234375 
Q 47.125 39.59375 43.09375 43.984375 
Q 39.0625 48.390625 32.421875 48.390625 
Q 24.90625 48.390625 20.390625 44.140625 
Q 15.875 39.890625 15.1875 32.171875 
z
" id="DejaVuSans-101"/>
      <path d="M 5.515625 54.6875 
L 48.1875 54.6875 
L 48.1875 46.484375 
L 14.40625 7.171875 
L 48.1875 7.171875 
L 48.1875 0 
L 4.296875 0 
L 4.296875 8.203125 
L 38.09375 47.515625 
L 5.515625 47.515625 
z
" id="DejaVuSans-122"/>
      <path d="M 30.609375 48.390625 
Q 23.390625 48.390625 19.1875 42.75 
Q 14.984375 37.109375 14.984375 27.296875 
Q 14.984375 17.484375 19.15625 11.84375 
Q 23.34375 6.203125 30.609375 6.203125 
Q 37.796875 6.203125 41.984375 11.859375 
Q 46.1875 17.53125 46.1875 27.296875 
Q 46.1875 37.015625 41.984375 42.703125 
Q 37.796875 48.390625 30.609375 48.390625 
z
M 30.609375 56 
Q 42.328125 56 49.015625 48.375 
Q 55.71875 40.765625 55.71875 27.296875 
Q 55.71875 13.875 49.015625 6.21875 
Q 42.328125 -1.421875 30.609375 -1.421875 
Q 18.84375 -1.421875 12.171875 6.21875 
Q 5.515625 13.875 5.515625 27.296875 
Q 5.515625 40.765625 12.171875 48.375 
Q 18.84375 56 30.609375 56 
z
" id="DejaVuSans-111"/>
      <path d="M 9.421875 54.6875 
L 18.40625 54.6875 
L 18.40625 0 
L 9.421875 0 
z
M 9.421875 75.984375 
L 18.40625 75.984375 
L 18.40625 64.59375 
L 9.421875 64.59375 
z
" id="DejaVuSans-105"/>
      <path d="M 45.40625 46.390625 
L 45.40625 75.984375 
L 54.390625 75.984375 
L 54.390625 0 
L 45.40625 0 
L 45.40625 8.203125 
Q 42.578125 3.328125 38.25 0.953125 
Q 33.9375 -1.421875 27.875 -1.421875 
Q 17.96875 -1.421875 11.734375 6.484375 
Q 5.515625 14.40625 5.515625 27.296875 
Q 5.515625 40.1875 11.734375 48.09375 
Q 17.96875 56 27.875 56 
Q 33.9375 56 38.25 53.625 
Q 42.578125 51.265625 45.40625 46.390625 
z
M 14.796875 27.296875 
Q 14.796875 17.390625 18.875 11.75 
Q 22.953125 6.109375 30.078125 6.109375 
Q 37.203125 6.109375 41.296875 11.75 
Q 45.40625 17.390625 45.40625 27.296875 
Q 45.40625 37.203125 41.296875 42.84375 
Q 37.203125 48.484375 30.078125 48.484375 
Q 22.953125 48.484375 18.875 42.84375 
Q 14.796875 37.203125 14.796875 27.296875 
z
" id="DejaVuSans-100"/>
      <path d="M 9.421875 75.984375 
L 18.40625 75.984375 
L 18.40625 0 
L 9.421875 0 
z
" id="DejaVuSans-108"/>
     </defs>
     <use xlink:href="#DejaVuSans-120"/>
     <use x="59.179688" xlink:href="#DejaVuSans-50"/>
     <use x="122.802734" xlink:href="#DejaVuSans-45"/>
     <use x="149.761719" xlink:href="#DejaVuSans-84"/>
     <use x="196.095703" xlink:href="#DejaVuSans-114"/>
     <use x="237.208984" xlink:href="#DejaVuSans-97"/>
     <use x="298.488281" xlink:href="#DejaVuSans-112"/>
     <use x="361.964844" xlink:href="#DejaVuSans-101"/>
     <use x="423.488281" xlink:href="#DejaVuSans-122"/>
     <use x="475.978516" xlink:href="#DejaVuSans-111"/>
     <use x="537.160156" xlink:href="#DejaVuSans-105"/>
     <use x="564.943359" xlink:href="#DejaVuSans-100"/>
     <use x="628.419922" xlink:href="#DejaVuSans-97"/>
     <use x="689.699219" xlink:href="#DejaVuSans-108"/>
     <use x="717.482422" xlink:href="#DejaVuSans-45"/>
     <use x="753.566406" xlink:href="#DejaVuSans-122"/>
     <use x="806.056641" xlink:href="#DejaVuSans-97"/>
     <use x="867.335938" xlink:href="#DejaVuSans-100"/>
     <use x="930.8125" xlink:href="#DejaVuSans-51"/>
    </g>
   </g>
   <g id="legend_1">
    <g id="patch_7">
     <path d="M 61 152.119062 
L 105.28125 152.119062 
Q 107.28125 152.119062 107.28125 150.119062 
L 107.28125 136.440937 
Q 107.28125 134.440937 105.28125 134.440937 
L 61 134.440937 
Q 59 134.440937 59 136.440937 
L 59 150.119062 
Q 59 152.119062 61 152.119062 
z
" style="fill:#ffffff;opacity:0.8;stroke:#cccccc;stroke-linejoin:miter;"/>
    </g>
    <g id="line2d_15">
     <path d="M 63 142.539375 
L 83 142.539375 
" style="fill:none;stroke:#1f77b4;stroke-linecap:square;stroke-width:1.5;"/>
    </g>
    <g id="line2d_16"/>
    <g id="text_15">
     <!-- x2 -->
     <g transform="translate(91 146.039375)scale(0.1 -0.1)">
      <use xlink:href="#DejaVuSans-120"/>
      <use x="59.179688" xlink:href="#DejaVuSans-50"/>
     </g>
    </g>
   </g>
  </g>
 </g>
 <defs>
  <clipPath id="paf41cbc5f5">
   <rect height="217.44" width="334.8" x="54" y="34.56"/>
  </clipPath>
 </defs>
</svg>
