<?xml version="1.0" encoding="utf-8" standalone="no"?>
<!DOCTYPE svg PUBLIC "-//W3C//DTD SVG 1.1//EN"
  "http://www.w3.org/Graphics/SVG/1.1/DTD/svg11.dtd">
<!-- Created with matplotlib (https://matplotlib.org/) -->
<svg height="288pt" version="1.1" viewBox="0 0 432 288" width="432pt" xmlns="http://www.w3.org/2000/svg" xmlns:xlink="http://www.w3.org/1999/xlink">
 <metadata>
  <rdf:RDF xmlns:cc="http://creativecommons.org/ns#" xmlns:dc="http://purl.org/dc/elements/1.1/" xmlns:rdf="http://www.w3.org/1999/02/22-rdf-syntax-ns#">
   <cc:Work>
    <dc:type rdf:resource="http://purl.org/dc/dcmitype/StillImage"/>
    <dc:date>2021-01-08T19:31:15.236738</dc:date>
    <dc:format>image/svg+xml</dc:format>
    <dc:creator>
     <cc:Agent>
      <dc:title>Matplotlib v3.3.2, https://matplotlib.org/</dc:title>
     </cc:Agent>
    </dc:creator>
   </cc:Work>
  </rdf:RDF>
 </metadata>
 <defs>
  <style type="text/css">*{stroke-linecap:butt;stroke-linejoin:round;}</style>
 </defs>
 <g id="figure_1">
  <g id="patch_1">
   <path d="M 0 288 
L 432 288 
L 432 0 
L 0 0 
z
" style="fill:none;"/>
  </g>
  <g id="axes_1">
   <g id="patch_2">
    <path d="M 54 252 
L 388.8 252 
L 388.8 34.56 
L 54 34.56 
z
" style="fill:#ffffff;"/>
   </g>
   <g id="matplotlib.axis_1">
    <g id="xtick_1">
     <g id="line2d_1">
      <defs>
       <path d="M 0 0 
L 0 3.5 
" id="mfed413a006" style="stroke:#000000;stroke-width:0.8;"/>
      </defs>
      <g>
       <use style="stroke:#000000;stroke-width:0.8;" x="69.218182" xlink:href="#mfed413a006" y="252"/>
      </g>
     </g>
     <g id="text_1">
      <!-- 0 -->
      <g transform="translate(66.036932 266.598437)scale(0.1 -0.1)">
       <defs>
        <path d="M 31.78125 66.40625 
Q 24.171875 66.40625 20.328125 58.90625 
Q 16.5 51.421875 16.5 36.375 
Q 16.5 21.390625 20.328125 13.890625 
Q 24.171875 6.390625 31.78125 6.390625 
Q 39.453125 6.390625 43.28125 13.890625 
Q 47.125 21.390625 47.125 36.375 
Q 47.125 51.421875 43.28125 58.90625 
Q 39.453125 66.40625 31.78125 66.40625 
z
M 31.78125 74.21875 
Q 44.046875 74.21875 50.515625 64.515625 
Q 56.984375 54.828125 56.984375 36.375 
Q 56.984375 17.96875 50.515625 8.265625 
Q 44.046875 -1.421875 31.78125 -1.421875 
Q 19.53125 -1.421875 13.0625 8.265625 
Q 6.59375 17.96875 6.59375 36.375 
Q 6.59375 54.828125 13.0625 64.515625 
Q 19.53125 74.21875 31.78125 74.21875 
z
" id="DejaVuSans-48"/>
       </defs>
       <use xlink:href="#DejaVuSans-48"/>
      </g>
     </g>
    </g>
    <g id="xtick_2">
     <g id="line2d_2">
      <g>
       <use style="stroke:#000000;stroke-width:0.8;" x="130.090909" xlink:href="#mfed413a006" y="252"/>
      </g>
     </g>
     <g id="text_2">
      <!-- 2 -->
      <g transform="translate(126.909659 266.598437)scale(0.1 -0.1)">
       <defs>
        <path d="M 19.1875 8.296875 
L 53.609375 8.296875 
L 53.609375 0 
L 7.328125 0 
L 7.328125 8.296875 
Q 12.9375 14.109375 22.625 23.890625 
Q 32.328125 33.6875 34.8125 36.53125 
Q 39.546875 41.84375 41.421875 45.53125 
Q 43.3125 49.21875 43.3125 52.78125 
Q 43.3125 58.59375 39.234375 62.25 
Q 35.15625 65.921875 28.609375 65.921875 
Q 23.96875 65.921875 18.8125 64.3125 
Q 13.671875 62.703125 7.8125 59.421875 
L 7.8125 69.390625 
Q 13.765625 71.78125 18.9375 73 
Q 24.125 74.21875 28.421875 74.21875 
Q 39.75 74.21875 46.484375 68.546875 
Q 53.21875 62.890625 53.21875 53.421875 
Q 53.21875 48.921875 51.53125 44.890625 
Q 49.859375 40.875 45.40625 35.40625 
Q 44.1875 33.984375 37.640625 27.21875 
Q 31.109375 20.453125 19.1875 8.296875 
z
" id="DejaVuSans-50"/>
       </defs>
       <use xlink:href="#DejaVuSans-50"/>
      </g>
     </g>
    </g>
    <g id="xtick_3">
     <g id="line2d_3">
      <g>
       <use style="stroke:#000000;stroke-width:0.8;" x="190.963636" xlink:href="#mfed413a006" y="252"/>
      </g>
     </g>
     <g id="text_3">
      <!-- 4 -->
      <g transform="translate(187.782386 266.598437)scale(0.1 -0.1)">
       <defs>
        <path d="M 37.796875 64.3125 
L 12.890625 25.390625 
L 37.796875 25.390625 
z
M 35.203125 72.90625 
L 47.609375 72.90625 
L 47.609375 25.390625 
L 58.015625 25.390625 
L 58.015625 17.1875 
L 47.609375 17.1875 
L 47.609375 0 
L 37.796875 0 
L 37.796875 17.1875 
L 4.890625 17.1875 
L 4.890625 26.703125 
z
" id="DejaVuSans-52"/>
       </defs>
       <use xlink:href="#DejaVuSans-52"/>
      </g>
     </g>
    </g>
    <g id="xtick_4">
     <g id="line2d_4">
      <g>
       <use style="stroke:#000000;stroke-width:0.8;" x="251.836364" xlink:href="#mfed413a006" y="252"/>
      </g>
     </g>
     <g id="text_4">
      <!-- 6 -->
      <g transform="translate(248.655114 266.598437)scale(0.1 -0.1)">
       <defs>
        <path d="M 33.015625 40.375 
Q 26.375 40.375 22.484375 35.828125 
Q 18.609375 31.296875 18.609375 23.390625 
Q 18.609375 15.53125 22.484375 10.953125 
Q 26.375 6.390625 33.015625 6.390625 
Q 39.65625 6.390625 43.53125 10.953125 
Q 47.40625 15.53125 47.40625 23.390625 
Q 47.40625 31.296875 43.53125 35.828125 
Q 39.65625 40.375 33.015625 40.375 
z
M 52.59375 71.296875 
L 52.59375 62.3125 
Q 48.875 64.0625 45.09375 64.984375 
Q 41.3125 65.921875 37.59375 65.921875 
Q 27.828125 65.921875 22.671875 59.328125 
Q 17.53125 52.734375 16.796875 39.40625 
Q 19.671875 43.65625 24.015625 45.921875 
Q 28.375 48.1875 33.59375 48.1875 
Q 44.578125 48.1875 50.953125 41.515625 
Q 57.328125 34.859375 57.328125 23.390625 
Q 57.328125 12.15625 50.6875 5.359375 
Q 44.046875 -1.421875 33.015625 -1.421875 
Q 20.359375 -1.421875 13.671875 8.265625 
Q 6.984375 17.96875 6.984375 36.375 
Q 6.984375 53.65625 15.1875 63.9375 
Q 23.390625 74.21875 37.203125 74.21875 
Q 40.921875 74.21875 44.703125 73.484375 
Q 48.484375 72.75 52.59375 71.296875 
z
" id="DejaVuSans-54"/>
       </defs>
       <use xlink:href="#DejaVuSans-54"/>
      </g>
     </g>
    </g>
    <g id="xtick_5">
     <g id="line2d_5">
      <g>
       <use style="stroke:#000000;stroke-width:0.8;" x="312.709091" xlink:href="#mfed413a006" y="252"/>
      </g>
     </g>
     <g id="text_5">
      <!-- 8 -->
      <g transform="translate(309.527841 266.598437)scale(0.1 -0.1)">
       <defs>
        <path d="M 31.78125 34.625 
Q 24.75 34.625 20.71875 30.859375 
Q 16.703125 27.09375 16.703125 20.515625 
Q 16.703125 13.921875 20.71875 10.15625 
Q 24.75 6.390625 31.78125 6.390625 
Q 38.8125 6.390625 42.859375 10.171875 
Q 46.921875 13.96875 46.921875 20.515625 
Q 46.921875 27.09375 42.890625 30.859375 
Q 38.875 34.625 31.78125 34.625 
z
M 21.921875 38.8125 
Q 15.578125 40.375 12.03125 44.71875 
Q 8.5 49.078125 8.5 55.328125 
Q 8.5 64.0625 14.71875 69.140625 
Q 20.953125 74.21875 31.78125 74.21875 
Q 42.671875 74.21875 48.875 69.140625 
Q 55.078125 64.0625 55.078125 55.328125 
Q 55.078125 49.078125 51.53125 44.71875 
Q 48 40.375 41.703125 38.8125 
Q 48.828125 37.15625 52.796875 32.3125 
Q 56.78125 27.484375 56.78125 20.515625 
Q 56.78125 9.90625 50.3125 4.234375 
Q 43.84375 -1.421875 31.78125 -1.421875 
Q 19.734375 -1.421875 13.25 4.234375 
Q 6.78125 9.90625 6.78125 20.515625 
Q 6.78125 27.484375 10.78125 32.3125 
Q 14.796875 37.15625 21.921875 38.8125 
z
M 18.3125 54.390625 
Q 18.3125 48.734375 21.84375 45.5625 
Q 25.390625 42.390625 31.78125 42.390625 
Q 38.140625 42.390625 41.71875 45.5625 
Q 45.3125 48.734375 45.3125 54.390625 
Q 45.3125 60.0625 41.71875 63.234375 
Q 38.140625 66.40625 31.78125 66.40625 
Q 25.390625 66.40625 21.84375 63.234375 
Q 18.3125 60.0625 18.3125 54.390625 
z
" id="DejaVuSans-56"/>
       </defs>
       <use xlink:href="#DejaVuSans-56"/>
      </g>
     </g>
    </g>
    <g id="xtick_6">
     <g id="line2d_6">
      <g>
       <use style="stroke:#000000;stroke-width:0.8;" x="373.581818" xlink:href="#mfed413a006" y="252"/>
      </g>
     </g>
     <g id="text_6">
      <!-- 10 -->
      <g transform="translate(367.219318 266.598437)scale(0.1 -0.1)">
       <defs>
        <path d="M 12.40625 8.296875 
L 28.515625 8.296875 
L 28.515625 63.921875 
L 10.984375 60.40625 
L 10.984375 69.390625 
L 28.421875 72.90625 
L 38.28125 72.90625 
L 38.28125 8.296875 
L 54.390625 8.296875 
L 54.390625 0 
L 12.40625 0 
z
" id="DejaVuSans-49"/>
       </defs>
       <use xlink:href="#DejaVuSans-49"/>
       <use x="63.623047" xlink:href="#DejaVuSans-48"/>
      </g>
     </g>
    </g>
   </g>
   <g id="matplotlib.axis_2">
    <g id="ytick_1">
     <g id="line2d_7">
      <defs>
       <path d="M 0 0 
L -3.5 0 
" id="m8f023abf27" style="stroke:#000000;stroke-width:0.8;"/>
      </defs>
      <g>
       <use style="stroke:#000000;stroke-width:0.8;" x="54" xlink:href="#m8f023abf27" y="237.044536"/>
      </g>
     </g>
     <g id="text_7">
      <!-- −3 -->
      <g transform="translate(32.257812 240.843755)scale(0.1 -0.1)">
       <defs>
        <path d="M 10.59375 35.5 
L 73.1875 35.5 
L 73.1875 27.203125 
L 10.59375 27.203125 
z
" id="DejaVuSans-8722"/>
        <path d="M 40.578125 39.3125 
Q 47.65625 37.796875 51.625 33 
Q 55.609375 28.21875 55.609375 21.1875 
Q 55.609375 10.40625 48.1875 4.484375 
Q 40.765625 -1.421875 27.09375 -1.421875 
Q 22.515625 -1.421875 17.65625 -0.515625 
Q 12.796875 0.390625 7.625 2.203125 
L 7.625 11.71875 
Q 11.71875 9.328125 16.59375 8.109375 
Q 21.484375 6.890625 26.8125 6.890625 
Q 36.078125 6.890625 40.9375 10.546875 
Q 45.796875 14.203125 45.796875 21.1875 
Q 45.796875 27.640625 41.28125 31.265625 
Q 36.765625 34.90625 28.71875 34.90625 
L 20.21875 34.90625 
L 20.21875 43.015625 
L 29.109375 43.015625 
Q 36.375 43.015625 40.234375 45.921875 
Q 44.09375 48.828125 44.09375 54.296875 
Q 44.09375 59.90625 40.109375 62.90625 
Q 36.140625 65.921875 28.71875 65.921875 
Q 24.65625 65.921875 20.015625 65.03125 
Q 15.375 64.15625 9.8125 62.3125 
L 9.8125 71.09375 
Q 15.4375 72.65625 20.34375 73.4375 
Q 25.25 74.21875 29.59375 74.21875 
Q 40.828125 74.21875 47.359375 69.109375 
Q 53.90625 64.015625 53.90625 55.328125 
Q 53.90625 49.265625 50.4375 45.09375 
Q 46.96875 40.921875 40.578125 39.3125 
z
" id="DejaVuSans-51"/>
       </defs>
       <use xlink:href="#DejaVuSans-8722"/>
       <use x="83.789062" xlink:href="#DejaVuSans-51"/>
      </g>
     </g>
    </g>
    <g id="ytick_2">
     <g id="line2d_8">
      <g>
       <use style="stroke:#000000;stroke-width:0.8;" x="54" xlink:href="#m8f023abf27" y="205.789711"/>
      </g>
     </g>
     <g id="text_8">
      <!-- −2 -->
      <g transform="translate(32.257812 209.58893)scale(0.1 -0.1)">
       <use xlink:href="#DejaVuSans-8722"/>
       <use x="83.789062" xlink:href="#DejaVuSans-50"/>
      </g>
     </g>
    </g>
    <g id="ytick_3">
     <g id="line2d_9">
      <g>
       <use style="stroke:#000000;stroke-width:0.8;" x="54" xlink:href="#m8f023abf27" y="174.534886"/>
      </g>
     </g>
     <g id="text_9">
      <!-- −1 -->
      <g transform="translate(32.257812 178.334104)scale(0.1 -0.1)">
       <use xlink:href="#DejaVuSans-8722"/>
       <use x="83.789062" xlink:href="#DejaVuSans-49"/>
      </g>
     </g>
    </g>
    <g id="ytick_4">
     <g id="line2d_10">
      <g>
       <use style="stroke:#000000;stroke-width:0.8;" x="54" xlink:href="#m8f023abf27" y="143.28006"/>
      </g>
     </g>
     <g id="text_10">
      <!-- 0 -->
      <g transform="translate(40.6375 147.079279)scale(0.1 -0.1)">
       <use xlink:href="#DejaVuSans-48"/>
      </g>
     </g>
    </g>
    <g id="ytick_5">
     <g id="line2d_11">
      <g>
       <use style="stroke:#000000;stroke-width:0.8;" x="54" xlink:href="#m8f023abf27" y="112.025235"/>
      </g>
     </g>
     <g id="text_11">
      <!-- 1 -->
      <g transform="translate(40.6375 115.824454)scale(0.1 -0.1)">
       <use xlink:href="#DejaVuSans-49"/>
      </g>
     </g>
    </g>
    <g id="ytick_6">
     <g id="line2d_12">
      <g>
       <use style="stroke:#000000;stroke-width:0.8;" x="54" xlink:href="#m8f023abf27" y="80.77041"/>
      </g>
     </g>
     <g id="text_12">
      <!-- 2 -->
      <g transform="translate(40.6375 84.569629)scale(0.1 -0.1)">
       <use xlink:href="#DejaVuSans-50"/>
      </g>
     </g>
    </g>
    <g id="ytick_7">
     <g id="line2d_13">
      <g>
       <use style="stroke:#000000;stroke-width:0.8;" x="54" xlink:href="#m8f023abf27" y="49.515585"/>
      </g>
     </g>
     <g id="text_13">
      <!-- 3 -->
      <g transform="translate(40.6375 53.314804)scale(0.1 -0.1)">
       <use xlink:href="#DejaVuSans-51"/>
      </g>
     </g>
    </g>
   </g>
   <g id="line2d_14">
    <path clip-path="url(#p65d805d892)" d="M 69.218182 112.025235 
L 70.435636 78.00355 
L 71.348727 59.000376 
L 71.957455 50.428852 
L 72.566182 45.552877 
L 72.870545 44.567363 
L 73.174909 44.566516 
L 73.479273 45.550342 
L 73.783636 47.509028 
L 74.392364 54.263299 
L 75.001091 64.560503 
L 75.914182 85.718144 
L 77.131636 121.517625 
L 79.566545 197.223765 
L 80.479636 219.272884 
L 81.088364 230.305394 
L 81.697091 237.874231 
L 82.001455 240.259879 
L 82.305818 241.678148 
L 82.610182 242.11489 
L 82.914545 241.565748 
L 83.218909 240.036201 
L 83.523273 237.541505 
L 84.132 229.765585 
L 84.740727 218.547477 
L 85.653818 196.276095 
L 86.871273 159.637088 
L 89.001818 93.046004 
L 89.914909 70.151954 
L 90.523636 58.40855 
L 91.132364 50.043096 
L 91.741091 45.388542 
L 92.045455 44.516758 
L 92.349818 44.630144 
L 92.654182 45.72757 
L 92.958545 47.798087 
L 93.567273 54.766283 
L 94.176 65.257394 
L 95.089091 86.651771 
L 96.306545 122.634776 
L 98.741455 198.17854 
L 99.654545 219.999118 
L 100.263273 230.841767 
L 100.872 238.199394 
L 101.176364 240.474036 
L 101.480727 241.779161 
L 101.785091 242.101752 
L 102.089455 241.43859 
L 102.393818 239.796291 
L 103.002545 233.649412 
L 103.611273 223.905765 
L 104.524364 203.43013 
L 105.741818 168.173326 
L 108.481091 83.88771 
L 109.394182 63.20839 
L 110.002909 53.300182 
L 110.611636 46.973239 
L 110.916 45.237318 
L 111.220364 44.47938 
L 111.524727 44.706985 
L 111.829091 45.917862 
L 112.133455 48.099933 
L 112.742182 55.281122 
L 113.350909 65.964734 
L 114.264 87.592981 
L 115.481455 123.754692 
L 117.916364 199.125963 
L 118.829455 220.715078 
L 119.438182 231.366414 
L 120.046909 238.511847 
L 120.351273 240.675176 
L 120.655636 241.866983 
L 120.96 242.07538 
L 121.264364 241.298287 
L 121.568727 239.543456 
L 122.177455 233.180177 
L 122.786182 223.238806 
L 123.699273 202.518536 
L 124.916727 167.064766 
L 127.656 82.977461 
L 128.569091 62.543241 
L 129.177818 52.832977 
L 129.786545 46.722575 
L 130.090909 45.099224 
L 130.395273 44.455233 
L 130.699636 44.797026 
L 131.004 46.121193 
L 131.308364 48.414526 
L 131.917091 55.807746 
L 132.525818 66.682428 
L 133.438909 88.54165 
L 134.656364 124.877223 
L 137.091273 200.065906 
L 138.004364 221.420667 
L 138.613091 231.879263 
L 139.221818 238.811545 
L 139.526182 240.863273 
L 139.830545 241.941602 
L 140.134909 242.035776 
L 140.439273 241.144856 
L 140.743636 239.277728 
L 141.352364 232.698902 
L 141.961091 222.561138 
L 142.874182 201.599008 
L 144.091636 165.953021 
L 146.830909 82.075289 
L 147.744 61.888904 
L 148.352727 52.377886 
L 148.961455 46.484843 
L 149.265818 44.974279 
L 149.570182 44.444321 
L 149.874545 44.900256 
L 150.178909 46.337536 
L 150.483273 48.741824 
L 151.092 56.346084 
L 151.700727 67.410381 
L 152.613818 89.497649 
L 153.831273 126.002219 
L 156.266182 200.998245 
L 157.179273 222.115792 
L 157.788 232.380248 
L 158.396727 239.09845 
L 158.701091 241.038301 
L 159.005455 242.003008 
L 159.309818 241.982947 
L 159.614182 240.978319 
L 159.918545 238.999145 
L 160.527273 232.205651 
L 161.136 221.872853 
L 162.049091 200.67167 
L 163.266545 164.83824 
L 165.701455 89.161062 
L 166.614545 67.153552 
L 167.223273 56.155682 
L 167.832 48.625428 
L 168.136364 46.260073 
L 168.440727 44.862499 
L 168.745091 44.446646 
L 169.049455 45.016662 
L 169.353818 46.566862 
L 169.658182 49.081782 
L 170.266909 56.896064 
L 170.875636 68.148494 
L 171.788727 90.46085 
L 173.006182 127.129528 
L 175.136727 193.694294 
L 176.049818 216.548834 
L 176.658545 228.258662 
L 177.267273 236.586278 
L 177.876 241.200237 
L 178.180364 242.051193 
L 178.484727 241.9169 
L 178.789091 240.798698 
L 179.093455 238.707743 
L 179.702182 231.700492 
L 180.310909 221.174042 
L 181.224 199.736646 
L 182.441455 163.720572 
L 184.876364 88.207623 
L 185.789455 66.429191 
L 186.398182 55.62145 
L 187.006909 48.302587 
L 187.311273 46.048297 
L 187.615636 44.763899 
L 187.92 44.462206 
L 188.224364 45.146228 
L 188.528727 46.80914 
L 189.137455 52.995689 
L 189.746182 62.775623 
L 190.659273 83.296239 
L 191.876727 118.589447 
L 194.616 202.83961 
L 195.529091 223.474275 
L 196.137818 233.346353 
L 196.746545 239.633725 
L 197.050909 241.34906 
L 197.355273 242.08615 
L 197.659636 241.837643 
L 197.964 240.606018 
L 198.268364 238.40356 
L 198.877091 231.183491 
L 199.485818 220.4648 
L 200.398909 198.794061 
L 201.616364 162.600166 
L 204.051273 87.26156 
L 204.964364 65.715122 
L 205.573091 55.098957 
L 206.181818 47.992466 
L 206.486182 45.849542 
L 206.790545 44.678493 
L 207.094909 44.491001 
L 207.399273 45.288935 
L 207.703636 47.064338 
L 208.312364 53.467132 
L 208.921091 63.444549 
L 209.834182 84.209294 
L 211.051636 119.698601 
L 213.790909 203.748389 
L 214.704 224.137453 
L 215.312727 233.811345 
L 215.921455 239.882025 
L 216.225818 241.484749 
L 216.530182 242.107874 
L 216.834545 241.745186 
L 217.138909 240.400303 
L 217.443273 238.086639 
L 218.052 230.654718 
L 218.660727 219.745221 
L 219.573818 197.844041 
L 220.791273 161.477172 
L 223.226182 86.322998 
L 224.139273 65.011441 
L 224.748 54.588274 
L 225.356727 47.695107 
L 225.661091 45.663835 
L 225.965455 44.606292 
L 226.269818 44.533025 
L 226.574182 45.444766 
L 226.878545 47.332421 
L 227.487273 53.950604 
L 228.096 64.124167 
L 229.009091 85.130261 
L 230.226545 120.810913 
L 232.661455 196.61474 
L 233.574545 218.807215 
L 234.183273 229.959323 
L 234.792 237.661531 
L 235.096364 240.117387 
L 235.400727 241.607286 
L 235.705091 242.116364 
L 236.009455 241.639543 
L 236.313818 240.181581 
L 236.618182 237.75702 
L 237.226909 230.114244 
L 237.835636 219.015402 
L 238.748727 196.886714 
L 239.966182 160.351742 
L 242.401091 85.392065 
L 243.314182 64.318242 
L 243.922909 54.089469 
L 244.531636 47.410548 
L 244.836 45.491201 
L 245.140364 44.547305 
L 245.444727 44.588274 
L 245.749091 45.6137 
L 246.053455 47.613353 
L 246.662182 54.446039 
L 247.270909 64.814385 
L 248.184 86.059015 
L 249.401455 121.926233 
L 251.836364 197.57411 
L 252.749455 219.539912 
L 253.358182 230.503092 
L 253.966909 237.994731 
L 254.271273 240.339781 
L 254.575636 241.716654 
L 254.88 242.111617 
L 255.184364 241.520728 
L 255.488727 239.949882 
L 255.793091 237.41475 
L 256.401818 229.56214 
L 257.010545 218.27544 
L 257.923636 195.922208 
L 259.141091 159.224026 
L 261.271636 92.685877 
L 262.184727 69.870947 
L 262.793455 58.194748 
L 263.402182 49.905007 
L 264.010909 45.331664 
L 264.315273 44.501541 
L 264.619636 44.65674 
L 264.924 45.795713 
L 265.228364 47.907098 
L 265.837091 54.953371 
L 266.445818 65.515112 
L 267.358909 86.995433 
L 268.576364 123.044414 
L 271.011273 198.526208 
L 271.924364 220.262396 
L 272.533091 231.035181 
L 273.141818 238.315246 
L 273.446182 240.549176 
L 273.750545 241.81284 
L 274.054909 242.093634 
L 274.359273 241.388756 
L 274.663636 239.705237 
L 275.272364 233.479047 
L 275.881091 223.662869 
L 276.794182 203.097365 
L 278.011636 167.767911 
L 280.750909 83.553579 
L 281.664 62.96366 
L 282.272727 53.127758 
L 282.881455 46.879984 
L 283.185818 45.185244 
L 283.490182 44.469006 
L 283.794545 44.738414 
L 284.098909 45.990781 
L 284.403273 48.213615 
L 285.012 55.472531 
L 285.620727 66.226253 
L 286.533818 87.939388 
L 287.751273 124.165305 
L 290.186182 199.470908 
L 291.099273 220.974571 
L 291.708 231.555517 
L 292.316727 238.623035 
L 292.621091 240.745545 
L 292.925455 241.89583 
L 293.229818 242.062418 
L 293.534182 241.243645 
L 293.838545 239.447679 
L 294.447273 233.005397 
L 295.056 222.99198 
L 295.969091 202.182852 
L 297.186545 166.658168 
L 299.925818 82.646273 
L 300.838909 62.302458 
L 301.447636 52.66498 
L 302.056364 46.63405 
L 302.360727 45.051961 
L 302.665091 44.449703 
L 302.969455 44.833284 
L 303.273818 46.198878 
L 303.578182 48.532863 
L 304.186909 56.003452 
L 304.795636 66.947714 
L 305.708727 88.890754 
L 306.926182 125.288755 
L 309.361091 200.408083 
L 310.274182 221.67634 
L 310.882909 232.064032 
L 311.491636 238.918054 
L 311.796 240.92886 
L 312.100364 241.965614 
L 312.404727 242.017972 
L 312.709091 241.085414 
L 313.013455 239.177241 
L 313.622182 232.519731 
L 314.230909 222.310415 
L 315.144 201.260451 
L 316.361455 165.545294 
L 318.796364 89.769252 
L 319.709455 67.618043 
L 320.318182 56.500403 
L 320.926909 48.836659 
L 321.231273 46.401059 
L 321.535636 44.931833 
L 321.84 44.443636 
L 322.144364 44.941339 
L 322.448727 46.419977 
L 322.753091 48.864801 
L 323.361818 56.54606 
L 323.970545 67.679397 
L 324.883636 89.849405 
L 326.101091 126.414615 
L 328.536 201.337607 
L 329.449091 222.367611 
L 330.057818 232.560656 
L 330.666545 239.200266 
L 330.970909 241.099099 
L 331.275273 242.022181 
L 331.579636 241.960304 
L 331.884 240.914085 
L 332.188364 238.893961 
L 332.797091 232.022114 
L 333.405818 221.618266 
L 334.318909 200.330285 
L 335.536364 164.429439 
L 337.971273 88.811203 
L 338.884364 66.887208 
L 339.493091 55.958766 
L 340.101818 48.505777 
L 340.406182 46.181042 
L 340.710545 44.824876 
L 341.014909 44.450806 
L 341.319273 45.062564 
L 341.623636 46.654048 
L 342.232364 52.703078 
L 342.841091 62.357139 
L 343.754182 82.721564 
L 344.971636 117.888008 
L 347.710909 202.259355 
L 348.624 223.04829 
L 349.232727 233.045323 
L 349.841455 239.469632 
L 350.145818 241.256237 
L 350.450182 242.065524 
L 350.754545 241.88942 
L 351.058909 240.729681 
L 351.363273 238.597876 
L 351.972 231.512612 
L 352.580727 220.915626 
L 353.493818 199.392478 
L 354.711273 163.310751 
L 357.146182 87.860449 
L 358.059273 66.166603 
L 358.668 55.428823 
L 359.276727 48.187588 
L 359.581091 45.974029 
L 359.885455 44.731104 
L 360.189818 44.471211 
L 360.494182 45.196943 
L 360.798545 46.901059 
L 361.407273 53.166864 
L 362.016 63.01924 
L 362.929091 83.629542 
L 364.146545 118.995083 
L 366.885818 203.173205 
L 367.798909 223.718286 
L 368.407636 233.517969 
L 369.016364 239.726116 
L 369.320727 241.400254 
L 369.625091 242.095638 
L 369.929455 241.805329 
L 370.233818 240.532226 
L 370.538182 238.289025 
L 371.146909 230.991293 
L 371.755636 220.202589 
L 372.668727 198.447157 
L 373.581818 171.771949 
L 373.581818 171.771949 
" style="fill:none;stroke:#1f77b4;stroke-linecap:square;stroke-width:1.5;"/>
   </g>
   <g id="patch_3">
    <path d="M 54 252 
L 54 34.56 
" style="fill:none;stroke:#000000;stroke-linecap:square;stroke-linejoin:miter;stroke-width:0.8;"/>
   </g>
   <g id="patch_4">
    <path d="M 388.8 252 
L 388.8 34.56 
" style="fill:none;stroke:#000000;stroke-linecap:square;stroke-linejoin:miter;stroke-width:0.8;"/>
   </g>
   <g id="patch_5">
    <path d="M 54 252 
L 388.8 252 
" style="fill:none;stroke:#000000;stroke-linecap:square;stroke-linejoin:miter;stroke-width:0.8;"/>
   </g>
   <g id="patch_6">
    <path d="M 54 34.56 
L 388.8 34.56 
" style="fill:none;stroke:#000000;stroke-linecap:square;stroke-linejoin:miter;stroke-width:0.8;"/>
   </g>
   <g id="text_14">
    <!-- x1-Trapezoidal-zad3 -->
    <g transform="translate(161.732813 28.56)scale(0.12 -0.12)">
     <defs>
      <path d="M 54.890625 54.6875 
L 35.109375 28.078125 
L 55.90625 0 
L 45.3125 0 
L 29.390625 21.484375 
L 13.484375 0 
L 2.875 0 
L 24.125 28.609375 
L 4.6875 54.6875 
L 15.28125 54.6875 
L 29.78125 35.203125 
L 44.28125 54.6875 
z
" id="DejaVuSans-120"/>
      <path d="M 4.890625 31.390625 
L 31.203125 31.390625 
L 31.203125 23.390625 
L 4.890625 23.390625 
z
" id="DejaVuSans-45"/>
      <path d="M -0.296875 72.90625 
L 61.375 72.90625 
L 61.375 64.59375 
L 35.5 64.59375 
L 35.5 0 
L 25.59375 0 
L 25.59375 64.59375 
L -0.296875 64.59375 
z
" id="DejaVuSans-84"/>
      <path d="M 41.109375 46.296875 
Q 39.59375 47.171875 37.8125 47.578125 
Q 36.03125 48 33.890625 48 
Q 26.265625 48 22.1875 43.046875 
Q 18.109375 38.09375 18.109375 28.8125 
L 18.109375 0 
L 9.078125 0 
L 9.078125 54.6875 
L 18.109375 54.6875 
L 18.109375 46.1875 
Q 20.953125 51.171875 25.484375 53.578125 
Q 30.03125 56 36.53125 56 
Q 37.453125 56 38.578125 55.875 
Q 39.703125 55.765625 41.0625 55.515625 
z
" id="DejaVuSans-114"/>
      <path d="M 34.28125 27.484375 
Q 23.390625 27.484375 19.1875 25 
Q 14.984375 22.515625 14.984375 16.5 
Q 14.984375 11.71875 18.140625 8.90625 
Q 21.296875 6.109375 26.703125 6.109375 
Q 34.1875 6.109375 38.703125 11.40625 
Q 43.21875 16.703125 43.21875 25.484375 
L 43.21875 27.484375 
z
M 52.203125 31.203125 
L 52.203125 0 
L 43.21875 0 
L 43.21875 8.296875 
Q 40.140625 3.328125 35.546875 0.953125 
Q 30.953125 -1.421875 24.3125 -1.421875 
Q 15.921875 -1.421875 10.953125 3.296875 
Q 6 8.015625 6 15.921875 
Q 6 25.140625 12.171875 29.828125 
Q 18.359375 34.515625 30.609375 34.515625 
L 43.21875 34.515625 
L 43.21875 35.40625 
Q 43.21875 41.609375 39.140625 45 
Q 35.0625 48.390625 27.6875 48.390625 
Q 23 48.390625 18.546875 47.265625 
Q 14.109375 46.140625 10.015625 43.890625 
L 10.015625 52.203125 
Q 14.9375 54.109375 19.578125 55.046875 
Q 24.21875 56 28.609375 56 
Q 40.484375 56 46.34375 49.84375 
Q 52.203125 43.703125 52.203125 31.203125 
z
" id="DejaVuSans-97"/>
      <path d="M 18.109375 8.203125 
L 18.109375 -20.796875 
L 9.078125 -20.796875 
L 9.078125 54.6875 
L 18.109375 54.6875 
L 18.109375 46.390625 
Q 20.953125 51.265625 25.265625 53.625 
Q 29.59375 56 35.59375 56 
Q 45.5625 56 51.78125 48.09375 
Q 58.015625 40.1875 58.015625 27.296875 
Q 58.015625 14.40625 51.78125 6.484375 
Q 45.5625 -1.421875 35.59375 -1.421875 
Q 29.59375 -1.421875 25.265625 0.953125 
Q 20.953125 3.328125 18.109375 8.203125 
z
M 48.6875 27.296875 
Q 48.6875 37.203125 44.609375 42.84375 
Q 40.53125 48.484375 33.40625 48.484375 
Q 26.265625 48.484375 22.1875 42.84375 
Q 18.109375 37.203125 18.109375 27.296875 
Q 18.109375 17.390625 22.1875 11.75 
Q 26.265625 6.109375 33.40625 6.109375 
Q 40.53125 6.109375 44.609375 11.75 
Q 48.6875 17.390625 48.6875 27.296875 
z
" id="DejaVuSans-112"/>
      <path d="M 56.203125 29.59375 
L 56.203125 25.203125 
L 14.890625 25.203125 
Q 15.484375 15.921875 20.484375 11.0625 
Q 25.484375 6.203125 34.421875 6.203125 
Q 39.59375 6.203125 44.453125 7.46875 
Q 49.3125 8.734375 54.109375 11.28125 
L 54.109375 2.78125 
Q 49.265625 0.734375 44.1875 -0.34375 
Q 39.109375 -1.421875 33.890625 -1.421875 
Q 20.796875 -1.421875 13.15625 6.1875 
Q 5.515625 13.8125 5.515625 26.8125 
Q 5.515625 40.234375 12.765625 48.109375 
Q 20.015625 56 32.328125 56 
Q 43.359375 56 49.78125 48.890625 
Q 56.203125 41.796875 56.203125 29.59375 
z
M 47.21875 32.234375 
Q 47.125 39.59375 43.09375 43.984375 
Q 39.0625 48.390625 32.421875 48.390625 
Q 24.90625 48.390625 20.390625 44.140625 
Q 15.875 39.890625 15.1875 32.171875 
z
" id="DejaVuSans-101"/>
      <path d="M 5.515625 54.6875 
L 48.1875 54.6875 
L 48.1875 46.484375 
L 14.40625 7.171875 
L 48.1875 7.171875 
L 48.1875 0 
L 4.296875 0 
L 4.296875 8.203125 
L 38.09375 47.515625 
L 5.515625 47.515625 
z
" id="DejaVuSans-122"/>
      <path d="M 30.609375 48.390625 
Q 23.390625 48.390625 19.1875 42.75 
Q 14.984375 37.109375 14.984375 27.296875 
Q 14.984375 17.484375 19.15625 11.84375 
Q 23.34375 6.203125 30.609375 6.203125 
Q 37.796875 6.203125 41.984375 11.859375 
Q 46.1875 17.53125 46.1875 27.296875 
Q 46.1875 37.015625 41.984375 42.703125 
Q 37.796875 48.390625 30.609375 48.390625 
z
M 30.609375 56 
Q 42.328125 56 49.015625 48.375 
Q 55.71875 40.765625 55.71875 27.296875 
Q 55.71875 13.875 49.015625 6.21875 
Q 42.328125 -1.421875 30.609375 -1.421875 
Q 18.84375 -1.421875 12.171875 6.21875 
Q 5.515625 13.875 5.515625 27.296875 
Q 5.515625 40.765625 12.171875 48.375 
Q 18.84375 56 30.609375 56 
z
" id="DejaVuSans-111"/>
      <path d="M 9.421875 54.6875 
L 18.40625 54.6875 
L 18.40625 0 
L 9.421875 0 
z
M 9.421875 75.984375 
L 18.40625 75.984375 
L 18.40625 64.59375 
L 9.421875 64.59375 
z
" id="DejaVuSans-105"/>
      <path d="M 45.40625 46.390625 
L 45.40625 75.984375 
L 54.390625 75.984375 
L 54.390625 0 
L 45.40625 0 
L 45.40625 8.203125 
Q 42.578125 3.328125 38.25 0.953125 
Q 33.9375 -1.421875 27.875 -1.421875 
Q 17.96875 -1.421875 11.734375 6.484375 
Q 5.515625 14.40625 5.515625 27.296875 
Q 5.515625 40.1875 11.734375 48.09375 
Q 17.96875 56 27.875 56 
Q 33.9375 56 38.25 53.625 
Q 42.578125 51.265625 45.40625 46.390625 
z
M 14.796875 27.296875 
Q 14.796875 17.390625 18.875 11.75 
Q 22.953125 6.109375 30.078125 6.109375 
Q 37.203125 6.109375 41.296875 11.75 
Q 45.40625 17.390625 45.40625 27.296875 
Q 45.40625 37.203125 41.296875 42.84375 
Q 37.203125 48.484375 30.078125 48.484375 
Q 22.953125 48.484375 18.875 42.84375 
Q 14.796875 37.203125 14.796875 27.296875 
z
" id="DejaVuSans-100"/>
      <path d="M 9.421875 75.984375 
L 18.40625 75.984375 
L 18.40625 0 
L 9.421875 0 
z
" id="DejaVuSans-108"/>
     </defs>
     <use xlink:href="#DejaVuSans-120"/>
     <use x="59.179688" xlink:href="#DejaVuSans-49"/>
     <use x="122.802734" xlink:href="#DejaVuSans-45"/>
     <use x="149.761719" xlink:href="#DejaVuSans-84"/>
     <use x="196.095703" xlink:href="#DejaVuSans-114"/>
     <use x="237.208984" xlink:href="#DejaVuSans-97"/>
     <use x="298.488281" xlink:href="#DejaVuSans-112"/>
     <use x="361.964844" xlink:href="#DejaVuSans-101"/>
     <use x="423.488281" xlink:href="#DejaVuSans-122"/>
     <use x="475.978516" xlink:href="#DejaVuSans-111"/>
     <use x="537.160156" xlink:href="#DejaVuSans-105"/>
     <use x="564.943359" xlink:href="#DejaVuSans-100"/>
     <use x="628.419922" xlink:href="#DejaVuSans-97"/>
     <use x="689.699219" xlink:href="#DejaVuSans-108"/>
     <use x="717.482422" xlink:href="#DejaVuSans-45"/>
     <use x="753.566406" xlink:href="#DejaVuSans-122"/>
     <use x="806.056641" xlink:href="#DejaVuSans-97"/>
     <use x="867.335938" xlink:href="#DejaVuSans-100"/>
     <use x="930.8125" xlink:href="#DejaVuSans-51"/>
    </g>
   </g>
   <g id="legend_1">
    <g id="patch_7">
     <path d="M 337.51875 152.119062 
L 381.8 152.119062 
Q 383.8 152.119062 383.8 150.119062 
L 383.8 136.440937 
Q 383.8 134.440937 381.8 134.440937 
L 337.51875 134.440937 
Q 335.51875 134.440937 335.51875 136.440937 
L 335.51875 150.119062 
Q 335.51875 152.119062 337.51875 152.119062 
z
" style="fill:#ffffff;opacity:0.8;stroke:#cccccc;stroke-linejoin:miter;"/>
    </g>
    <g id="line2d_15">
     <path d="M 339.51875 142.539375 
L 359.51875 142.539375 
" style="fill:none;stroke:#1f77b4;stroke-linecap:square;stroke-width:1.5;"/>
    </g>
    <g id="line2d_16"/>
    <g id="text_15">
     <!-- x1 -->
     <g transform="translate(367.51875 146.039375)scale(0.1 -0.1)">
      <use xlink:href="#DejaVuSans-120"/>
      <use x="59.179688" xlink:href="#DejaVuSans-49"/>
     </g>
    </g>
   </g>
  </g>
 </g>
 <defs>
  <clipPath id="p65d805d892">
   <rect height="217.44" width="334.8" x="54" y="34.56"/>
  </clipPath>
 </defs>
</svg>
